<?xml version="1.0" encoding="UTF-8"?>
<svg width="14px" height="14px" viewBox="0 0 14 14" version="1.1" xmlns="http://www.w3.org/2000/svg" xmlns:xlink="http://www.w3.org/1999/xlink">
    <!-- Generator: Sketch 47.1 (45422) - http://www.bohemiancoding.com/sketch -->
    <title>帮助</title>
    <desc>Created with Sketch.</desc>
    <defs></defs>
    <g id="招聘" stroke="none" stroke-width="1" fill="none" fill-rule="evenodd">
        <g id="切图" transform="translate(-45.000000, -90.000000)" stroke="#6699EE">
            <g id="Group-28" transform="translate(45.000000, 90.000000)">
                <circle id="Oval-3" stroke-width="1.5" cx="7" cy="7" r="6.25"></circle>
                <path d="M7.11,3.72 C7.7566699,3.72 8.2766647,3.8966649 8.67,4.25 C9.070002,4.5966684 9.27,5.0733303 9.27,5.68 C9.27,6.1666691 9.1433346,6.5733317 8.89,6.9 C8.8033329,7.0066672 8.5233357,7.2666646 8.05,7.68 C7.8633324,7.8333341 7.7233338,8.0066657 7.63,8.2 C7.57933961,8.29182195 7.5304174,8.44308807 7.48323336,8.65379837 L6.40685585,8.6524272 C6.46318691,8.2914744 6.52756829,8.04399867 6.6,7.91 C6.7266673,7.643332 7.1033302,7.2300028 7.73,6.67 L7.9,6.48 C8.0866676,6.2399988 8.18,5.9966679 8.18,5.75 C8.18,5.4099983 8.0833343,5.1366677 7.89,4.93 C7.689999,4.729999 7.4066685,4.63 7.04,4.63 C6.5866644,4.63 6.260001,4.7733319 6.06,5.06 C5.8799991,5.3000012 5.79,5.6399978 5.79,6.08 L4.74,6.08 C4.74,5.3533297 4.9499979,4.7800021 5.37,4.36 C5.7900021,3.9333312 6.3699963,3.72 7.11,3.72 Z M6.93,9.57 C7.1500011,9.57 7.326666,9.636666 7.46,9.77 C7.6000007,9.8966673 7.67,10.0666656 7.67,10.28 C7.67,10.480001 7.5966674,10.6533326 7.45,10.8 C7.3033326,10.933334 7.130001,11 6.93,11 C6.7233323,11 6.5500007,10.9300007 6.41,10.79 C6.2699993,10.6499993 6.2,10.480001 6.2,10.28 C6.2,10.0666656 6.2699993,9.8966673 6.41,9.77 C6.543334,9.636666 6.7166656,9.57 6.93,9.57 Z" id="？" stroke-width="0.3" fill="#6699EE"></path>
            </g>
        </g>
    </g>
</svg>