<?xml version="1.0" encoding="UTF-8"?>
<svg width="14px" height="14px" viewBox="0 0 14 14" version="1.1" xmlns="http://www.w3.org/2000/svg" xmlns:xlink="http://www.w3.org/1999/xlink">
    <!-- Generator: Sketch 52.3 (67297) - http://www.bohemiancoding.com/sketch -->
    <title>Group 28</title>
    <desc>Created with Sketch.</desc>
    <g id="Page-1" stroke="none" stroke-width="1" fill="none" fill-rule="evenodd">
        <g id="Group-28">
            <circle id="Oval-3" stroke="#6699EE" stroke-width="1.5" cx="7" cy="7" r="6.25"></circle>
            <path d="M6.93,9.57 C7.1500011,9.57 7.326666,9.636666 7.46,9.77 C7.6000007,9.8966673 7.67,10.0666656 7.67,10.28 C7.67,10.480001 7.5966674,10.6533326 7.45,10.8 C7.3033326,10.933334 7.130001,11 6.93,11 C6.7233323,11 6.5500007,10.9300007 6.41,10.79 C6.2699993,10.6499993 6.2,10.480001 6.2,10.28 C6.2,10.0666656 6.2699993,9.8966673 6.41,9.77 C6.543334,9.636666 6.7166656,9.57 6.93,9.57 Z" id="？" stroke="#6699EE" stroke-width="0.3" fill="#6699EE"></path>
            <rect id="矩形" fill="#6699EE" x="6.2253418" y="2.84753418" width="1.5" height="6" rx="0.75"></rect>
        </g>
    </g>
</svg>