<?xml version="1.0" encoding="UTF-8"?>
<svg width="16px" height="16px" viewBox="0 0 16 16" version="1.1" xmlns="http://www.w3.org/2000/svg" xmlns:xlink="http://www.w3.org/1999/xlink">
    <!-- Generator: Sketch 47.1 (45422) - http://www.bohemiancoding.com/sketch -->
    <title>账号活跃统计_默认</title>
    <desc>Created with Sketch.</desc>
    <defs></defs>
    <g id="招聘" stroke="none" stroke-width="1" fill="none" fill-rule="evenodd">
        <g id="切图" transform="translate(-52.000000, -25.000000)" fill="#8492A6">
            <path d="M60.9531466,31.7887924 L58.9464614,35.4373118 L57.5902505,33.3276504 C57.5137029,33.2085764 57.4127472,33.1071108 57.2940604,33.0299644 C56.8310008,32.7289756 56.2116172,32.86036 55.9106284,33.3234196 L53.2891232,37.3565046 C52.4737222,36.103009 52,34.6068264 52,33 C52,28.581722 55.581722,25 60,25 C64.418278,25 68,28.581722 68,33 C68,37.418278 64.418278,41 60,41 C57.7936499,41 55.7959111,40.1068289 54.3486314,38.6623346 L56.7462881,34.9736319 L58.1454369,37.1500855 C58.444089,37.6146556 59.0628029,37.7491586 59.5273729,37.4505064 C59.6673403,37.3605274 59.7826427,37.237044 59.8628313,37.0912466 L62.4498957,32.3874921 L63.9659764,32.9939243 L63.9659764,32.9939243 C64.0685331,33.034947 64.1849272,32.9850638 64.2259499,32.8825071 C64.2403588,32.8464849 64.2439794,32.8070495 64.2363707,32.7690058 L63.3710158,28.4422312 C63.3493534,28.3339192 63.2439884,28.2636759 63.1356764,28.2853383 C63.1063921,28.2911951 63.0787911,28.3035358 63.0548997,28.3214544 L59.59348,30.9175192 C59.5051144,30.9837933 59.4872058,31.1091536 59.55348,31.1975192 C59.5754888,31.2268643 59.6051441,31.2495914 59.6392018,31.2632145 L60.9531466,31.7887924 Z" id="Combined-Shape"></path>
        </g>
    </g>
</svg>