<?xml version="1.0" encoding="UTF-8"?>
<svg width="16px" height="16px" viewBox="0 0 16 16" version="1.1" xmlns="http://www.w3.org/2000/svg" xmlns:xlink="http://www.w3.org/1999/xlink">
    <!-- Generator: Sketch 47.1 (45422) - http://www.bohemiancoding.com/sketch -->
    <title>招聘统计_默认</title>
    <desc>Created with Sketch.</desc>
    <defs></defs>
    <g id="招聘" stroke="none" stroke-width="1" fill="none" fill-rule="evenodd">
        <g id="切图" transform="translate(-19.000000, -25.000000)" fill="#8492A6">
            <path d="M19,27 L19,27 C19,25.8954305 19.8954305,25 21,25 L21,25 L33,25 C34.1045695,25 35,25.8954305 35,27 L35,27 L35,39 C35,40.1045695 34.1045695,41 33,41 L21,41 C19.8954305,41 19,40.1045695 19,39 L19,27 Z M27.8658573,36.4140154 L32.6970784,31.7169949 L31.3029216,30.2830051 L28.1341427,33.3637624 L26.1792364,30.6486149 L21.3535828,34.7370158 L22.6464172,36.2629842 L25.8207636,33.5736074 L27.8658573,36.4140154 Z" id="Combined-Shape"></path>
        </g>
    </g>
</svg>