<?xml version="1.0" encoding="UTF-8"?>
<svg width="272px" height="109px" viewBox="0 0 272 109" version="1.1" xmlns="http://www.w3.org/2000/svg" xmlns:xlink="http://www.w3.org/1999/xlink">
    <!-- Generator: Sketch 47.1 (45422) - http://www.bohemiancoding.com/sketch -->
    <title>开启提示</title>
    <desc>Created with Sketch.</desc>
    <defs>
        <linearGradient x1="105.357422%" y1="12.2619048%" x2="0%" y2="64.6875%" id="linearGradient-1">
            <stop stop-color="#FFB948" offset="0%"></stop>
            <stop stop-color="#F5974E" offset="100%"></stop>
        </linearGradient>
        <linearGradient x1="100%" y1="35.7105655%" x2="0%" y2="72.1800595%" id="linearGradient-2">
            <stop stop-color="#FFA766" offset="0%"></stop>
            <stop stop-color="#F78329" offset="100%"></stop>
        </linearGradient>
        <path d="M55,160 L283,160 L283,160 C284.104569,160 285,160.895431 285,162 L285,234 L285,234 C285,235.104569 284.104569,236 283,236 L55,236 L55,236 C53.8954305,236 53,235.104569 53,234 L53,162 L53,162 C53,160.895431 53.8954305,160 55,160 Z" id="path-3"></path>
    </defs>
    <g id="Page-1" stroke="none" stroke-width="1" fill="none" fill-rule="evenodd">
        <g id="Artboard" transform="translate(-27.000000, -140.000000)">
            <g id="Combined-Shape">
                <use fill="url(#linearGradient-1)" fill-rule="evenodd" xlink:href="#path-3"></use>
                <path stroke="url(#linearGradient-2)" stroke-width="1" d="M55,159.5 L283,159.5 C284.380712,159.5 285.5,160.619288 285.5,162 L285.5,234 C285.5,235.380712 284.380712,236.5 283,236.5 L55,236.5 C53.6192881,236.5 52.5,235.380712 52.5,234 L52.5,162 C52.5,160.619288 53.6192881,159.5 55,159.5 Z"></path>
            </g>
            <g id="Group-6" transform="translate(29.000000, 142.000000)" stroke-width="3">
                <path d="M267.5,7.5 L267.5,19.5791769" id="Line-2" stroke="#FCB049" stroke-linecap="round"></path>
                <path d="M267.539588,7.53958844 L245.460412,7.53958844" id="Line-2" stroke="#FEB548" stroke-linecap="round"></path>
                <path d="M267.5,92.5 L267.5,104.579177" id="Line-2" stroke="#FEB648" stroke-linecap="round"></path>
                <path d="M267.079177,105 L255,105" id="Line-2" stroke="#FEB648" stroke-linecap="round"></path>
                <path d="M12.5,81.5 L12.5,103.579177" id="Line-2" stroke="#F5974E" stroke-linecap="round"></path>
                <path d="M25.0791769,104 L13,104" id="Line-2" stroke="#F5974E" stroke-linecap="round"></path>
                <circle id="Oval-4" stroke="#F5994D" cx="4" cy="4" r="4"></circle>
                <circle id="Oval-4" stroke="#F8A04C" opacity="0.200000003" cx="22" cy="15" r="3"></circle>
            </g>
        </g>
    </g>
</svg>