<?xml version="1.0" encoding="UTF-8"?>
<svg width="22px" height="26px" viewBox="0 0 22 26" version="1.1" xmlns="http://www.w3.org/2000/svg" xmlns:xlink="http://www.w3.org/1999/xlink">
    <!-- Generator: Sketch 46.2 (44496) - http://www.bohemiancoding.com/sketch -->
    <title>列表坐标icon</title>
    <desc>Created with Sketch.</desc>
    <defs></defs>
    <g id="Page-1" stroke="none" stroke-width="1" fill="none" fill-rule="evenodd">
        <g id="Artboard" transform="translate(-317.000000, -46.000000)" fill="#FFAA00">
            <path d="M324.074879,67.2790453 C319.938052,65.6984335 317,61.6923262 317,57 C317,50.9248678 321.924868,46 328,46 C334.075132,46 339,50.9248678 339,57 C339,62.0163381 335.642186,66.2484166 331.051584,67.5712082 C330.995892,67.6189474 330.897297,67.6701717 330.75,67.725 C329.265,68.277762 328.366116,69.5992093 328.053347,71.689342 L327.745712,71.6433073 C327.749842,71.6157071 327.747807,71.5875346 327.739752,71.5608147 C327.012981,69.1498413 325.908064,67.7795697 324.425,67.45 C324.140255,67.3867233 324.037507,67.3294522 324.074879,67.2790453 Z" id="Oval"></path>
        </g>
    </g>
</svg>