<?xml version="1.0" encoding="UTF-8"?>
<svg width="188px" height="97px" viewBox="0 0 188 97" version="1.1" xmlns="http://www.w3.org/2000/svg" xmlns:xlink="http://www.w3.org/1999/xlink">
    <!-- Generator: Sketch 46.2 (44496) - http://www.bohemiancoding.com/sketch -->
    <title>知道了</title>
    <desc>Created with Sketch.</desc>
    <defs>
        <linearGradient x1="105.357422%" y1="12.2619048%" x2="0%" y2="64.6875%" id="linearGradient-1">
            <stop stop-color="#FFB948" offset="0%"></stop>
            <stop stop-color="#F5974E" offset="100%"></stop>
        </linearGradient>
        <linearGradient x1="100%" y1="35.7105655%" x2="0%" y2="72.1800595%" id="linearGradient-2">
            <stop stop-color="#FFA766" offset="0%"></stop>
            <stop stop-color="#F78329" offset="100%"></stop>
        </linearGradient>
        <path d="M510,156 L367,156 L367,156 C360.372583,156 355,161.372583 355,168 L355,233 C355,239.627417 360.372583,245 367,245 L529,245 C535.627417,245 541,239.627417 541,233 L541,233 L541,168 C541,161.372583 535.627417,156 529,156 L522,156 L516.707107,150.707107 L516.707107,150.707107 C516.316582,150.316582 515.683418,150.316582 515.292893,150.707107 L515.292893,150.707107 L510,156 Z" id="path-3"></path>
    </defs>
    <g id="Page-1" stroke="none" stroke-width="1" fill="none" fill-rule="evenodd">
        <g id="Artboard" transform="translate(-354.000000, -149.000000)">
            <g id="Rectangle-113-Copy-4">
                <use fill="url(#linearGradient-1)" fill-rule="evenodd" xlink:href="#path-3"></use>
                <path stroke="url(#linearGradient-2)" stroke-width="1" d="M509.792893,155.5 L510,155.5 L509.646447,155.646447 L509.792893,155.5 Z M509.792893,155.5 L514.93934,150.353553 C515.525126,149.767767 516.474874,149.767767 517.06066,150.353553 L522.207107,155.5 L529,155.5 C535.903559,155.5 541.5,161.096441 541.5,168 L541.5,233 C541.5,239.903559 535.903559,245.5 529,245.5 L367,245.5 C360.096441,245.5 354.5,239.903559 354.5,233 L354.5,168 C354.5,161.096441 360.096441,155.5 367,155.5 L509.792893,155.5 Z"></path>
            </g>
        </g>
    </g>
</svg>