<?xml version="1.0" encoding="UTF-8"?>
<svg width="22px" height="28px" viewBox="0 0 22 28" version="1.1" xmlns="http://www.w3.org/2000/svg" xmlns:xlink="http://www.w3.org/1999/xlink">
    <!-- Generator: Sketch 47.1 (45422) - http://www.bohemiancoding.com/sketch -->
    <title>坐标icon</title>
    <desc>Created with Sketch.</desc>
    <defs>
        <linearGradient x1="36.1094958%" y1="10.8940982%" x2="50%" y2="100%" id="linearGradient-1">
            <stop stop-color="#7DAEFF" offset="0%"></stop>
            <stop stop-color="#6699EE" offset="100%"></stop>
        </linearGradient>
    </defs>
    <g id="Page-1" stroke="none" stroke-width="1" fill="none" fill-rule="evenodd">
        <g id="Artboard" transform="translate(-40.000000, -50.000000)">
            <g id="Group-16" transform="translate(40.000000, 50.000000)">
                <rect id="Rectangle-13" fill="#D8D8D8" opacity="0" x="0" y="0" width="22" height="28"></rect>
                <g id="Group-14" transform="translate(1.000000, 2.000000)">
                    <ellipse id="Oval-6" fill-opacity="0.142181839" fill="#000000" cx="10" cy="23.5" rx="4" ry="1.5"></ellipse>
                    <path d="M6.43170861,19.3445867 C2.67095642,17.9076668 0,14.2657511 0,10 C0,4.4771525 4.4771525,0 10,0 C15.5228475,0 20,4.4771525 20,10 C20,14.5603073 16.9474414,18.4076514 12.7741671,19.6101893 C12.7235386,19.6535885 12.6339062,19.7001561 12.5,19.75 C11.15,20.2525109 10.3328324,21.4538267 10.0484972,23.3539473 L9.76450742,23.3114509 C9.76917629,23.2802503 9.7668511,23.2484021 9.75770009,23.2182106 C9.09692757,21.0381504 8.09436088,19.7987469 6.75,19.5 C6.49114065,19.4424757 6.39773356,19.3904111 6.43170861,19.3445867 Z" id="Oval" fill="url(#linearGradient-1)"></path>
                    <circle id="Oval-4" fill="#FFFFFF" cx="10" cy="10" r="3"></circle>
                </g>
            </g>
        </g>
    </g>
</svg>