<?xml version="1.0" encoding="UTF-8"?>
<svg width="18px" height="18px" viewBox="0 0 18 18" version="1.1" xmlns="http://www.w3.org/2000/svg" xmlns:xlink="http://www.w3.org/1999/xlink">
    <!-- Generator: Sketch 47.1 (45422) - http://www.bohemiancoding.com/sketch -->
    <title>查看全部</title>
    <desc>Created with Sketch.</desc>
    <defs></defs>
    <g id="Page-1" stroke="none" stroke-width="1" fill="none" fill-rule="evenodd">
        <g id="Artboard" transform="translate(-75.000000, -55.000000)">
            <g id="Group-19" transform="translate(75.000000, 55.000000)">
                <rect id="Rectangle-13" fill="#D8D8D8" opacity="0" x="0" y="0" width="18" height="18"></rect>
                <path d="M8.99981207,3 C5.36373887,3 2.25800465,5.48773429 1,9 C2.25800465,12.5118523 5.36373887,15 8.99981207,15 C12.6362611,15 15.7416195,12.5118523 17,9 C15.7416195,5.48773429 12.6362611,3 8.99981207,3 L8.99981207,3 Z M8.99979327,13 C6.79192723,13 5,11.2080728 5,9.00020673 C5,6.79192723 6.79192723,5 8.99979327,5 C11.2080728,5 13,6.79192723 13,9.00020673 C13,11.2080728 11.2080728,13 8.99979327,13 L8.99979327,13 Z M9,7 C7.89336779,7 7,7.89336779 7,9 C7,10.1066322 7.89336779,11 9,11 C10.1066322,11 11,10.1066322 11,9 C11,7.89336779 10.1066322,7 9,7 L9,7 Z" id="Fill-29" fill="#6699EE"></path>
            </g>
        </g>
    </g>
</svg>