<?xml version="1.0" encoding="UTF-8"?>
<svg width="32px" height="36px" viewBox="0 0 32 36" version="1.1" xmlns="http://www.w3.org/2000/svg" xmlns:xlink="http://www.w3.org/1999/xlink">
    <!-- Generator: Sketch 48.2 (47327) - http://www.bohemiancoding.com/sketch -->
    <title>坐标点_点击态</title>
    <desc>Created with Sketch.</desc>
    <defs>
        <linearGradient x1="50%" y1="0%" x2="50%" y2="100%" id="linearGradient-1">
            <stop stop-color="#7DADFF" offset="0%"></stop>
            <stop stop-color="#72A4F7" offset="46.2485017%"></stop>
            <stop stop-color="#689BF0" offset="100%"></stop>
        </linearGradient>
        <radialGradient cx="50%" cy="-27.3942211%" fx="50%" fy="-27.3942211%" r="79.1441524%" gradientTransform="translate(0.500000,-0.273942),scale(1.000000,0.895652),rotate(90.000000),translate(-0.500000,0.273942)" id="radialGradient-2">
            <stop stop-color="#BBD5FF" offset="0%"></stop>
            <stop stop-color="#70A4FB" offset="100%"></stop>
        </radialGradient>
        <path d="M12.8048723,29.8405246 C5.56117093,28.7783244 0,22.5386028 0,15 C0,6.71572875 6.71572875,0 15,0 C23.2842712,0 30,6.71572875 30,15 C30,22.7223979 24.1643548,29.0818079 16.6623676,29.9089266 C15.7897037,30.7236486 15.1849013,31.9190632 14.8479605,33.4951704 L14.4717559,33.4147453 C14.478777,33.3819024 14.4780173,33.3478725 14.4695372,33.3153757 C14.0724014,31.7934883 13.5175131,30.6352046 12.8048723,29.8405246 Z" id="path-3"></path>
    </defs>
    <g id="Artboard" stroke="none" stroke-width="1" fill="none" fill-rule="evenodd" transform="translate(-110.000000, -99.000000)">
        <g id="Pin-Copy-10" transform="translate(111.000000, 100.000000)">
            <ellipse id="Oval-6" fill-opacity="0.2" fill="#000000" cx="14.5" cy="33" rx="5.5" ry="2"></ellipse>
            <g id="Oval">
                <use stroke="#436B9B" fill="url(#linearGradient-1)" fill-rule="evenodd" xlink:href="#path-3"></use>
                <path stroke="url(#radialGradient-2)" d="M14.9014086,32.9952987 C14.9114552,33.0318325 14.9214073,33.0685655 14.9312648,33.1054978 L14.8479605,33.4951704 L14.4717559,33.4147453 L14.5762842,32.9257935 L14.9014086,32.9952987 Z M14.671274,32.2420006 C15.0500769,31.1193315 15.5987275,30.2179097 16.3211558,29.5434482 L16.4425277,29.4301349 L16.607573,29.4119382 C23.9138338,28.6063989 29.5,22.4098337 29.5,15 C29.5,6.99187113 23.0081289,0.5 15,0.5 C6.99187113,0.5 0.5,6.99187113 0.5,15 C0.5,22.2179532 5.80678377,28.3089935 12.8774154,29.345815 L13.0563664,29.372056 L13.1771176,29.5067081 C13.7884702,30.1884396 14.2847493,31.1006893 14.671274,32.2420006 Z"></path>
            </g>
            <circle id="Oval-2" fill="#FFFFFF" cx="15" cy="15" r="5"></circle>
        </g>
    </g>
</svg>