<?xml version="1.0" encoding="UTF-8"?>
<svg width="34px" height="37px" viewBox="0 0 34 37" version="1.1" xmlns="http://www.w3.org/2000/svg" xmlns:xlink="http://www.w3.org/1999/xlink">
    <!-- Generator: Sketch 48.2 (47327) - http://www.bohemiancoding.com/sketch -->
    <title>数字坐标_默认</title>
    <desc>Created with Sketch.</desc>
    <defs>
        <path d="M12.8048723,29.8405246 C5.56117093,28.7783244 0,22.5386028 0,15 C0,6.71572875 6.71572875,0 15,0 C23.2842712,0 30,6.71572875 30,15 C30,22.7223979 24.1643548,29.0818079 16.6623676,29.9089266 C15.7897037,30.7236486 15.1849013,31.9190632 14.8479605,33.4951704 L14.4717559,33.4147453 C14.478777,33.3819024 14.4780173,33.3478725 14.4695372,33.3153757 C14.0724014,31.7934883 13.5175131,30.6352046 12.8048723,29.8405246 Z" id="path-1"></path>
        <filter x="-10.0%" y="-9.0%" width="120.0%" height="117.9%" filterUnits="objectBoundingBox" id="filter-2">
            <feOffset dx="0" dy="0" in="SourceAlpha" result="shadowOffsetOuter1"></feOffset>
            <feGaussianBlur stdDeviation="1" in="shadowOffsetOuter1" result="shadowBlurOuter1"></feGaussianBlur>
            <feColorMatrix values="0 0 0 0 0.505713223   0 0 0 0 0.491908846   0 0 0 0 0.461515196  0 0 0 0.335795969 0" type="matrix" in="shadowBlurOuter1"></feColorMatrix>
        </filter>
    </defs>
    <g id="Artboard" stroke="none" stroke-width="1" fill="none" fill-rule="evenodd" transform="translate(-164.000000, -43.000000)">
        <g id="Pin-Copy" transform="translate(166.000000, 45.000000)">
            <ellipse id="Oval-6" fill-opacity="0.2" fill="#000000" cx="14.5" cy="33" rx="5.5" ry="2"></ellipse>
            <g id="Oval">
                <use fill="black" fill-opacity="1" filter="url(#filter-2)" xlink:href="#path-1"></use>
                <use fill="#FFFFFF" fill-rule="evenodd" xlink:href="#path-1"></use>
            </g>
            <circle id="Oval-2" fill="#FFA500" cx="15" cy="15" r="13"></circle>
        </g>
    </g>
</svg>