<?xml version="1.0" encoding="UTF-8"?>
<svg width="18px" height="18px" viewBox="0 0 18 18" version="1.1" xmlns="http://www.w3.org/2000/svg" xmlns:xlink="http://www.w3.org/1999/xlink">
    <!-- Generator: Sketch 48.2 (47327) - http://www.bohemiancoding.com/sketch -->
    <title>图例_默认</title>
    <desc>Created with Sketch.</desc>
    <defs>
        <path d="M9,18 C13.9705627,18 18,13.9705627 18,9 C18,4.02943725 13.9705627,0 9,0 C4.02943725,0 0,4.02943725 0,9 C0,13.9705627 4.02943725,18 9,18 Z" id="path-1"></path>
    </defs>
    <g id="图例_hover" stroke="none" stroke-width="1" fill="none" fill-rule="evenodd" transform="translate(-118.000000, -67.000000)">
        <g id="Group-2" transform="translate(118.000000, 67.000000)">
            <g id="Group-4">
                <g id="Bitmap">
                    <g>
                        <mask id="mask-2" fill="white">
                            <use xlink:href="#path-1"></use>
                        </mask>
                        <use id="Mask" fill="#646464" xlink:href="#path-1"></use>
                        <g id="Group-28" mask="url(#mask-2)" fill="#FFFFFF" stroke="#FFFFFF" stroke-width="0.3">
                            <g transform="translate(5.363636, 3.545455)" id="？">
                                <path d="M3.8030303,0.181818182 C4.78283318,0.181818182 5.57070409,0.449492273 6.16666667,0.984848485 C6.7727303,1.51010364 7.07575758,2.23231864 7.07575758,3.15151515 C7.07575758,3.88889258 6.8838403,4.50504803 6.5,5 C6.36868621,5.16161697 5.94444803,5.55555242 5.22727273,6.18181818 C4.94444303,6.41414258 4.73232394,6.67676621 4.59090909,6.96969697 C4.51415093,7.10882114 4.44002636,7.33801223 4.36853539,7.65727026 L2.73766038,7.65519273 C2.82301046,7.10829454 2.92055801,6.73333131 3.03030303,6.53030303 C3.22222318,6.12626061 3.79292455,5.50000424 4.74242424,4.65151515 L5,4.36363636 C5.2828297,3.99999818 5.42424242,3.631315 5.42424242,3.25757576 C5.42424242,2.74242167 5.27777924,2.32828439 4.98484848,2.01515152 C4.68181667,1.7121197 4.25252803,1.56060606 3.6969697,1.56060606 C3.01009758,1.56060606 2.51515303,1.77777561 2.21212121,2.21212121 C1.93939258,2.57575939 1.8030303,3.09090576 1.8030303,3.75757576 L0.212121212,3.75757576 C0.212121212,2.65656015 0.530299848,1.78788197 1.16666667,1.15151515 C1.80303348,0.505047273 2.68181258,0.181818182 3.8030303,0.181818182 Z M3.53030303,9.09090909 C3.86363803,9.09090909 4.13131212,9.19191818 4.33333333,9.39393939 C4.54545561,9.58585955 4.65151515,9.84343273 4.65151515,10.1666667 C4.65151515,10.4696985 4.54040515,10.7323221 4.31818182,10.9545455 C4.09595848,11.1565667 3.83333485,11.2575758 3.53030303,11.2575758 C3.21717015,11.2575758 2.95454652,11.1515162 2.74242424,10.9393939 C2.53030197,10.7272717 2.42424242,10.4696985 2.42424242,10.1666667 C2.42424242,9.84343273 2.53030197,9.58585955 2.74242424,9.39393939 C2.94444545,9.19191818 3.20706909,9.09090909 3.53030303,9.09090909 Z"></path>
                            </g>
                        </g>
                    </g>
                </g>
            </g>
        </g>
    </g>
</svg>