<?xml version="1.0" encoding="UTF-8"?>
<svg width="38px" height="52px" viewBox="0 0 38 52" version="1.1" xmlns="http://www.w3.org/2000/svg" xmlns:xlink="http://www.w3.org/1999/xlink">
    <!-- Generator: Sketch 46.2 (44496) - http://www.bohemiancoding.com/sketch -->
    <title>选中状态</title>
    <desc>Created with Sketch.</desc>
    <defs>
        <circle id="path-1" cx="15" cy="40" r="3"></circle>
        <filter x="-150.0%" y="-116.7%" width="400.0%" height="400.0%" filterUnits="objectBoundingBox" id="filter-2">
            <feMorphology radius="2" operator="dilate" in="SourceAlpha" result="shadowSpreadOuter1"></feMorphology>
            <feOffset dx="0" dy="2" in="shadowSpreadOuter1" result="shadowOffsetOuter1"></feOffset>
            <feGaussianBlur stdDeviation="2" in="shadowOffsetOuter1" result="shadowBlurOuter1"></feGaussianBlur>
            <feComposite in="shadowBlurOuter1" in2="SourceAlpha" operator="out" result="shadowBlurOuter1"></feComposite>
            <feColorMatrix values="0 0 0 0 0.622591561   0 0 0 0 0.694152388   0 0 0 0 0.762250213  0 0 0 0.5 0" type="matrix" in="shadowBlurOuter1"></feColorMatrix>
        </filter>
        <linearGradient x1="36.1094958%" y1="10.8940982%" x2="50%" y2="100%" id="linearGradient-3">
            <stop stop-color="#7DAEFF" offset="0%"></stop>
            <stop stop-color="#6699EE" offset="100%"></stop>
        </linearGradient>
        <path d="M9.64756292,29.01688 C4.00643463,26.8615003 0,21.3986266 0,15 C0,6.71572875 6.71572875,0 15,0 C23.2842712,0 30,6.71572875 30,15 C30,21.840461 25.4211621,27.6114771 19.1612506,29.415284 C19.0853079,29.4803828 18.9508592,29.5502341 18.75,29.625 C17.0081848,30.2733564 15.8577079,31.6972475 15.2985692,33.8966734 L15.298552,33.896669 C15.2305175,34.1642891 14.9584158,34.3260852 14.6907957,34.2580507 C14.5301751,34.2172177 14.4002257,34.0994471 14.3438343,33.9436065 C13.3585002,31.2205849 11.9522221,29.6560494 10.125,29.25 C9.73671098,29.1637136 9.59660033,29.0856166 9.64756292,29.01688 Z" id="path-4"></path>
        <filter x="-23.3%" y="-13.9%" width="146.7%" height="138.9%" filterUnits="objectBoundingBox" id="filter-5">
            <feOffset dx="0" dy="2" in="SourceAlpha" result="shadowOffsetOuter1"></feOffset>
            <feGaussianBlur stdDeviation="2" in="shadowOffsetOuter1" result="shadowBlurOuter1"></feGaussianBlur>
            <feColorMatrix values="0 0 0 0 0.675116922   0 0 0 0 0.600854915   0 0 0 0 0.507842746  0 0 0 0.5 0" type="matrix" in="shadowBlurOuter1"></feColorMatrix>
        </filter>
    </defs>
    <g id="Page-1" stroke="none" stroke-width="1" fill="none" fill-rule="evenodd">
        <g id="Artboard" transform="translate(-261.000000, -33.000000)">
            <g id="Pin" transform="translate(265.000000, 35.000000)">
                <g id="Dot">
                    <use fill="black" fill-opacity="1" filter="url(#filter-2)" xlink:href="#path-1"></use>
                    <use fill="#6699EE" fill-rule="evenodd" xlink:href="#path-1"></use>
                    <circle stroke="#FFFFFF" stroke-width="2" cx="15" cy="40" r="4"></circle>
                </g>
                <g id="Oval">
                    <use fill="black" fill-opacity="1" filter="url(#filter-5)" xlink:href="#path-4"></use>
                    <use fill="url(#linearGradient-3)" fill-rule="evenodd" xlink:href="#path-4"></use>
                </g>
            </g>
        </g>
    </g>
</svg>