<?xml version="1.0" encoding="UTF-8"?>
<svg width="21px" height="12px" viewBox="0 0 21 12" version="1.1" xmlns="http://www.w3.org/2000/svg" xmlns:xlink="http://www.w3.org/1999/xlink">
    <!-- Generator: Sketch 47.1 (45422) - http://www.bohemiancoding.com/sketch -->
    <title>倒三角</title>
    <desc>Created with Sketch.</desc>
    <defs>
        <path d="M165.72776,253.999571 L306,253.999571 C308.209139,253.999571 310,252.20871 310,249.999571 L310,249.999571 L310,4 C310,1.790861 308.209139,3.09879411e-14 306,0 L306,6.20374002e-15 L4,3.87125522e-14 L4,4.26325641e-14 C1.790861,4.30383764e-14 1.50581534e-15,1.790861 1.77635684e-15,4 L1.311287e-15,4 L0,249.999571 C2.705415e-16,252.20871 1.790861,253.999571 4,253.999571 L145.27224,253.999571 L154.839372,262.418647 C155.217079,262.751029 155.782921,262.751029 156.160628,262.418647 L165.72776,253.999571 Z" id="path-1"></path>
        <filter x="-1.1%" y="-1.0%" width="102.3%" height="102.7%" filterUnits="objectBoundingBox" id="filter-2">
            <feOffset dx="0" dy="1" in="SourceAlpha" result="shadowOffsetOuter1"></feOffset>
            <feGaussianBlur stdDeviation="1" in="shadowOffsetOuter1" result="shadowBlurOuter1"></feGaussianBlur>
            <feColorMatrix values="0 0 0 0 0.667489961   0 0 0 0 0.673992553   0 0 0 0 0.678438563  0 0 0 0.5 0" type="matrix" in="shadowBlurOuter1"></feColorMatrix>
        </filter>
    </defs>
    <g id="Page-1" stroke="none" stroke-width="1" fill="none" fill-rule="evenodd">
        <g id="Artboard" transform="translate(-146.000000, -373.000000)">
            <g id="Group-2" transform="translate(1.000000, 119.000000)">
                <g id="Combined-Shape">
                    <use fill="black" fill-opacity="1" filter="url(#filter-2)" xlink:href="#path-1"></use>
                    <use fill="#FFFFFF" fill-rule="evenodd" xlink:href="#path-1"></use>
                </g>
            </g>
        </g>
    </g>
</svg>