<?xml version="1.0" encoding="UTF-8"?>
<svg width="14px" height="14px" viewBox="0 0 14 14" version="1.1" xmlns="http://www.w3.org/2000/svg" xmlns:xlink="http://www.w3.org/1999/xlink">
    <!-- Generator: Sketch 45.1 (43504) - http://www.bohemiancoding.com/sketch -->
    <title>删除_hover</title>
    <desc>Created with Sketch.</desc>
    <defs></defs>
    <g id="1.1_人员管理" stroke="none" stroke-width="1" fill="none" fill-rule="evenodd">
        <g id="Artboard" transform="translate(-532.000000, -354.000000)">
            <g id="Group" transform="translate(532.000000, 354.000000)">
                <polygon id="Line" fill="#6699EE" fill-rule="nonzero" points="0 4 14 4 14 2 0 2"></polygon>
                <path d="M4,2 L10,2 L10,1 L10,1 C10,0.44771525 9.55228475,-1.01453063e-16 9,0 L5,0 L5,0 C4.44771525,1.01453063e-16 4,0.44771525 4,1 L4,2 Z" id="Line" fill="#6699EE" fill-rule="nonzero"></path>
                <path d="M11,3 L3,3 L3,11.9914698 C3,12.5478977 3.44967787,13 3.99961498,13 L10.000385,13 C10.5559714,13 11,12.5527829 11,11.9914698 L11,3 Z" id="Rectangle-493" stroke="#6699EE" stroke-width="2"></path>
                <polygon id="Line" fill="#6699EE" fill-rule="nonzero" points="5 6 5 10 6 10 6 6"></polygon>
                <polygon id="Line-Copy" fill="#6699EE" fill-rule="nonzero" points="8 6 8 10 9 10 9 6"></polygon>
            </g>
        </g>
    </g>
</svg>