<?xml version="1.0" encoding="UTF-8"?>
<svg width="14px" height="14px" viewBox="0 0 14 14" version="1.1" xmlns="http://www.w3.org/2000/svg" xmlns:xlink="http://www.w3.org/1999/xlink">
    <!-- Generator: Sketch 46 (44423) - http://www.bohemiancoding.com/sketch -->
    <title>邀请加入</title>
    <desc>Created with Sketch.</desc>
    <defs></defs>
    <g id="1.1_人员管理" stroke="none" stroke-width="1" fill="none" fill-rule="evenodd">
        <g id="Artboard" transform="translate(-277.000000, -134.000000)" fill-rule="nonzero" fill="#6699EE">
            <path d="M284.997913,134.002087 L289.002087,134.002087 C290.105504,134.002087 291,134.900348 291,136 L291,138.004174 C291,139.107591 290.101739,140.002087 289.002087,140.002087 L284.997913,140.002087 L284.997913,134.002087 Z M287,136.501043 L287,137.50313 C287,137.77761 287.224185,138.002087 287.498957,138.002087 L288.501043,138.002087 C288.775523,138.002087 289,137.777902 289,137.50313 L289,136.501043 C289,136.226564 288.775815,136.002087 288.501043,136.002087 L287.498957,136.002087 C287.224477,136.002087 287,136.226272 287,136.501043 Z M278.997913,142.002087 L283,142 L283,146.004174 C283,147.107591 282.101739,148.002087 281.002087,148.002087 L278.997913,148.002087 C277.894496,148.002087 277,147.103826 277,146.004174 L277,144 C277,142.896583 277.898261,142.002087 278.997913,142.002087 Z M279,144.501043 L279,145.50313 C279,145.77761 279.224185,146.002087 279.498957,146.002087 L280.501043,146.002087 C280.775523,146.002087 281,145.777902 281,145.50313 L281,144.501043 C281,144.226564 280.775815,144.002087 280.501043,144.002087 L279.498957,144.002087 C279.224477,144.002087 279,144.226272 279,144.501043 Z M278.997913,134.002087 L283,134 L283.002087,140.002087 L278.997913,140.002087 C277.894496,140.002087 277,139.103826 277,138.004174 L277,136 C277,134.896583 277.898261,134.002087 278.997913,134.002087 Z M279,136.501043 L279,137.50313 C279,137.77761 279.224185,138.002087 279.498957,138.002087 L280.501043,138.002087 C280.775523,138.002087 281,137.777902 281,137.50313 L281,136.501043 C281,136.226564 280.775815,136.002087 280.501043,136.002087 L279.498957,136.002087 C279.224477,136.002087 279,136.226272 279,136.501043 Z M285,142.002087 L287,142.002087 L287,144.002087 L285,144.002087 L285,142.002087 Z M285,144.002087 L287,144.002087 L287,146.002087 L285,146.002087 L285,144.002087 Z M285,146.002087 L287,146.002087 L287,148.002087 L285,148.002087 L285,146.002087 Z M289,142.002087 L291,142.002087 L291,144.002087 L289,144.002087 L289,142.002087 Z M289,144.002087 L291,144.002087 L291,146.002087 L289,146.002087 L289,144.002087 Z M289,146.002087 L291,146.002087 L291,148.002087 L289,148.002087 L289,146.002087 Z" id="Combined-Shape"></path>
        </g>
    </g>
</svg>