<?xml version="1.0" encoding="UTF-8"?>
<svg width="100px" height="100px" viewBox="0 0 100 100" version="1.1" xmlns="http://www.w3.org/2000/svg" xmlns:xlink="http://www.w3.org/1999/xlink">
    <!-- Generator: Sketch 47.1 (45422) - http://www.bohemiancoding.com/sketch -->
    <title>成功提示</title>
    <desc>Created with Sketch.</desc>
    <defs>
        <path d="M100,50.617284 C100,22.3851852 77.6148148,0 49.382716,0 C22.3851852,0 0,22.3851852 0,50.617284 C0,77.6148148 22.3851852,100 49.382716,100 C77.6148148,100 100,77.6148148 100,50.617284 Z" id="path-1"></path>
    </defs>
    <g id="Page-1" stroke="none" stroke-width="1" fill="none" fill-rule="evenodd">
        <g id="Artboard-2" transform="translate(-1319.000000, -384.000000)">
            <g id="大图标/完成" transform="translate(1319.000000, 384.000000)">
                <g id="Fill-">
                    <use fill="#66CC55" fill-rule="evenodd" xlink:href="#path-1"></use>
                    <path stroke="#33BC1C" stroke-width="2" d="M99,50.617284 C99,22.9374699 77.0625301,1 49.382716,1 C22.7520422,1 1,23.1262258 1,50.617284 C1,77.0625301 22.9374699,99 49.382716,99 C76.8737742,99 99,77.2479578 99,50.617284 Z"></path>
                </g>
                <path d="M26.2694701,49.7305299 L29.7413994,46.2586006 L29.7413994,46.2586006 C29.8886211,46.1113789 30.1229974,46.0983979 30.2855765,46.2284612 L44.7235581,57.7788464 L44.7235581,57.7788464 C44.8822187,57.905775 45.1100388,57.8968387 45.2582696,57.7578722 L76.7113703,28.2705903 L76.7113703,28.2705903 C76.8722596,28.1197566 77.1238129,28.1238129 77.2797555,28.2797555 L79.7398916,30.7398916 L79.7398916,30.7398916 C79.8877516,30.8877516 79.900119,31.1233824 79.7685501,31.2859087 L47.4996963,71.1474339 L47.4996963,71.1474339 C46.8047032,72.0059549 45.5453311,72.1385204 44.6868101,71.4435272 C44.5963169,71.3702708 44.5123933,71.2892523 44.4359956,71.2013949 L26.250062,50.2875713 L26.250062,50.2875713 C26.1092273,50.1256114 26.1177048,49.8822952 26.2694701,49.7305299 Z" id="Fill-" fill="#FFFFFF"></path>
            </g>
        </g>
    </g>
</svg>