<?xml version="1.0" encoding="UTF-8"?>
<svg width="46px" height="46px" viewBox="0 0 46 46" version="1.1" xmlns="http://www.w3.org/2000/svg" xmlns:xlink="http://www.w3.org/1999/xlink">
    <!-- Generator: Sketch 49.1 (51147) - http://www.bohemiancoding.com/sketch -->
    <title>成本</title>
    <desc>Created with Sketch.</desc>
    <defs>
        <path d="M0.654545455,18.5 L24.2181707,18.5 C24.5796661,18.5 24.8727161,18.79305 24.8727161,19.1545455 L24.8726839,26.6929216 C24.8726839,26.8124749 24.8399386,26.9297446 24.7780021,27.0320032 C23.1541323,29.7130487 19.040251,31.0535714 12.4363581,31.0535714 C5.83238937,31.0535714 1.71848941,29.7130179 0.0946581858,27.031911 L0.09467639,27.0319 C0.0327432704,26.9296422 -3.03906186e-16,26.8123749 0,26.6928242 L1.11022302e-16,19.1545455 C6.67518751e-17,18.79305 0.293049982,18.5 0.654545455,18.5 Z" id="path-1"></path>
        <path d="M0.654545455,10.5714286 L24.2181707,10.5714286 C24.5796661,10.5714286 24.8727161,10.8644786 24.8727161,11.225974 L24.8726839,18.7643502 C24.8726839,18.8839034 24.8399386,19.0011731 24.7780021,19.1034318 C23.1541323,21.7844773 19.040251,23.125 12.4363581,23.125 C5.83238937,23.125 1.71848941,21.7844465 0.0946581858,19.1033396 L0.09467639,19.1033285 C0.0327432704,19.0010708 1.46407319e-17,18.8838035 0,18.7642528 L0,11.225974 C-4.42704273e-17,10.8644786 0.293049982,10.5714286 0.654545455,10.5714286 Z" id="path-2"></path>
        <path d="M0.654545455,3.96428571 L24.2181707,3.96428571 C24.5796661,3.96428571 24.8727161,4.2573357 24.8727161,4.61883117 L24.8726839,12.1572073 C24.8726839,12.2767606 24.8399386,12.3940303 24.7780021,12.496289 C23.1541323,15.1773344 19.040251,16.5178571 12.4363581,16.5178571 C5.83238937,16.5178571 1.71848941,15.1773037 0.0946581858,12.4961967 L0.09467639,12.4961857 C0.0327432704,12.3939279 1.46407319e-17,12.2766606 0,12.1571099 L0,4.61883117 C-4.42704273e-17,4.2573357 0.293049982,3.96428571 0.654545455,3.96428571 Z" id="path-3"></path>
    </defs>
    <g id="企业用工保" stroke="none" stroke-width="1" fill="none" fill-rule="evenodd">
        <g transform="translate(-350.000000, -660.000000)">
            <rect id="Rectangle" fill="#FFFFFF" x="220" y="0" width="1000" height="1143"></rect>
            <g id="Group-3" transform="translate(301.000000, 596.000000)">
                <g id="Group-22" transform="translate(49.000000, 64.000000)">
                    <g id="Group-6">
                        <rect id="Rectangle-8" fill="#D8D8D8" opacity="0" x="0" y="0" width="46" height="46"></rect>
                        <g id="Group-18" transform="translate(5.000000, 5.000000)">
                            <g id="Group-46">
                                <g id="Rectangle-37">
                                    <use fill="#FFFFFF" fill-rule="evenodd" xlink:href="#path-1"></use>
                                    <path stroke="#6FA5CD" stroke-width="2.61818182" d="M1.30909091,19.8090909 L1.30909091,26.5023336 C2.70733784,28.5904185 6.38766889,29.7444805 12.4363581,29.7444805 C18.4849999,29.7444805 22.1653241,28.5904358 23.5635938,26.5023807 L23.5636224,19.8090909 L1.30909091,19.8090909 Z"></path>
                                </g>
                                <g id="Rectangle-37">
                                    <use fill="#FFFFFF" fill-rule="evenodd" xlink:href="#path-2"></use>
                                    <path stroke="#6FA5CD" stroke-width="2.61818182" d="M1.30909091,11.8805195 L1.30909091,18.5737622 C2.70733784,20.6618471 6.38766889,21.8159091 12.4363581,21.8159091 C18.4849999,21.8159091 22.1653241,20.6618643 23.5635938,18.5738093 L23.5636224,11.8805195 L1.30909091,11.8805195 Z"></path>
                                </g>
                                <g id="Rectangle-37">
                                    <use fill="#FFFFFF" fill-rule="evenodd" xlink:href="#path-3"></use>
                                    <path stroke="#6FA5CD" stroke-width="2.61818182" d="M1.30909091,5.27337662 L1.30909091,11.9666194 C2.70733784,14.0547042 6.38766889,15.2087662 12.4363581,15.2087662 C18.4849999,15.2087662 22.1653241,14.0547215 23.5635938,11.9666664 L23.5636224,5.27337662 L1.30909091,5.27337662 Z"></path>
                                </g>
                                <path d="M12.038961,8.58928571 C18.4038635,8.58928571 23.5636364,6.66650861 23.5636364,4.29464286 C23.5636364,1.9227771 18.4038635,0 12.038961,0 C5.67405861,0 1.30909091,1.9227771 1.30909091,4.29464286 C1.30909091,6.66650861 5.67405861,8.58928571 12.038961,8.58928571 Z" id="Oval-4" stroke="#6FA5CD" stroke-width="2.61818182" fill="#FFFFFF"></path>
                                <circle id="Oval-5" stroke="#6FA5CD" stroke-width="2.61818182" fill="#FFFFFF" cx="24.5" cy="25.5" r="11.5"></circle>
                                <polyline id="Path-3" stroke="#6FA5CD" stroke-width="3" stroke-linecap="round" points="21.2181818 26.6378348 24.6113636 30.0535714 28.025 26.7410714"></polyline>
                                <path d="M24.7272727,29.3928571 L24.7272727,20.7857143" id="Path-10" stroke="#6FA5CD" stroke-width="3" stroke-linecap="round"></path>
                            </g>
                        </g>
                    </g>
                </g>
            </g>
        </g>
    </g>
</svg>