<?xml version="1.0" encoding="UTF-8"?>
<svg width="399px" height="352px" viewBox="0 0 399 352" version="1.1" xmlns="http://www.w3.org/2000/svg" xmlns:xlink="http://www.w3.org/1999/xlink">
    <!-- Generator: Sketch 49.1 (51147) - http://www.bohemiancoding.com/sketch -->
    <title>领取保险弹窗</title>
    <desc>Created with Sketch.</desc>
    <defs>
        <path d="M278.460087,0.0519526073 C279.342616,0.257179701 280,1.04698907 280,2.00066744 L280,258.341411 C277.669615,259.165084 276,261.387562 276,264 C276,266.612438 277.669615,268.834916 280,269.658589 L280,323.99053 C280,327.309469 277.318532,330 274.005979,330 L5.99402094,330 C2.68361458,330 0,327.319483 0,323.99053 L0,269.658589 C2.33038475,268.834916 4,266.612438 4,264 C4,261.387562 2.33038475,259.165084 2.42206255e-12,258.341411 L0,2.00066744 C0,1.05259978 0.657023161,0.258554092 1.540108,0.0521986663 C1.99804621,0.629637997 2.70577176,1 3.5,1 C4.31790892,1 5.04407993,0.607223351 5.50018309,1.9506341e-12 L8.49981691,0 C8.95592007,0.607223351 9.68209108,1 10.5,1 C11.3179089,1 12.0440799,0.607223351 12.5001831,1.9506341e-12 L15.4998169,0 C15.9559201,0.607223351 16.6820911,1 17.5,1 C18.3179089,1 19.0440799,0.607223351 19.5001831,1.9506341e-12 L22.4998169,0 C22.9559201,0.607223351 23.6820911,1 24.5,1 C25.3179089,1 26.0440799,0.607223351 26.5001831,1.95057859e-12 L29.4998169,0 C29.9559201,0.607223351 30.6820911,1 31.5,1 C32.3179089,1 33.0440799,0.607223351 33.5001831,1.9501345e-12 L36.4998169,0 C36.9559201,0.607223351 37.6820911,1 38.5,1 C39.3179089,1 40.0440799,0.607223351 40.5001831,1.9506341e-12 L43.4998169,0 C43.9559201,0.607223351 44.6820911,1 45.5,1 C46.3179089,1 47.0440799,0.607223351 47.5001831,1.9501345e-12 L50.4998169,0 C50.9559201,0.607223351 51.6820911,1 52.5,1 C53.3179089,1 54.0440799,0.607223351 54.5001831,1.9501345e-12 L57.4998169,0 C57.9559201,0.607223351 58.6820911,1 59.5,1 C60.3179089,1 61.0440799,0.607223351 61.5001831,1.9501345e-12 L64.4998169,0 C64.9559201,0.607223351 65.6820911,1 66.5,1 C67.3179089,1 68.0440799,0.607223351 68.5001831,1.9506341e-12 L71.4998169,0 C71.9559201,0.607223351 72.6820911,1 73.5,1 C74.3179089,1 75.0440799,0.607223351 75.5001831,1.9506341e-12 L78.4998169,0 C78.9559201,0.607223351 79.6820911,1 80.5,1 C81.3179089,1 82.0440799,0.607223351 82.5001831,1.95057859e-12 L85.4998169,0 C85.9559201,0.607223351 86.6820911,1 87.5,1 C88.3179089,1 89.0440799,0.607223351 89.5001831,7.95447042e-13 L92.4998169,0 C92.9559201,0.607223351 93.6820911,1 94.5,1 C95.3179089,1 96.0440799,0.607223351 96.5001831,1.9506341e-12 L99.4998169,0 C99.9559201,0.607223351 100.682091,1 101.5,1 C102.317909,1 103.04408,0.607223351 103.500183,7.90478794e-13 L106.499817,0 C106.95592,0.607223351 107.682091,1 108.5,1 C109.317909,1 110.04408,0.607223351 110.500183,1.9506341e-12 L113.499817,0 C113.95592,0.607223351 114.682091,1 115.5,1 C116.317909,1 117.04408,0.607223351 117.500183,7.99554867e-13 L120.499817,0 C120.95592,0.607223351 121.682091,1 122.5,1 C123.317909,1 124.04408,0.607223351 124.500183,7.81319454e-13 L127.499817,0 C127.95592,0.607223351 128.682091,1 129.5,1 C130.317909,1 131.04408,0.607223351 131.500183,1.95002348e-12 L134.499817,0 C134.95592,0.607223351 135.682091,1 136.5,1 C137.317909,1 138.04408,0.607223351 138.500183,1.65539804e-12 L141.499817,0 C141.95592,0.607223351 142.682091,1 143.5,1 C144.317909,1 145.04408,0.607223351 145.500183,1.65539804e-12 L148.499817,0 C148.95592,0.607223351 149.682091,1 150.5,1 C151.317909,1 152.04408,0.607223351 152.500183,1.95002348e-12 L155.499817,0 C155.95592,0.607223351 156.682091,1 157.5,1 C158.317909,1 159.04408,0.607223351 159.500183,1.95002348e-12 L162.499817,0 C162.95592,0.607223351 163.682091,1 164.5,1 C165.317909,1 166.04408,0.607223351 166.500183,1.9506341e-12 L169.499817,0 C169.95592,0.607223351 170.682091,1 171.5,1 C172.317909,1 173.04408,0.607223351 173.500183,1.9506341e-12 L176.499817,0 C176.95592,0.607223351 177.682091,1 178.5,1 C179.317909,1 180.04408,0.607223351 180.500183,7.50260964e-13 L183.499817,0 C183.95592,0.607223351 184.682091,1 185.5,1 C186.317909,1 187.04408,0.607223351 187.500183,1.65092939e-12 L190.499817,0 C190.95592,0.607223351 191.682091,1 192.5,1 C193.317909,1 194.04408,0.607223351 194.500183,1.9506341e-12 L197.499817,0 C197.95592,0.607223351 198.682091,1 199.5,1 C200.317909,1 201.04408,0.607223351 201.500183,1.9506341e-12 L204.499817,0 C204.95592,0.607223351 205.682091,1 206.5,1 C207.317909,1 208.04408,0.607223351 208.500183,1.95002348e-12 L211.499817,0 C211.95592,0.607223351 212.682091,1 213.5,1 C214.317909,1 215.04408,0.607223351 215.500183,1.9506341e-12 L218.499817,0 C218.95592,0.607223351 219.682091,1 220.5,1 C221.317909,1 222.04408,0.607223351 222.500183,1.9506341e-12 L225.499817,0 C225.95592,0.607223351 226.682091,1 227.5,1 C228.317909,1 229.04408,0.607223351 229.500183,1.9506341e-12 L232.499817,0 C232.95592,0.607223351 233.682091,1 234.5,1 C235.317909,1 236.04408,0.607223351 236.500183,1.95002348e-12 L239.499817,0 C239.95592,0.607223351 240.682091,1 241.5,1 C242.317909,1 243.04408,0.607223351 243.500183,1.95002348e-12 L246.499817,0 C246.95592,0.607223351 247.682091,1 248.5,1 C249.317909,1 250.04408,0.607223351 250.500183,1.9506341e-12 L253.499817,0 C253.95592,0.607223351 254.682091,1 255.5,1 C256.317909,1 257.04408,0.607223351 257.500183,1.65287228e-12 L260.499817,0 C260.95592,0.607223351 261.682091,1 262.5,1 C263.317909,1 264.04408,0.607223351 264.500183,1.9506341e-12 L267.499817,0 C267.95592,0.607223351 268.682091,1 269.5,1 C270.317909,1 271.04408,0.607223351 271.500183,1.94508298e-12 L274.499817,0 C274.95592,0.607223351 275.682091,1 276.5,1 C277.294341,1 278.002155,0.629532782 278.460087,0.0519526073 Z" id="path-1"></path>
        <filter x="-4.6%" y="-3.3%" width="109.3%" height="107.9%" filterUnits="objectBoundingBox" id="filter-3">
            <feOffset dx="0" dy="0" in="SourceAlpha" result="shadowOffsetOuter1"></feOffset>
            <feGaussianBlur stdDeviation="3" in="shadowOffsetOuter1" result="shadowBlurOuter1"></feGaussianBlur>
            <feColorMatrix values="0 0 0 0 0   0 0 0 0 0   0 0 0 0 0  0 0 0 0.04 0" type="matrix" in="shadowBlurOuter1" result="shadowMatrixOuter1"></feColorMatrix>
            <feOffset dx="0" dy="2" in="SourceAlpha" result="shadowOffsetOuter2"></feOffset>
            <feGaussianBlur stdDeviation="2" in="shadowOffsetOuter2" result="shadowBlurOuter2"></feGaussianBlur>
            <feColorMatrix values="0 0 0 0 0   0 0 0 0 0   0 0 0 0 0  0 0 0 0.12 0" type="matrix" in="shadowBlurOuter2" result="shadowMatrixOuter2"></feColorMatrix>
            <feMerge>
                <feMergeNode in="shadowMatrixOuter1"></feMergeNode>
                <feMergeNode in="shadowMatrixOuter2"></feMergeNode>
            </feMerge>
        </filter>
        <polygon id="path-4" points="0 -2.30718222e-15 281 5.51416551e-14 281 266 0 266"></polygon>
        <linearGradient x1="105.357422%" y1="12.2619048%" x2="0%" y2="64.6875%" id="linearGradient-6">
            <stop stop-color="#FFB948" offset="0%"></stop>
            <stop stop-color="#F5974E" offset="100%"></stop>
        </linearGradient>
        <text id="text-7" font-family="FZLTDHJW--GB1-0, FZLanTingHeiS-EB-GB" font-size="24" font-weight="normal" fill="#FFFFFF">
            <tspan x="17" y="21">150</tspan>
        </text>
        <filter x="-7.3%" y="-8.9%" width="114.6%" height="125.0%" filterUnits="objectBoundingBox" id="filter-8">
            <feOffset dx="0" dy="1" in="SourceAlpha" result="shadowOffsetOuter1"></feOffset>
            <feGaussianBlur stdDeviation="1" in="shadowOffsetOuter1" result="shadowBlurOuter1"></feGaussianBlur>
            <feColorMatrix values="0 0 0 0 0.88627451   0 0 0 0 0.478431373   0 0 0 0 0.160784314  0 0 0 0.5 0" type="matrix" in="shadowBlurOuter1"></feColorMatrix>
        </filter>
        <circle id="path-9" cx="7" cy="7" r="7"></circle>
        <linearGradient x1="-9.34193408%" y1="78.8834214%" x2="90.6425655%" y2="78.8834227%" id="linearGradient-11">
            <stop stop-color="#FDB448" offset="0%"></stop>
            <stop stop-color="#FA7236" offset="100%"></stop>
        </linearGradient>
        <linearGradient x1="0%" y1="78.8834214%" x2="90.6425655%" y2="78.8834227%" id="linearGradient-12">
            <stop stop-color="#FDB448" offset="0%"></stop>
            <stop stop-color="#FB9945" offset="100%"></stop>
        </linearGradient>
    </defs>
    <g id="Page-1" stroke="none" stroke-width="1" fill="none" fill-rule="evenodd">
        <g id="Artboard" transform="translate(-83.000000, -111.000000)">
            <g id="Group-23" transform="translate(83.000000, 117.000000)">
                <path d="M83,205 L320,205 C335.463973,205 348,217.536027 348,233 L348,303 L55,303 L55,233 C55,217.536027 67.536027,205 83,205 Z" id="Rectangle-9" fill="#B46A2A"></path>
                <g id="Group-21">
                    <g id="Group-18" transform="translate(0.000000, 3.000000)">
                        <polygon id="Path-47-Copy-5" fill="#FF68ED" opacity="0.654442631" transform="translate(37.939945, 122.052614) scale(1, -1) rotate(-144.000000) translate(-37.939945, -122.052614) " points="36.4116625 123.940656 39.4682277 125.801497 39.4682277 120.135094 36.4116625 118.30373"></polygon>
                        <path d="M13.8042406,85.9263156 C13.1856157,85.9730506 11.9787947,86.1372575 11.0484055,86.7141139 C9.813964,87.4794877 8.72392296,88.5047587 7.98642298,88.7061507 C7.48170268,88.8439767 6.8679022,88.8165966 6.27328478,88.7186027 C6.37614259,88.8151085 6.43611563,88.8673294 6.43611563,88.8673294 C6.43611563,88.8673294 3.17290196,88.4072583 1.99427425,87.0727044 C0.815646537,85.7381506 0.109749054,83.6205316 0.109749054,83.6205316 C-0.0842963335,83.1121803 0.210475453,82.7000802 0.751556635,82.7000802 L2.01652168,82.7000802 C2.56502761,82.7000802 3.08140503,83.1491363 3.20414882,83.6875425 C3.20414882,83.6875425 3.1464738,84.0919687 3.99203756,85.7837048 C4.25569875,86.3112169 4.59256922,86.8095749 4.93135742,87.2456703 C5.68247165,86.6828109 6.85080659,85.9027653 8.36869551,85.182844 C10.2991507,84.2672461 11.8018358,84.2491842 12.5475628,84.3258511 C13.6519866,84.3564126 15.0559143,84.5765621 16.0296812,85.3751397 C17.8666786,86.8816448 19.0319191,88.8887315 19.0319191,88.8887315 C19.3363703,89.3505211 19.1258514,89.7275916 18.5746124,89.7275916 L17.4702563,89.7275916 C16.9296494,89.7275916 16.2781665,89.3276685 16.038876,88.8343383 C16.038876,88.8343383 15.7934329,88.2465276 15.0421106,87.0247569 C14.817318,86.6592082 14.3495153,86.2792864 13.8042406,85.9263156 Z" id="Combined-Shape" fill="#FCBF00"></path>
                        <path d="M21.5495336,6.24302952 C21.5495336,6.24302952 23.1846213,6.63042586 23.3691091,7.43189147 C23.6997951,8.86848239 24.3215012,10.9135521 25.2150496,11.1328272 C26.6071034,11.4744346 27.9180564,7.34944739 29.550752,7.6036285 C31.1834475,7.85780961 30.7279211,11.8019723 32.0396077,12.0815673 C33.3512944,12.3611622 33.6559497,8.56808672 35.4629436,8.86385249 C37.2699375,9.15961826 37.1592517,12.9534056 38.621629,13.1589016 C40.0840064,13.3643976 39.9622666,9.37730092 41.8281085,9.75829718 C43.0501532,10.007833 44.1279925,11.9675377 44.7263053,13.2901972" id="Path-62-Copy-3" stroke="#B1D12D" stroke-width="1.5" stroke-linecap="round" transform="translate(33.137919, 9.766613) scale(1, -1) rotate(-213.000000) translate(-33.137919, -9.766613) "></path>
                    </g>
                    <g id="Group-20" transform="translate(360.000000, 2.000000)">
                        <polygon id="Path-47-Copy-7" fill="#FCBF00" opacity="0.654442631" transform="translate(5.007377, 6.269138) scale(-1, -1) rotate(-107.000000) translate(-5.007377, -6.269138) " points="-0.175968345 7.15873084 4.3196461 9.05896349 10.190723 5.37461973 6.12178495 3.47931228"></polygon>
                        <path d="M32.5934664,76.3434199 C31.9434187,76.3925288 30.6752979,76.5650765 29.69765,77.171234 C28.4005057,77.9754845 27.2550966,79.0528337 26.4801357,79.2644553 C25.9497784,79.4092821 25.3048002,79.3805113 24.6799795,79.2775398 C24.7880619,79.3789476 24.8510813,79.433821 24.8510813,79.433821 C24.8510813,79.433821 21.4221143,78.9503808 20.1836188,77.548039 C18.9451233,76.1456972 18.1804982,73.8638525 18.1804982,73.8638525 C17.9892282,73.3609735 18.2808115,72.9533095 18.840736,72.9533095 L20.2440383,72.9533095 C20.7999476,72.9533095 21.322053,73.4049822 21.4405089,73.9345302 C21.4405089,73.9345302 21.3943438,74.4158983 22.2828575,76.1935652 C22.5599112,76.7478721 22.9138929,77.2715439 23.2698897,77.7297906 C24.0591563,77.1383411 25.2868362,76.3186734 26.8818256,75.562184 C28.9103372,74.6000789 30.4893504,74.5810995 31.2729562,74.6616607 C32.4334787,74.6937745 33.9087182,74.9251064 34.9319471,75.7642473 C36.8622538,77.3472745 38.1107598,79.4920442 38.1107598,79.4920442 C38.4149261,79.9545147 38.2093724,80.3377798 37.6597226,80.3377798 L36.3921196,80.3377798 C35.84991,80.3377798 35.2017003,79.9347229 34.9609207,79.4375271 C34.9609207,79.4375271 34.6836987,78.7814859 33.8942133,77.497656 C33.6580025,77.1135394 33.166438,76.7143197 32.5934664,76.3434199 Z" id="Combined-Shape" fill="#B1D12D" transform="translate(28.190214, 76.645545) scale(-1, 1) translate(-28.190214, -76.645545) "></path>
                        <polygon id="Path-66-Copy-2" fill="#FF7D05" transform="translate(11.684054, 125.504659) rotate(46.000000) translate(-11.684054, -125.504659) " points="11.7425942 119.897056 8.64175947 123.878738 11.7425942 131.112261 14.7263482 127.309187"></polygon>
                    </g>
                    <g id="Group-16" transform="translate(62.000000, 0.000000)">
                        <g id="Group-18-Copy">
                            <g id="嵌套表单-dialog">
                                <g id="Group-13">
                                    <mask id="mask-2" fill="white">
                                        <use xlink:href="#path-1"></use>
                                    </mask>
                                    <g id="Combined-Shape">
                                        <use fill="black" fill-opacity="1" filter="url(#filter-3)" xlink:href="#path-1"></use>
                                        <use fill="#FFFFFF" fill-rule="evenodd" xlink:href="#path-1"></use>
                                    </g>
                                    <g mask="url(#mask-2)">
                                        <g transform="translate(139.500000, 132.000000) scale(1, -1) translate(-139.500000, -132.000000) translate(-1.000000, -1.000000)">
                                            <mask id="mask-5" fill="white">
                                                <use xlink:href="#path-4"></use>
                                            </mask>
                                            <use id="Rectangle-59" stroke="none" fill="#FFFFFF" fill-rule="evenodd" opacity="0.949999988" xlink:href="#path-4"></use>
                                            <polygon id="Path-47-Copy-5" stroke="none" fill="#C245B3" fill-rule="evenodd" opacity="0.200000003" mask="url(#mask-5)" transform="translate(21.939945, 83.397986) scale(1, -1) rotate(-144.000000) translate(-21.939945, -83.397986) " points="20.4116625 85.2860284 23.4682277 87.1468693 23.4682277 81.4804656 20.4116625 79.6491022"></polygon>
                                            <path d="M21.8042406,118.478988 C21.1856157,118.525723 19.9787947,118.689929 19.0484055,119.266786 C17.813964,120.03216 16.723923,121.057431 15.986423,121.258823 C15.4817027,121.396649 14.8679022,121.369269 14.2732848,121.271275 C14.3761426,121.36778 14.4361156,121.420001 14.4361156,121.420001 C14.4361156,121.420001 11.172902,120.95993 9.99427425,119.625376 C8.81564654,118.290823 8.10974905,116.173204 8.10974905,116.173204 C7.91570367,115.664852 8.21047545,115.252752 8.75155664,115.252752 L10.0165217,115.252752 C10.5650276,115.252752 11.081405,115.701808 11.2041488,116.240214 C11.2041488,116.240214 11.1464738,116.644641 11.9920376,118.336377 C12.2556988,118.863889 12.5925692,119.362247 12.9313574,119.798342 C13.6824716,119.235483 14.8508066,118.455437 16.3686955,117.735516 C18.2991507,116.819918 19.8018358,116.801856 20.5475628,116.878523 C21.6519866,116.909085 23.0559143,117.129234 24.0296812,117.927812 C25.8666786,119.434317 27.0319191,121.441404 27.0319191,121.441404 C27.3363703,121.903193 27.1258514,122.280264 26.5746124,122.280264 L25.4702563,122.280264 C24.9296494,122.280264 24.2781665,121.88034 24.038876,121.38701 C24.038876,121.38701 23.7934329,120.7992 23.0421106,119.577429 C22.817318,119.21188 22.3495153,118.831958 21.8042406,118.478988 Z" id="Combined-Shape" stroke="none" fill="#FCBF00" fill-rule="evenodd" opacity="0.300000012" mask="url(#mask-5)"></path>
                                            <polygon id="Path-47-Copy-8" stroke="none" fill="#FAC309" fill-rule="evenodd" opacity="0.100000001" mask="url(#mask-5)" transform="translate(14.830019, 131.646212) rotate(-156.000000) translate(-14.830019, -131.646212) " points="12.3498067 131.196136 12.3498067 135.14869 17.3102315 132.058173 17.3102315 128.143733"></polygon>
                                            <path d="M27.5495336,165.709803 C27.5495336,165.709803 29.1846213,166.097199 29.3691091,166.898665 C29.6997951,168.335256 30.3215012,170.380325 31.2150496,170.599601 C32.6071034,170.941208 33.9180564,166.816221 35.550752,167.070402 C37.1834475,167.324583 36.7279211,171.268746 38.0396077,171.548341 C39.3512944,171.827936 39.6559497,168.03486 41.4629436,168.330626 C43.2699375,168.626392 43.1592517,172.420179 44.621629,172.625675 C46.0840064,172.831171 45.9622666,168.844074 47.8281085,169.22507 C49.0501532,169.474606 50.1279925,171.434311 50.7263053,172.75697" id="Path-62-Copy-3" stroke="#B1D12D" stroke-width="1.5" fill="none" opacity="0.400000006" stroke-linecap="round" mask="url(#mask-5)" transform="translate(39.137919, 169.233387) rotate(-213.000000) translate(-39.137919, -169.233387) "></path>
                                            <polygon id="Path-47-Copy-7" stroke="none" fill="#FCBF00" fill-rule="evenodd" opacity="0.200000003" mask="url(#mask-5)" transform="translate(244.007377, 177.730862) scale(-1, -1) rotate(-107.000000) translate(-244.007377, -177.730862) " points="238.824032 178.620455 243.319646 180.520688 249.190723 176.836344 245.121785 174.941037"></polygon>
                                            <path d="M270.593466,132.85715 C269.943419,132.906259 268.675298,133.078806 267.69765,133.684964 C266.400506,134.489214 265.255097,135.566563 264.480136,135.778185 C263.949778,135.923012 263.3048,135.894241 262.67998,135.79127 C262.788062,135.892677 262.851081,135.947551 262.851081,135.947551 C262.851081,135.947551 259.422114,135.464111 258.183619,134.061769 C256.945123,132.659427 256.180498,130.377582 256.180498,130.377582 C255.989228,129.874703 256.280812,129.467039 256.840736,129.467039 L258.244038,129.467039 C258.799948,129.467039 259.322053,129.918712 259.440509,130.44826 C259.440509,130.44826 259.394344,130.929628 260.282858,132.707295 C260.559911,133.261602 260.913893,133.785274 261.26989,134.24352 C262.059156,133.652071 263.286836,132.832403 264.881826,132.075914 C266.910337,131.113809 268.48935,131.094829 269.272956,131.17539 C270.433479,131.207504 271.908718,131.438836 272.931947,132.277977 C274.862254,133.861004 276.11076,136.005774 276.11076,136.005774 C276.414926,136.468244 276.209372,136.85151 275.659723,136.85151 L274.39212,136.85151 C273.84991,136.85151 273.2017,136.448453 272.960921,135.951257 C272.960921,135.951257 272.683699,135.295216 271.894213,134.011386 C271.658003,133.627269 271.166438,133.228049 270.593466,132.85715 Z" id="Combined-Shape" stroke="none" fill="#B1D12D" fill-rule="evenodd" opacity="0.300000012" mask="url(#mask-5)"></path>
                                            <polygon id="Path-66-Copy-2" stroke="none" fill="#FF7D05" fill-rule="evenodd" opacity="0.200000003" mask="url(#mask-5)" transform="translate(264.684054, 84.130895) rotate(46.000000) translate(-264.684054, -84.130895) " points="264.742594 78.5232924 261.641759 82.5049735 264.742594 89.7384971 267.726348 85.9354231"></polygon>
                                            <g id="Group-6" stroke="none" stroke-width="1" fill="none" fill-rule="evenodd" mask="url(#mask-5)">
                                                <g transform="translate(-46.000000, 0.000000)">
                                                    <path d="M94.0690389,43.2292798 C93.8645482,43.7748986 93.6962424,44.5144293 93.6952867,45.4715774 C93.6928453,47.9167068 94.7922919,49.0014847 94.7922919,49.0014847 L74.7922919,49.0014847 C74.7922919,49.0014847 76.1314033,48.2238968 76.0479885,45.3955276 C76.0196404,44.4343171 75.865533,43.7344376 75.6744181,43.2292798 L64.3857325,43.2292798 C62.4578688,43.2292798 60.8950264,41.6583431 60.8950264,39.7292798 C60.8950264,37.7962831 62.4647825,36.2292798 64.3857325,36.2292798 L105.40432,36.2292798 C107.332184,36.2292798 108.895026,37.8002164 108.895026,39.7292798 C108.895026,41.6622764 107.32527,43.2292798 105.40432,43.2292798 L94.0690389,43.2292798 Z M125.682399,55.5939526 C123.749402,55.5939526 122.182399,54.0269493 122.182399,52.0939526 C122.182399,50.160956 123.749402,48.5939526 125.682399,48.5939526 C127.615396,48.5939526 129.182399,50.160956 129.182399,52.0939526 C129.182399,54.0269493 127.615396,55.5939526 125.682399,55.5939526 Z M67.667079,52.8494667 C67.667079,50.91647 69.2368351,49.3494667 71.1577851,49.3494667 L112.176373,49.3494667 C114.104237,49.3494667 115.667079,50.9204033 115.667079,52.8494667 C115.667079,54.7824633 114.097323,56.3494667 112.176373,56.3494667 L71.1577851,56.3494667 C69.2299213,56.3494667 67.667079,54.77853 67.667079,52.8494667 Z" id="Combined-Shape-Copy-8" fill="#73A6F8" opacity="0.0399999991" transform="translate(95.173709, 45.841821) scale(-1, 1) rotate(-1.000000) translate(-95.173709, -45.841821) "></path>
                                                    <path d="M28.1012041,75.1877073 C27.8344273,75.5483775 27.3328014,76.4308875 27.3312783,77.9691822 C27.3292031,80.0650074 28.2637327,80.994817 28.2637327,80.994817 L11.2637327,80.994817 C11.2637327,80.994817 12.4019773,80.3283131 12.3310748,77.9039967 C12.2826684,76.2488724 11.8028656,75.4977345 11.503273,75.1877073 L2.66018516,75.1877073 C0.9997404,75.1877073 -0.346316036,73.8411902 -0.346316036,72.1877073 C-0.346316036,70.530853 0.99599337,69.1877073 2.66018516,69.1877073 L36.6471828,69.1877073 C38.3076275,69.1877073 39.653684,70.5342244 39.653684,72.1877073 C39.653684,73.8445615 38.3113746,75.1877073 36.6471828,75.1877073 L28.1012041,75.1877073 Z M54.5285977,86.5001752 C52.8717435,86.5001752 51.5285977,85.1570295 51.5285977,83.5001752 C51.5285977,81.843321 52.8717435,80.5001752 54.5285977,80.5001752 C56.185452,80.5001752 57.5285977,81.843321 57.5285977,83.5001752 C57.5285977,85.1570295 56.185452,86.5001752 54.5285977,86.5001752 Z M5.44334126,84.2905941 C5.44334126,82.6337398 6.78565066,81.2905941 8.44984246,81.2905941 L42.4368401,81.2905941 C44.0972848,81.2905941 45.4433413,82.6371112 45.4433413,84.2905941 C45.4433413,85.9474483 44.1010319,87.2905941 42.4368401,87.2905941 L8.44984246,87.2905941 C6.78939769,87.2905941 5.44334126,85.9440769 5.44334126,84.2905941 Z" id="Combined-Shape-Copy-11" fill="#73A6F8" opacity="0.0800000057" transform="translate(28.778113, 78.171442) scale(-1, 1) rotate(-1.000000) translate(-28.778113, -78.171442) "></path>
                                                    <path d="M298.069039,60.2292798 C297.864548,60.7748986 297.696242,61.5144293 297.695287,62.4715774 C297.692845,64.9167068 298.792292,66.0014847 298.792292,66.0014847 L278.792292,66.0014847 C278.792292,66.0014847 280.131403,65.2238968 280.047989,62.3955276 C280.01964,61.4343171 279.865533,60.7344376 279.674418,60.2292798 L268.389267,60.2292798 C266.459451,60.2292798 264.895026,58.6583431 264.895026,56.7292798 C264.895026,54.7962831 266.458801,53.2292798 268.389267,53.2292798 L308.400785,53.2292798 C310.330601,53.2292798 311.895026,54.8002164 311.895026,56.7292798 C311.895026,58.6622764 310.331252,60.2292798 308.400785,60.2292798 L298.069039,60.2292798 Z M329.682399,72.5939526 C327.749402,72.5939526 326.182399,71.0269493 326.182399,69.0939526 C326.182399,67.160956 327.749402,65.5939526 329.682399,65.5939526 C331.615396,65.5939526 333.182399,67.160956 333.182399,69.0939526 C333.182399,71.0269493 331.615396,72.5939526 329.682399,72.5939526 Z M271.667079,69.8494667 C271.667079,67.91647 273.230853,66.3494667 275.16132,66.3494667 L315.172838,66.3494667 C317.102654,66.3494667 318.667079,67.9204033 318.667079,69.8494667 C318.667079,71.7824633 317.103305,73.3494667 315.172838,73.3494667 L275.16132,73.3494667 C273.231504,73.3494667 271.667079,71.77853 271.667079,69.8494667 Z" id="Combined-Shape-Copy-10" fill="#73A6F8" opacity="0.0600000024" transform="translate(299.173709, 62.841821) scale(-1, 1) rotate(-1.000000) translate(-299.173709, -62.841821) "></path>
                                                    <path d="M276.887537,99.300877 C276.620772,99.6615086 276.11909,100.544031 276.117566,102.082413 C276.115491,104.178238 277.050021,105.108048 277.050021,105.108048 L260.050021,105.108048 C260.050021,105.108048 261.188265,104.441544 261.117363,102.017227 C261.068953,100.361994 260.589091,99.6108666 260.289502,99.300877 L251.156059,99.300877 C249.495614,99.300877 248.149557,97.9543598 248.149557,96.300877 C248.149557,94.6440227 249.491867,93.300877 251.156059,93.300877 L285.143056,93.300877 C286.803501,93.300877 288.149557,94.6473941 288.149557,96.300877 C288.149557,97.9577312 286.807248,99.300877 285.143056,99.300877 L276.887537,99.300877 Z M253.939215,108.403764 C253.939215,106.746909 255.281524,105.403764 256.945716,105.403764 L290.932713,105.403764 C292.593158,105.403764 293.939215,106.750281 293.939215,108.403764 C293.939215,110.060618 292.596905,111.403764 290.932713,111.403764 L256.945716,111.403764 C255.285271,111.403764 253.939215,110.057247 253.939215,108.403764 Z" id="Combined-Shape-Copy-9" fill="#73A6F8" opacity="0.1" transform="translate(271.333153, 102.072638) rotate(-1.000000) translate(-271.333153, -102.072638) "></path>
                                                    <path d="M116.90117,169.157825 C116.681373,169.45872 116.268757,170.194033 116.267503,171.475188 C116.266745,172.250386 116.417941,172.834158 116.58635,173.243716 L128.463006,173.243716 C129.842424,173.243716 130.960663,174.353378 130.960663,175.743716 C130.960663,177.124428 129.84053,178.243716 128.463006,178.243716 L101.458321,178.243716 C100.078903,178.243716 98.9606632,177.134054 98.9606632,175.743716 C98.9606632,174.363005 100.080797,173.243716 101.458321,173.243716 L103.61101,173.243716 C103.791493,172.844884 103.938616,172.258905 103.914395,171.420866 C103.874558,170.042544 103.479942,169.416509 103.233185,169.157825 L96.616154,169.157825 C95.2367358,169.157825 94.1184964,168.048163 94.1184964,166.657825 C94.1184964,165.277113 95.2386301,164.157825 96.616154,164.157825 L123.620839,164.157825 C125.000257,164.157825 126.118496,165.267487 126.118496,166.657825 C126.118496,168.038537 124.998363,169.157825 123.620839,169.157825 L116.90117,169.157825 Z M137.463495,178.395625 C136.082784,178.395625 134.963495,177.276337 134.963495,175.895625 C134.963495,174.514913 136.082784,173.395625 137.463495,173.395625 C138.844207,173.395625 139.963495,174.514913 139.963495,175.895625 C139.963495,177.276337 138.844207,178.395625 137.463495,178.395625 Z" id="Combined-Shape-Copy-7" fill="#73A6F8" opacity="0.049999997" transform="translate(116.864339, 171.146014) rotate(-1.000000) translate(-116.864339, -171.146014) "></path>
                                                    <path d="M246.90117,247.157825 C246.681373,247.45872 246.268757,248.194033 246.267503,249.475188 C246.266745,250.250386 246.417941,250.834158 246.58635,251.243716 L258.463006,251.243716 C259.842424,251.243716 260.960663,252.353378 260.960663,253.743716 C260.960663,255.124428 259.84053,256.243716 258.463006,256.243716 L231.458321,256.243716 C230.078903,256.243716 228.960663,255.134054 228.960663,253.743716 C228.960663,252.363005 230.080797,251.243716 231.458321,251.243716 L233.61101,251.243716 C233.791493,250.844884 233.938616,250.258905 233.914395,249.420866 C233.874558,248.042544 233.479942,247.416509 233.233185,247.157825 L226.616154,247.157825 C225.236736,247.157825 224.118496,246.048163 224.118496,244.657825 C224.118496,243.277113 225.23863,242.157825 226.616154,242.157825 L253.620839,242.157825 C255.000257,242.157825 256.118496,243.267487 256.118496,244.657825 C256.118496,246.038537 254.998363,247.157825 253.620839,247.157825 L246.90117,247.157825 Z M267.463495,256.395625 C266.082784,256.395625 264.963495,255.276337 264.963495,253.895625 C264.963495,252.514913 266.082784,251.395625 267.463495,251.395625 C268.844207,251.395625 269.963495,252.514913 269.963495,253.895625 C269.963495,255.276337 268.844207,256.395625 267.463495,256.395625 Z" id="Combined-Shape-Copy-7" fill="#73A6F8" opacity="0.1" transform="translate(246.864339, 249.146014) rotate(-1.000000) translate(-246.864339, -249.146014) "></path>
                                                    <path d="M173.90117,5.15782512 C173.681373,5.45871978 173.268757,6.1940329 173.267503,7.47518753 C173.266745,8.2503861 173.417941,8.83415845 173.58635,9.24371641 L185.463006,9.24371641 C186.842424,9.24371641 187.960663,10.3533785 187.960663,11.7437164 C187.960663,13.1244283 186.84053,14.2437164 185.463006,14.2437164 L158.458321,14.2437164 C157.078903,14.2437164 155.960663,13.1340544 155.960663,11.7437164 C155.960663,10.3630045 157.080797,9.24371641 158.458321,9.24371641 L160.61101,9.24371641 C160.791493,8.84488363 160.938616,8.25890469 160.914395,7.42086624 C160.874558,6.04254424 160.479942,5.41650881 160.233185,5.15782512 L153.616154,5.15782512 C152.236736,5.15782512 151.118496,4.04816307 151.118496,2.65782512 C151.118496,1.27711325 152.23863,0.157825124 153.616154,0.157825124 L180.620839,0.157825124 C182.000257,0.157825124 183.118496,1.26748718 183.118496,2.65782512 C183.118496,4.038537 181.998363,5.15782512 180.620839,5.15782512 L173.90117,5.15782512 Z M194.463495,14.3956249 C193.082784,14.3956249 191.963495,13.2763368 191.963495,11.8956249 C191.963495,10.514913 193.082784,9.39562491 194.463495,9.39562491 C195.844207,9.39562491 196.963495,10.514913 196.963495,11.8956249 C196.963495,13.2763368 195.844207,14.3956249 194.463495,14.3956249 Z" id="Combined-Shape-Copy-12" fill="#73A6F8" opacity="0.0599999987" transform="translate(173.864339, 7.146014) rotate(-1.000000) translate(-173.864339, -7.146014) "></path>
                                                    <g id="Group-8" stroke-width="1" fill="none" transform="translate(54.000000, 0.000000)">
                                                        <g id="飘带-copy">
                                                            <polygon id="Path-47-Copy-12" fill="#6EC245" opacity="0.3" transform="translate(88.439945, 18.931212) scale(1, -1) rotate(-144.000000) translate(-88.439945, -18.931212) " points="86.9116625 20.4450268 89.9116625 22.1823289 89.9116625 16.8921105 86.9116625 15.1823289"></polygon>
                                                            <polygon id="Path-47-Copy-6" fill="#6EC245" opacity="0.2" transform="translate(19.439945, 40.931212) scale(1, -1) rotate(-144.000000) translate(-19.439945, -40.931212) " points="17.9116625 42.4450268 20.9116625 44.1823289 20.9116625 38.8921105 17.9116625 37.1823289"></polygon>
                                                            <polygon id="Path-47-Copy-11" fill="#6EC245" opacity="0.2" transform="translate(231.439945, 27.931212) scale(1, -1) rotate(-144.000000) translate(-231.439945, -27.931212) " points="229.911662 29.4450268 232.911662 31.1823289 232.911662 25.8921105 229.911662 24.1823289"></polygon>
                                                            <g id="Group-14-Copy" transform="translate(210.977241, 8.647114) rotate(-150.000000) translate(-210.977241, -8.647114) translate(201.477241, 5.147114)" fill="#FCBF00" opacity="0.2">
                                                                <path d="M13.4558882,3.28672184 C12.8131269,3.35706281 11.8749654,3.52992648 11.1222232,3.95471659 C9.91755826,4.6345374 8.8538106,5.54520441 8.13410018,5.72408495 C7.62802089,5.84986851 7.00956248,5.82073808 6.41449813,5.72783002 C6.67208103,5.96546471 6.83995378,6.10112659 6.83995378,6.10112659 C6.83995378,6.10112659 3.41924932,5.65353215 2.18373812,4.35516998 C0.948226914,3.05680782 0.21600692,1.01434973 0.21600692,1.01434973 C0.00831850466,0.509990517 0.285515832,0.101126591 0.844091116,0.101126591 L2.24401203,0.101126591 C2.79858177,0.101126591 3.32333653,0.538004781 3.45570952,1.07504792 C3.45570952,1.07504792 3.39154568,1.4552686 4.27791845,3.10112659 C4.53077057,3.57063412 4.84785254,4.01640274 5.17194287,4.41376928 C5.90557976,3.91486604 7.03875827,3.22849904 8.50715175,2.59461092 C9.28215691,2.26005034 9.98651334,2.06040809 10.5978551,1.94603873 C10.3936934,1.86741793 10.2714261,1.82357703 10.2714261,1.82357703 C10.2714261,1.82357703 13.7363478,1.3129826 15.6262842,2.70643175 C17.5162206,4.09988091 18.6910285,5.92441433 18.6910285,5.92441433 C19.0199845,6.37191126 18.819542,6.73225319 18.2621148,6.73225319 L17.0908152,6.73225319 C16.5250489,6.73225319 15.8704219,6.34185566 15.6100391,5.86027591 C15.6100391,5.86027591 15.3832276,5.3623359 14.6102534,4.23225317 C14.395537,3.91833923 13.9653177,3.59296599 13.4558882,3.28672184 Z" id="Combined-Shape-Copy-2"></path>
                                                            </g>
                                                            <polygon id="Path-47-Copy-9" fill="#FFDAAE" opacity="0.2" transform="translate(3.690373, 142.208467) rotate(-156.000000) translate(-3.690373, -142.208467) " points="1.21016073 141.756231 1.21016073 145.705988 6.21016073 142.617657 6.21016073 138.705988"></polygon>
                                                            <polygon id="Path-47-Copy-9" fill="#FAC309" opacity="0.2" transform="translate(23.776036, 191.705315) rotate(-175.000000) translate(-23.776036, -191.705315) " points="21.2958232 191.25308 21.2958232 195.202837 26.2958232 192.114506 26.2958232 188.202837"></polygon>
                                                            <polygon id="Path-47-Copy-9" fill="#C245B3" opacity="0.100000001" transform="translate(204.074581, 192.395865) rotate(-287.000000) translate(-204.074581, -192.395865) " points="201.594368 191.943629 201.594368 195.893386 206.594368 192.805055 206.594368 188.893386"></polygon>
                                                            <polygon id="Path-47-Copy-9" fill="#C245B3" opacity="0.100000001" transform="translate(44.074581, 212.395865) rotate(-287.000000) translate(-44.074581, -212.395865) " points="41.5943684 211.943629 41.5943684 215.893386 46.5943684 212.805055 46.5943684 208.893386"></polygon>
                                                            <polygon id="Path-47-Copy-13" fill="#C245B3" opacity="0.100000001" transform="translate(203.728047, 41.222507) rotate(-335.000000) translate(-203.728047, -41.222507) " points="201.247835 40.7702712 201.247835 44.7200281 206.247835 41.6316975 206.247835 37.7200281"></polygon>
                                                            <polygon id="Path-47-Copy-10" fill="#FAC309" opacity="0.2" transform="translate(57.690373, 19.208467) rotate(-156.000000) translate(-57.690373, -19.208467) " points="55.2101607 18.7562312 55.2101607 22.7059881 60.2101607 19.6176575 60.2101607 15.7059881"></polygon>
                                                            <polygon id="Path-47-Copy-12" fill="#6EC245" opacity="0.200000003" transform="translate(98.439945, 240.014697) scale(1, -1) rotate(-144.000000) translate(-98.439945, -240.014697) " points="96.9116625 241.528511 99.9116625 243.265813 99.9116625 237.975595 96.9116625 236.265813"></polygon>
                                                            <polygon id="Path-47-Copy-6" fill="#6EC245" opacity="0.2" transform="translate(29.439945, 262.014697) scale(1, -1) rotate(-144.000000) translate(-29.439945, -262.014697) " points="27.9116625 263.528511 30.9116625 265.265813 30.9116625 259.975595 27.9116625 258.265813"></polygon>
                                                            <polygon id="Path-47-Copy-6" fill="#6EC245" opacity="0.200000003" transform="translate(159.439945, 172.014697) scale(1, -1) rotate(-144.000000) translate(-159.439945, -172.014697) " points="157.911662 173.528511 160.911662 175.265813 160.911662 169.975595 157.911662 168.265813"></polygon>
                                                            <polygon id="Path-47-Copy-11" fill="#6EC245" opacity="0.2" transform="translate(261.439945, 245.014697) scale(1, -1) rotate(-144.000000) translate(-261.439945, -245.014697) " points="259.911662 246.528511 262.911662 248.265813 262.911662 242.975595 259.911662 241.265813"></polygon>
                                                            <polygon id="Path-47-Copy-10" fill="#FAC309" opacity="0.2" transform="translate(67.690373, 240.291951) rotate(-156.000000) translate(-67.690373, -240.291951) " points="65.2101607 239.839716 65.2101607 243.789472 70.2101607 240.701142 70.2101607 236.789472"></polygon>
                                                            <g id="Group-14-Copy-2" transform="translate(248.030522, 166.935775) scale(-1, 1) rotate(-208.000000) translate(-248.030522, -166.935775) translate(237.530522, 162.935775)" fill="#FDBF00" opacity="0.100000001">
                                                                <path d="M15.6680854,3.40655398 L15.7175894,3.46002093 C15.7175894,3.46002093 13.7282281,3.45628093 12.3248016,4.17626876 C10.9996701,4.85608957 9.82954766,5.76675658 9.0378662,5.94563712 C8.49576046,6.068126 7.83642875,6.04371001 7.19779033,5.95654998 C7.62278041,6.37434797 7.93385873,6.62573762 7.93385873,6.62573762 C7.93385873,6.62573762 4.51315428,6.17814318 3.27764308,4.87978102 C2.04213187,3.58141885 1.30991188,1.53896076 1.30991188,1.53896076 C1.10222346,1.03460155 1.37942079,0.625737623 1.93799607,0.625737623 L3.33791699,0.625737623 C3.89248673,0.625737623 4.41724148,1.06261581 4.54961448,1.59965895 C4.54961448,1.59965895 4.48545064,1.97987963 5.3718234,3.62573762 C5.54143601,3.94068216 5.73995008,4.24494491 5.95009397,4.53108158 C6.75762274,4.04336841 7.94276271,3.40697163 9.44822292,2.81616309 C10.7622596,2.30047754 11.8916597,2.10533872 12.7463265,2.04893988 C13.2369441,1.98696592 16.2991117,1.66160064 18.0340449,2.94076601 C19.9239813,4.33421516 21.0987892,6.15874858 21.0987892,6.15874858 C21.4277452,6.60624551 21.2273027,6.96658744 20.6698755,6.96658744 L19.4985759,6.96658744 C18.9328096,6.96658744 18.2781826,6.57618992 18.0177999,6.09461016 C18.0177999,6.09461016 17.7909883,5.59667016 17.0180141,4.46658742 C16.7763114,4.11321974 16.2615316,3.74533125 15.6680854,3.40655398 Z" id="Combined-Shape-Copy"></path>
                                                            </g>
                                                            <path d="M166.049534,33.7430295 C166.049534,33.7430295 167.67215,34.127833 167.855231,34.9239343 C168.183395,36.3509099 168.800359,38.3822916 169.687092,38.6000991 C171.068529,38.9394201 172.369483,34.842042 173.989726,35.0945218 C175.609969,35.3470017 175.157917,39.2647655 176.459599,39.5424891 C177.761281,39.8202127 178.063613,36.0525248 179.856825,36.346311 C181.650036,36.6400971 181.540195,40.4084922 182.991418,40.6126127 C184.442642,40.8167333 184.321831,36.8563228 186.173442,37.234769 C187.386166,37.4826347 188.455784,39.4292228 189.049534,40.7430295" id="Path-62-Copy-4" stroke="#FFDAAE" stroke-width="1.5" opacity="0.600000024" stroke-linecap="round" transform="translate(177.637919, 37.266613) rotate(-213.000000) translate(-177.637919, -37.266613) "></path>
                                                            <path d="M136.049534,173.74303 C136.049534,173.74303 137.67215,174.127833 137.855231,174.923934 C138.183395,176.35091 138.800359,178.382292 139.687092,178.600099 C141.068529,178.93942 142.369483,174.842042 143.989726,175.094522 C145.609969,175.347002 145.157917,179.264766 146.459599,179.542489 C147.761281,179.820213 148.063613,176.052525 149.856825,176.346311 C151.650036,176.640097 151.540195,180.408492 152.991418,180.612613 C154.442642,180.816733 154.321831,176.856323 156.173442,177.234769 C157.386166,177.482635 158.455784,179.429223 159.049534,180.74303" id="Path-62-Copy-4" stroke="#FFDAAE" stroke-width="1.5" opacity="0.200000003" stroke-linecap="round" transform="translate(147.637919, 177.266613) rotate(-142.000000) translate(-147.637919, -177.266613) "></path>
                                                            <path d="M9.04953358,6.74302952 C9.04953358,6.74302952 10.6721503,7.12783296 10.855231,7.92393426 C11.1833948,9.35090988 11.8003591,11.3822916 12.6870923,11.6000991 C14.0685287,11.9394201 15.369483,7.84204198 16.9897258,8.09452183 C18.6099686,8.34700167 18.1579165,12.2647655 19.4595988,12.5424891 C20.7612811,12.8202127 21.0636128,9.0525248 22.8568245,9.34631097 C24.6500363,9.64009714 24.5401947,13.4084922 25.9914183,13.6126127 C27.442642,13.8167333 27.3218307,9.85632282 29.1734416,10.234769 C30.3861656,10.4826347 31.4557842,12.4292228 32.0495336,13.7430295" id="Path-62-Copy-5" stroke="#64E5FA" stroke-width="1.5" opacity="0.2" stroke-linecap="round" transform="translate(20.637919, 10.266613) rotate(-213.000000) translate(-20.637919, -10.266613) "></path>
                                                            <path d="M161.049534,200.74303 C161.049534,200.74303 162.67215,201.127833 162.855231,201.923934 C163.183395,203.35091 163.800359,205.382292 164.687092,205.600099 C166.068529,205.93942 167.369483,201.842042 168.989726,202.094522 C170.609969,202.347002 170.157917,206.264766 171.459599,206.542489 C172.761281,206.820213 173.063613,203.052525 174.856825,203.346311 C176.650036,203.640097 176.540195,207.408492 177.991418,207.612613 C179.442642,207.816733 179.321831,203.856323 181.173442,204.234769 C182.386166,204.482635 183.455784,206.429223 184.049534,207.74303" id="Path-62-Copy-6" stroke="#64E5FA" stroke-width="1.5" opacity="0.2" stroke-linecap="round" transform="translate(172.637919, 204.266613) rotate(-213.000000) translate(-172.637919, -204.266613) "></path>
                                                        </g>
                                                    </g>
                                                </g>
                                            </g>
                                        </g>
                                    </g>
                                </g>
                            </g>
                            <g id="Group-14" transform="translate(25.000000, 109.000000)">
                                <path d="M0,71.0500091 L0,68.9499909 C0.16155497,68.9827849 0.328767081,69 0.5,69 C1.88071187,69 3,67.8807119 3,66.5 C3,65.1192881 1.88071187,64 0.5,64 C0.328767081,64 0.16155497,64.0172151 4.16333634e-16,64.0500091 L0,61.9499909 C0.16155497,61.9827849 0.328767081,62 0.5,62 C1.88071187,62 3,60.8807119 3,59.5 C3,58.1192881 1.88071187,57 0.5,57 C0.328767081,57 0.16155497,57.0172151 0,57.0500091 L0,54.9499909 C0.16155497,54.9827849 0.328767081,55 0.5,55 C1.88071187,55 3,53.8807119 3,52.5 C3,51.1192881 1.88071187,50 0.5,50 C0.328767081,50 0.16155497,50.0172151 0,50.0500091 L0,47.9499909 C0.16155497,47.9827849 0.328767081,48 0.5,48 C1.88071187,48 3,46.8807119 3,45.5 C3,44.1192881 1.88071187,43 0.5,43 C0.328767081,43 0.16155497,43.0172151 4.16333634e-16,43.0500091 L0,40.9499909 C0.16155497,40.9827849 0.328767081,41 0.5,41 C1.88071187,41 3,39.8807119 3,38.5 C3,37.1192881 1.88071187,36 0.5,36 C0.328767081,36 0.16155497,36.0172151 0,36.0500091 L0,33.9499909 C0.16155497,33.9827849 0.328767081,34 0.5,34 C1.88071187,34 3,32.8807119 3,31.5 C3,30.1192881 1.88071187,29 0.5,29 C0.328767081,29 0.16155497,29.0172151 0,29.0500091 L0,26.9499909 C0.16155497,26.9827849 0.328767081,27 0.5,27 C1.88071187,27 3,25.8807119 3,24.5 C3,23.1192881 1.88071187,22 0.5,22 C0.328767081,22 0.16155497,22.0172151 -8.60422844e-16,22.0500091 L0,19.9499909 C0.16155497,19.9827849 0.328767081,20 0.5,20 C1.88071187,20 3,18.8807119 3,17.5 C3,16.1192881 1.88071187,15 0.5,15 C0.328767081,15 0.16155497,15.0172151 0,15.0500091 L0,12.9499909 C0.16155497,12.9827849 0.328767081,13 0.5,13 C1.88071187,13 3,11.8807119 3,10.5 C3,9.11928813 1.88071187,8 0.5,8 C0.328767081,8 0.16155497,8.01721513 -8.60422844e-16,8.05000906 L0,4.19042781 C1.16789452,5.31119594 2.75350786,6 4.5,6 C7.92161488,6 10.7257427,3.35622386 10.9810552,3.02924352e-13 L108.673631,0 C109.797095,2.36494733 112.207604,4 115,4 C117.792396,4 120.202905,2.36494733 121.326369,1.22124533e-15 L220.018945,0 C220.274257,3.35622386 223.078385,6 226.5,6 C227.788642,6 228.989699,5.62500352 230,4.97818209 L230,8.05000906 C228.85888,8.28164422 228,9.29052104 228,10.5 C228,11.709479 228.85888,12.7183558 230,12.9499909 L230,15.0500091 C228.85888,15.2816442 228,16.290521 228,17.5 C228,18.709479 228.85888,19.7183558 230,19.9499909 L230,22.0500091 C228.85888,22.2816442 228,23.290521 228,24.5 C228,25.709479 228.85888,26.7183558 230,26.9499909 L230,29.0500091 C228.85888,29.2816442 228,30.290521 228,31.5 C228,32.709479 228.85888,33.7183558 230,33.9499909 L230,36.0500091 C228.85888,36.2816442 228,37.290521 228,38.5 C228,39.709479 228.85888,40.7183558 230,40.9499909 L230,43.0500091 C228.85888,43.2816442 228,44.290521 228,45.5 C228,46.709479 228.85888,47.7183558 230,47.9499909 L230,50.0500091 C228.85888,50.2816442 228,51.290521 228,52.5 C228,53.709479 228.85888,54.7183558 230,54.9499909 L230,57.0500091 C228.85888,57.2816442 228,58.290521 228,59.5 C228,60.709479 228.85888,61.7183558 230,61.9499909 L230,64.0500091 C228.85888,64.2816442 228,65.290521 228,66.5 C228,67.709479 228.85888,68.7183558 230,68.9499909 L230,71.0500091 C228.85888,71.2816442 228,72.290521 228,73.5 C228,74.709479 228.85888,75.7183558 230,75.9499909 L230,79.1010173 C228.729483,77.8044672 226.958688,77 225,77 C221.473528,77 218.556119,79.6077059 218.070889,83 L121.929111,83 C121.443881,79.6077059 118.526472,77 115,77 C111.473528,77 108.556119,79.6077059 108.070889,83 L8.82606816,83 C8.14890436,80.1333 5.57358164,78 2.5,78 C1.61409912,78 0.769592087,78.1772281 -1.11022302e-16,78.4981633 L0,75.9499909 C0.16155497,75.9827849 0.328767081,76 0.5,76 C1.88071187,76 3,74.8807119 3,73.5 C3,72.1192881 1.88071187,71 0.5,71 C0.328767081,71 0.16155497,71.0172151 0,71.0500091 Z" id="Combined-Shape" fill="url(#linearGradient-6)"></path>
                                <path d="M9.5,69.799585 C12.1853493,70.455818 14.5014881,72.1548961 15.9459351,74.5 L106.281929,74.5 C108.450029,71.981241 111.604447,70.5 115,70.5 C118.395553,70.5 121.549971,71.981241 123.718071,74.5 L211.898105,74.5 C213.482692,71.5948443 216.255424,69.4923596 219.5,68.772636 L219.5,14.9575494 C216.3164,13.9413787 213.720813,11.5710166 212.413908,8.5 L122.74609,8.5 C120.644636,10.416463 117.906699,11.5 115,11.5 C112.093301,11.5 109.355364,10.416463 107.25391,8.5 L18.101906,8.50000112 C16.3497892,11.7128074 13.1589627,13.9254945 9.5,14.4029614 L9.5,69.799585 Z" id="Combined-Shape" stroke="#FFFFFF"></path>
                                <text id="100份" font-family="SFProText-Bold, SF Pro Text" font-size="20" font-weight="bold" fill="#FFFFFF">
                                    <tspan x="137" y="35">100</tspan>
                                    <tspan x="174.646484" y="35" font-family="PingFang-SC-Bold, PingFang SC">份</tspan>
                                </text>
                                <text id="员工意外险" font-family="PingFangSC-Regular, PingFang SC" font-size="12" font-weight="normal" fill="#FFFFFF">
                                    <tspan x="137" y="60">员工意外险</tspan>
                                </text>
                                <g id="Group-22" transform="translate(27.000000, 29.000000)" fill="#FFFFFF">
                                    <g id="150" fill-opacity="1">
                                        <use filter="url(#filter-8)" xlink:href="#text-7"></use>
                                        <use xlink:href="#text-7"></use>
                                    </g>
                                    <text id="¥" font-family="SFProText-Medium, SF Pro Text" font-size="24" font-weight="400">
                                        <tspan x="0" y="23">¥</tspan>
                                    </text>
                                </g>
                                <path d="M115,14 L115,68.5" id="Path-2" stroke="#FFFFFF" opacity="0.5" stroke-linecap="round" stroke-dasharray="2"></path>
                            </g>
                            <g id="Group-17" transform="translate(40.000000, 67.000000)">
                                <g id="Group-19" transform="translate(51.000000, 0.000000)" opacity="0.9">
                                    <g id="Group-5">
                                        <mask id="mask-10" fill="white">
                                            <use xlink:href="#path-9"></use>
                                        </mask>
                                        <use id="Oval-253-Copy" fill="#DEE3E8" xlink:href="#path-9"></use>
                                        <g id="Group-14" mask="url(#mask-10)" fill="#999EA6">
                                            <g transform="translate(5.285714, 3.000000)">
                                                <polygon id="Rectangle-7" points="0.571428571 0 2.85714286 0 2.28571429 5.14285714 1.14285714 5.14285714"></polygon>
                                                <rect id="Rectangle-7-Copy" x="0.857142857" y="6.28571429" width="1.71428571" height="1.71428571"></rect>
                                            </g>
                                        </g>
                                    </g>
                                </g>
                                <path d="M0,8 L37.5,8" id="Path-19" stroke="#C0CCDA" stroke-linecap="round" stroke-dasharray="2"></path>
                                <path d="M163,8 L199.5,8" id="Path-19" stroke="#C0CCDA" stroke-linecap="round" stroke-dasharray="2"></path>
                            </g>
                            <text id="领取保险" font-family="FZLTDHJW--GB1-0, FZLanTingHeiS-EB-GB" font-size="24" font-weight="normal" line-spacing="24" letter-spacing="1.39999998" fill="#1F2D3D">
                                <tspan x="91" y="46">领取保</tspan>
                                <tspan x="167.2" y="46">险</tspan>
                            </text>
                        </g>
                    </g>
                </g>
                <polygon id="Triangle-2" fill="url(#linearGradient-11)" transform="translate(112.750000, 276.000000) rotate(90.000000) translate(-112.750000, -276.000000) " points="105.75 218.25 160.75 333.75 64.75 333.75"></polygon>
                <polygon id="Triangle-2" fill="url(#linearGradient-12)" transform="translate(289.750000, 276.000000) scale(-1, 1) rotate(90.000000) translate(-289.750000, -276.000000) " points="282.75 218.25 337.75 333.75 241.75 333.75"></polygon>
                <path d="M348,300.113762 L348,329.113762 C348,337.950318 340.836556,345.113762 332,345.113762 L71,345.113762 C62.163444,345.113762 55,337.950318 55,329.113762 L55,300.113762 L168.622935,260.55902 C189.914347,253.146993 213.085653,253.146993 234.377065,260.55902 L348,300.113762 Z" id="Combined-Shape" fill="url(#linearGradient-6)"></path>
            </g>
        </g>
    </g>
</svg>