<?xml version="1.0" encoding="UTF-8"?>
<svg width="280px" height="269px" viewBox="0 0 280 269" version="1.1" xmlns="http://www.w3.org/2000/svg" xmlns:xlink="http://www.w3.org/1999/xlink">
    <!-- Generator: Sketch 49.1 (51147) - http://www.bohemiancoding.com/sketch -->
    <title>领取保险_成功</title>
    <desc>Created with Sketch.</desc>
    <defs>
        <linearGradient x1="58.7593001%" y1="0%" x2="35.0360577%" y2="95.3792735%" id="linearGradient-1">
            <stop stop-color="#FFC566" offset="0%"></stop>
            <stop stop-color="#FE8F39" offset="100%"></stop>
        </linearGradient>
        <circle id="path-2" cx="58.5" cy="58.5" r="58.5"></circle>
        <linearGradient x1="50%" y1="0%" x2="50%" y2="100%" id="linearGradient-4">
            <stop stop-color="#FF7B1E" offset="0%"></stop>
            <stop stop-color="#DF5E4C" offset="100%"></stop>
        </linearGradient>
        <path d="M28.8235459,53.1281745 L24.6441317,49.3064203 C9.80000561,35.785517 0,26.8680904 0,15.923976 C0,7.00654944 6.97529811,0 15.8529502,0 C20.8682472,0 25.6817794,2.34516738 28.8235459,6.05111088 C31.9653124,2.34516738 36.7788446,0 41.7941416,0 C50.6717937,0 57.6470918,7.00654944 57.6470918,15.923976 C57.6470918,26.8680904 47.8470862,35.785517 33.0029601,49.3353729 L28.8235459,53.1281745" id="path-5"></path>
        <filter x="-12.1%" y="-9.4%" width="124.3%" height="126.4%" filterUnits="objectBoundingBox" id="filter-6">
            <feOffset dx="0" dy="2" in="SourceAlpha" result="shadowOffsetOuter1"></feOffset>
            <feGaussianBlur stdDeviation="2" in="shadowOffsetOuter1" result="shadowBlurOuter1"></feGaussianBlur>
            <feColorMatrix values="0 0 0 0 1   0 0 0 0 0.730179473   0 0 0 0 0.42416351  0 0 0 1 0" type="matrix" in="shadowBlurOuter1"></feColorMatrix>
        </filter>
        <path d="M22.8594415,52.4901437 C22.749769,52.5265996 22.6427826,52.5821939 22.5423962,52.6577788 L15.1123618,58.2521491 C14.6140561,58.6273434 14.4866246,59.3573096 14.8265666,59.8807744 L14.4675882,59.3279961 C14.8080535,59.8522668 15.4808527,59.9785074 15.9863174,59.5979228 L23.4163519,54.0035525 C23.5185357,53.9266143 23.605124,53.8347576 23.6752847,53.7328225 C23.8503239,53.5495701 24.9631405,52.2727093 24.3942419,49.9684094 C23.6425871,48.2371898 22.355759,47.9549493 21.5196132,47.9784897 L23.7259136,34.5 L24.5776206,34.5 C26.9558141,34.5 28.8837209,36.4198601 28.8837209,38.8016368 L28.8837209,55.5063425 C27.0888009,59.0073996 15.1295681,67.2264621 15.1295681,67.2264621 L15.1295681,77.0232558 L0,77.0232558 L3.70953532,63.1406009 C4.31948863,60.8578968 6.4469001,58.0098176 8.47060013,56.7735209 L20.789752,49.247639 C22.0463687,48.9612137 22.8530527,49.5963637 23.1178923,50.5644676 C23.3981942,51.5890933 22.797512,52.3913178 22.797512,52.3913178 L22.8594415,52.4901437 Z" id="path-7"></path>
        <filter x="-24.2%" y="-11.8%" width="148.5%" height="132.9%" filterUnits="objectBoundingBox" id="filter-8">
            <feOffset dx="0" dy="2" in="SourceAlpha" result="shadowOffsetOuter1"></feOffset>
            <feGaussianBlur stdDeviation="2" in="shadowOffsetOuter1" result="shadowBlurOuter1"></feGaussianBlur>
            <feColorMatrix values="0 0 0 0 0.906940901   0 0 0 0 0.529878166   0 0 0 0 0.139186657  0 0 0 1 0" type="matrix" in="shadowBlurOuter1"></feColorMatrix>
        </filter>
        <path d="M62.9757206,52.4901437 C62.8660481,52.5265996 62.7590616,52.5821939 62.6586753,52.6577788 L55.2286409,58.2521491 C54.7303352,58.6273434 54.6029037,59.3573096 54.9428457,59.8807744 L54.5838672,59.3279961 C54.9243326,59.8522668 55.5971317,59.9785074 56.1025965,59.5979228 L63.532631,54.0035525 C63.6348147,53.9266143 63.721403,53.8347576 63.7915637,53.7328225 C63.966603,53.5495701 65.0794195,52.2727093 64.5105209,49.9684094 C63.7588662,48.2371898 62.4720381,47.9549493 61.6358923,47.9784897 L63.8421927,34.5 L64.6938997,34.5 C67.0720932,34.5 69,36.4198601 69,38.8016368 L69,55.5063425 C67.2050799,59.0073996 55.2458472,67.2264621 55.2458472,67.2264621 L55.2458472,77.0232558 L40.1162791,77.0232558 L43.8258144,63.1406009 C44.4357677,60.8578968 46.5631792,58.0098176 48.5868792,56.7735209 L60.9060311,49.247639 C62.1626478,48.9612137 62.9693318,49.5963637 63.2341713,50.5644676 C63.5144733,51.5890933 62.9137911,52.3913178 62.9137911,52.3913178 L62.9757206,52.4901437 Z" id="path-9"></path>
        <filter x="-24.2%" y="-11.8%" width="148.5%" height="132.9%" filterUnits="objectBoundingBox" id="filter-10">
            <feOffset dx="0" dy="2" in="SourceAlpha" result="shadowOffsetOuter1"></feOffset>
            <feGaussianBlur stdDeviation="2" in="shadowOffsetOuter1" result="shadowBlurOuter1"></feGaussianBlur>
            <feColorMatrix values="0 0 0 0 0.906940901   0 0 0 0 0.529878166   0 0 0 0 0.139186657  0 0 0 1 0" type="matrix" in="shadowBlurOuter1"></feColorMatrix>
        </filter>
    </defs>
    <g id="Page-1" stroke="none" stroke-width="1" fill="none" fill-rule="evenodd">
        <g id="Artboard" transform="translate(-626.000000, -137.000000)">
            <g id="Group-27" transform="translate(626.000000, 132.000000)">
                <g id="Group-26" transform="translate(46.000000, 0.000000)">
                    <path d="M21.5,5 C22.0759562,12.1125611 23.229182,16.548045 24.9596774,18.3064516 C26.6901728,20.0648582 31.036947,21.218084 38,21.766129 C30.8315161,22.8777571 26.4847419,24.2084022 24.9596774,25.7580645 C23.434613,27.3077268 22.2813871,31.5657913 21.5,38.5322581 C20.656305,31.8630405 19.3256599,27.6049759 17.5080645,25.7580645 C15.6904692,23.9111531 11.5211143,22.5805079 5,21.766129 C12.1867854,21.351305 16.7109789,20.1980792 18.5725806,18.3064516 C20.4341824,16.4148241 21.4099888,11.9793402 21.5,5 Z" id="Polygon" fill="#FEB762" transform="translate(21.500000, 21.766129) rotate(-17.000000) translate(-21.500000, -21.766129) "></path>
                    <path d="M29.6755843,63.0592617 C30.023854,67.360091 30.7211875,70.042143 31.7675849,71.1054177 C32.8139822,72.1686924 35.4423932,72.866026 39.6528177,73.1974183 C35.3181731,73.8695984 32.6897621,74.674214 31.7675849,75.6112651 C30.8454077,76.5483161 30.1480741,79.123086 29.6755843,83.3355748 C29.1654182,79.3028269 28.3608026,76.728057 27.2617375,75.6112651 C26.1626725,74.4944732 23.6415436,73.6898576 19.6983509,73.1974183 C24.0440621,72.9465821 26.7797552,72.2492486 27.90543,71.1054177 C29.0311049,69.9615868 29.6211563,67.2795348 29.6755843,63.0592617 Z" id="Polygon" fill="#FFFFFF" transform="translate(29.675584, 73.197418) rotate(-47.000000) translate(-29.675584, -73.197418) "></path>
                    <path d="M206.265662,68.48214 C206.511326,71.515876 207.003214,73.4077525 207.741326,74.1577695 C208.479438,74.9077865 210.333477,75.3996744 213.303443,75.6334332 C210.245854,76.1075783 208.391815,76.6751412 207.741326,77.336122 C207.090837,77.9971028 206.598949,79.8133043 206.265662,82.7847264 C205.905799,79.9400906 205.338237,78.1238891 204.562974,77.336122 C203.787711,76.5483549 202.009347,75.980792 199.227882,75.6334332 C202.293277,75.4564974 204.222991,74.9646095 205.017024,74.1577695 C205.811057,73.3509295 206.22727,71.459053 206.265662,68.48214 Z" id="Polygon" fill="#FFFFFF" transform="translate(206.265662, 75.633433) rotate(-81.000000) translate(-206.265662, -75.633433) "></path>
                    <path d="M160.696745,51.4352866 C161.075741,56.1155689 161.834599,59.0342527 162.973318,60.1913379 C164.112037,61.3484231 166.972347,62.1072809 171.554248,62.4679113 C166.837167,63.1993965 163.976857,64.0750016 162.973318,65.0947267 C161.969779,66.1144517 161.210921,68.9163882 160.696745,73.5005359 C160.141568,69.1119872 159.265963,66.3100508 158.069929,65.0947267 C156.873896,63.8794026 154.130333,63.0037974 149.839241,62.4679113 C154.568365,62.1949444 157.545423,61.4360866 158.770413,60.1913379 C159.995404,58.9465893 160.637515,56.0279055 160.696745,51.4352866 Z" id="Polygon" fill="#FEB762" transform="translate(160.696745, 62.467911) rotate(-81.000000) translate(-160.696745, -62.467911) "></path>
                </g>
                <g id="Group-25" transform="translate(0.000000, 29.000000)">
                    <path d="M10,58 L270,58 C275.522847,58 280,62.4771525 280,68 L280,229 C280,237.836556 272.836556,245 264,245 L16,245 C7.163444,245 1.082166e-15,237.836556 0,229 L0,68 C-6.76353751e-16,62.4771525 4.4771525,58 10,58 Z" id="Rectangle-12" fill="#FFFFFF"></path>
                    <g id="Group-11-Copy" transform="translate(82.000000, 0.000000)">
                        <mask id="mask-3" fill="white">
                            <use xlink:href="#path-2"></use>
                        </mask>
                        <g id="Mask">
                            <use fill="url(#linearGradient-1)" fill-rule="evenodd" xlink:href="#path-2"></use>
                            <circle stroke="#FFFFFF" stroke-width="3" cx="58.5" cy="58.5" r="60"></circle>
                        </g>
                        <path d="M54.6891292,27.8656323 L54.7386332,27.9190993 C54.7386332,27.9190993 52.7492719,27.9153593 51.3458454,28.6353471 C50.0207139,29.3151679 48.8505915,30.2258349 48.05891,30.4047154 C47.5168043,30.5272043 46.8574726,30.5027883 46.2188342,30.4156283 C46.6438242,30.8334263 46.9549026,31.0848159 46.9549026,31.0848159 C46.9549026,31.0848159 43.5341981,30.6372215 42.2986869,29.3388593 C41.0631757,28.0404972 40.3309557,25.9980391 40.3309557,25.9980391 C40.1232673,25.4936799 40.4004646,25.0848159 40.9590399,25.0848159 L42.3589608,25.0848159 C42.9135306,25.0848159 43.4382853,25.5216941 43.5706583,26.0587373 C43.5706583,26.0587373 43.5064945,26.438958 44.3928672,28.0848159 C44.5624798,28.3997605 44.7609939,28.7040232 44.9711378,28.9901599 C45.7786666,28.5024467 46.9638065,27.8660499 48.4692668,27.2752414 C49.7833034,26.7595559 50.9127036,26.564417 51.7673703,26.5080182 C52.2579879,26.4460442 55.3201555,26.120679 57.0550887,27.3998443 C58.9450252,28.7932935 60.119833,30.6178269 60.119833,30.6178269 C60.448789,31.0653238 60.2483466,31.4256658 59.6909193,31.4256658 L58.5196198,31.4256658 C57.9538534,31.4256658 57.2992265,31.0352682 57.0388437,30.5536885 C57.0388437,30.5536885 56.8120321,30.0557485 56.039058,28.9256657 C55.7973552,28.5722981 55.2825754,28.2044096 54.6891292,27.8656323 Z" id="Combined-Shape-Copy" fill="#FFFFFF" opacity="0.100000001" mask="url(#mask-3)"></path>
                        <path d="M58.7868315,4.76181093 C58.5670345,5.06270559 58.1544183,5.79801871 58.1531647,7.07917334 C58.1524061,7.85437191 58.3036022,8.43814426 58.4720112,8.84770222 L70.3486669,8.84770222 C71.7280851,8.84770222 72.8463244,9.95736428 72.8463244,11.3477022 C72.8463244,12.7284141 71.7261907,13.8477022 70.3486669,13.8477022 L43.343982,13.8477022 C41.9645638,13.8477022 40.8463244,12.7380402 40.8463244,11.3477022 C40.8463244,9.96699035 41.9664581,8.84770222 43.343982,8.84770222 L45.4966715,8.84770222 C45.677154,8.44886944 45.8242772,7.8628905 45.8000559,7.02485205 C45.7602192,5.64653005 45.3656033,5.02049462 45.1188459,4.76181094 L38.5018152,4.76181094 C37.122397,4.76181094 36.0041576,3.65214888 36.0041576,2.26181094 C36.0041576,0.881099061 37.1242913,-0.238189065 38.5018152,-0.238189065 L65.5065001,-0.238189065 C66.8859182,-0.238189065 68.0041576,0.871472991 68.0041576,2.26181094 C68.0041576,3.64252281 66.8840239,4.76181094 65.5065001,4.76181094 L58.7868315,4.76181094 Z M79.3491567,13.9996107 C77.9684448,13.9996107 76.8491567,12.8803226 76.8491567,11.4996107 C76.8491567,10.1188989 77.9684448,8.99961073 79.3491567,8.99961073 C80.7298685,8.99961073 81.8491567,10.1188989 81.8491567,11.4996107 C81.8491567,12.8803226 80.7298685,13.9996107 79.3491567,13.9996107 Z" id="Combined-Shape-Copy-7" fill="#FFFEFA" opacity="0.200000003" mask="url(#mask-3)" transform="translate(58.750000, 6.750000) rotate(-1.000000) translate(-58.750000, -6.750000) "></path>
                        <path d="M98.7868315,54.7618109 C98.5670345,55.0627056 98.1544183,55.7980187 98.1531647,57.0791733 C98.1524061,57.8543719 98.3036022,58.4381443 98.4720112,58.8477022 L110.348667,58.8477022 C111.728085,58.8477022 112.846324,59.9573643 112.846324,61.3477022 C112.846324,62.7284141 111.726191,63.8477022 110.348667,63.8477022 L83.343982,63.8477022 C81.9645638,63.8477022 80.8463244,62.7380402 80.8463244,61.3477022 C80.8463244,59.9669903 81.9664581,58.8477022 83.343982,58.8477022 L85.4966715,58.8477022 C85.677154,58.4488694 85.8242772,57.8628905 85.8000559,57.0248521 C85.7602192,55.64653 85.3656033,55.0204946 85.1188459,54.7618109 L78.5018152,54.7618109 C77.122397,54.7618109 76.0041576,53.6521489 76.0041576,52.2618109 C76.0041576,50.8810991 77.1242913,49.7618109 78.5018152,49.7618109 L105.5065,49.7618109 C106.885918,49.7618109 108.004158,50.871473 108.004158,52.2618109 C108.004158,53.6425228 106.884024,54.7618109 105.5065,54.7618109 L98.7868315,54.7618109 Z M119.349157,63.9996107 C117.968445,63.9996107 116.849157,62.8803226 116.849157,61.4996107 C116.849157,60.1188989 117.968445,58.9996107 119.349157,58.9996107 C120.729869,58.9996107 121.849157,60.1188989 121.849157,61.4996107 C121.849157,62.8803226 120.729869,63.9996107 119.349157,63.9996107 Z" id="Combined-Shape-Copy-7" fill="#FFFAD8" opacity="0.100000001" mask="url(#mask-3)" transform="translate(98.750000, 56.750000) rotate(-1.000000) translate(-98.750000, -56.750000) "></path>
                        <polygon id="Path-47-Copy-7" fill="#FFEFBE" opacity="0.654442631" mask="url(#mask-3)" transform="translate(103.470450, 69.683779) scale(-1, -1) rotate(-138.000000) translate(-103.470450, -69.683779) " points="98.2871046 70.5733717 102.782719 72.4736043 108.653796 68.7892606 104.584858 66.8939531"></polygon>
                        <path d="M104.056539,42.8100663 C103.406492,42.8591751 102.138371,43.0317228 101.160723,43.6378804 C99.8635787,44.4421309 98.7181696,45.5194801 97.9432087,45.7311017 C97.4128514,45.8759284 96.7678732,45.8471577 96.1430525,45.7441862 C96.2511349,45.8455939 96.3141543,45.9004673 96.3141543,45.9004673 C96.3141543,45.9004673 92.8851873,45.4170272 91.6466918,44.0146853 C90.4081963,42.6123435 89.6435712,40.3304989 89.6435712,40.3304989 C89.4523012,39.8276199 89.7438845,39.4199559 90.303809,39.4199559 L91.7071113,39.4199559 C92.2630206,39.4199559 92.785126,39.8716286 92.9035819,40.4011766 C92.9035819,40.4011766 92.8574168,40.8825447 93.7459305,42.6602116 C94.0229842,43.2145184 94.3769659,43.7381903 94.7329626,44.1964369 C95.5222293,43.6049874 96.7499092,42.7853197 98.3448986,42.0288304 C100.37341,41.0667252 101.952423,41.0477459 102.736029,41.128307 C103.896552,41.1604209 105.371791,41.3917527 106.39502,42.2308936 C108.325327,43.8139209 109.573833,45.9586905 109.573833,45.9586905 C109.877999,46.4211611 109.672445,46.8044261 109.122796,46.8044261 L107.855193,46.8044261 C107.312983,46.8044261 106.664773,46.4013693 106.423994,45.9041734 C106.423994,45.9041734 106.146772,45.2481323 105.357286,43.9643023 C105.121076,43.5801857 104.629511,43.1809661 104.056539,42.8100663 Z" id="Combined-Shape" fill="#B5DA1A" mask="url(#mask-3)"></path>
                        <polygon id="Path-66-Copy-2" fill="#F77B09" mask="url(#mask-3)" transform="translate(79.147127, 22.083811) rotate(46.000000) translate(-79.147127, -22.083811) " points="79.2056672 16.476209 76.1048325 20.4578901 79.2056672 27.6914137 82.1894212 23.8883397"></polygon>
                        <polygon id="Path-47-Copy-5" fill="#FF41E9" opacity="0.654442631" mask="url(#mask-3)" transform="translate(39.439945, 21.931212) scale(1, -1) rotate(-144.000000) translate(-39.439945, -21.931212) " points="37.9116625 23.8192551 40.9682277 25.680096 40.9682277 20.0136923 37.9116625 18.1823289"></polygon>
                        <path d="M31.3042406,32.0122143 C30.6856157,32.0589493 29.4787947,32.2231562 28.5484055,32.8000126 C27.313964,33.5653863 26.223923,34.5906574 25.486423,34.7920494 C24.9817027,34.9298754 24.3679022,34.9024953 23.7732848,34.8045014 C23.8761426,34.9010072 23.9361156,34.953228 23.9361156,34.953228 C23.9361156,34.953228 20.672902,34.493157 19.4942742,33.1586031 C18.3156465,31.8240493 17.6097491,29.7064302 17.6097491,29.7064302 C17.4157037,29.198079 17.7104755,28.7859789 18.2515566,28.7859789 L19.5165217,28.7859789 C20.0650276,28.7859789 20.581405,29.235035 20.7041488,29.7734412 C20.7041488,29.7734412 20.6464738,30.1778674 21.4920376,31.8696035 C21.7556988,32.3971156 22.0925692,32.8954736 22.4313574,33.331569 C23.1824716,32.7687096 24.3508066,31.988664 25.8686955,31.2687427 C27.7991507,30.3531448 29.3018358,30.3350829 30.0475628,30.4117498 C31.1519866,30.4423113 32.5559143,30.6624608 33.5296812,31.4610384 C35.3666786,32.9675434 36.5319191,34.9746302 36.5319191,34.9746302 C36.8363703,35.4364198 36.6258514,35.8134903 36.0746124,35.8134903 L34.9702563,35.8134903 C34.4296494,35.8134903 33.7781665,35.4135671 33.538876,34.920237 C33.538876,34.920237 33.2934329,34.3324263 32.5421106,33.1106556 C32.317318,32.7451069 31.8495153,32.3651851 31.3042406,32.0122143 Z" id="Combined-Shape" fill="#FFD85F" mask="url(#mask-3)"></path>
                        <polygon id="Path-47-Copy-8" fill="#FFDF73" mask="url(#mask-3)" transform="translate(16.330019, 48.179438) rotate(-156.000000) translate(-16.330019, -48.179438) " points="13.8498067 47.729363 13.8498067 51.6819169 18.8102315 48.5913993 18.8102315 44.6769599"></polygon>
                        <path d="M5.04953358,69.2430295 C5.04953358,69.2430295 6.68462134,69.6304259 6.8691091,70.4318915 C7.19979507,71.8684824 7.82150124,73.9135521 8.71504962,74.1328272 C10.1071034,74.4744346 11.4180564,70.3494474 13.050752,70.6036285 C14.6834475,70.8578096 14.2279211,74.8019723 15.5396077,75.0815673 C16.8512944,75.3611622 17.1559497,71.5680867 18.9629436,71.8638525 C20.7699375,72.1596183 20.6592517,75.9534056 22.121629,76.1589016 C23.5840064,76.3643976 23.4622666,72.3773009 25.3281085,72.7582972 C26.5501532,73.007833 27.6279925,74.9675377 28.2263053,76.2901972" id="Path-62-Copy-3" stroke="#B1D12D" stroke-width="1.5" stroke-linecap="round" mask="url(#mask-3)" transform="translate(16.637919, 72.766613) rotate(-213.000000) translate(-16.637919, -72.766613) "></path>
                        <g mask="url(#mask-3)">
                            <g transform="translate(26.000000, 41.000000)">
                                <g id="Group-9" stroke-width="1" fill-rule="evenodd" transform="translate(4.813953, 0.000000)">
                                    <g id="Fill-147">
                                        <use fill="black" fill-opacity="1" filter="url(#filter-6)" xlink:href="#path-5"></use>
                                        <use fill="url(#linearGradient-4)" fill-rule="evenodd" xlink:href="#path-5"></use>
                                    </g>
                                    <path d="M28.8802957,23.9626247 L23.1021351,19.3906577 C22.8891913,19.222166 22.5502992,19.2456912 22.360636,19.4283364 L19.6252668,22.0624898 C19.4286919,22.2517908 19.4203017,22.5658662 19.6113957,22.7691768 L28.1890992,31.895257 C28.5708365,32.3013989 29.1814401,32.2971194 29.5563763,31.8818711 L42.9633094,17.0334632 C43.1484221,16.8284477 43.1347098,16.5014517 42.9370869,16.3074218 L40.6137076,14.0262831 C40.4141127,13.830317 40.0915507,13.8169342 39.8868216,14.0022049 L28.8802957,23.9626247 Z" id="Combined-Shape" fill="#FFDDB3"></path>
                                </g>
                                <g id="Combined-Shape" transform="translate(14.441860, 55.761628) scale(-1, 1) translate(-14.441860, -55.761628) ">
                                    <use fill="black" fill-opacity="1" filter="url(#filter-8)" xlink:href="#path-7"></use>
                                    <use fill="#FED3BA" fill-rule="evenodd" xlink:href="#path-7"></use>
                                </g>
                                <g id="Combined-Shape">
                                    <use fill="black" fill-opacity="1" filter="url(#filter-10)" xlink:href="#path-9"></use>
                                    <use fill="#FED3BA" fill-rule="evenodd" xlink:href="#path-9"></use>
                                </g>
                            </g>
                        </g>
                    </g>
                </g>
            </g>
        </g>
    </g>
</svg>