<?xml version="1.0" encoding="UTF-8"?>
<svg width="32px" height="32px" viewBox="0 0 32 32" version="1.1" xmlns="http://www.w3.org/2000/svg" xmlns:xlink="http://www.w3.org/1999/xlink">
    <!-- Generator: Sketch 49.1 (51147) - http://www.bohemiancoding.com/sketch -->
    <title>关闭</title>
    <desc>Created with Sketch.</desc>
    <defs></defs>
    <g id="Page-1" stroke="none" stroke-width="1" fill="none" fill-rule="evenodd">
        <g id="Artboard" transform="translate(-494.000000, -194.000000)" stroke="#F5974E">
            <g id="Group-15" transform="translate(495.000000, 195.000000)">
                <path d="M15.3351503,14.1833048 L19.9472532,9.57120198 C20.2627193,9.25573584 20.774087,9.25563185 21.0943779,9.57592276 C21.4124513,9.89399611 21.4080798,10.4140664 21.0990987,10.7230475 L16.4869958,15.3351503 L21.0990987,19.9472532 C21.4145648,20.2627193 21.4146688,20.774087 21.0943779,21.0943779 C20.7763046,21.4124513 20.2562343,21.4080798 19.9472532,21.0990987 L15.3351503,16.4869958 L10.7230475,21.0990987 C10.4075814,21.4145648 9.89621366,21.4146688 9.57592276,21.0943779 C9.2578494,20.7763046 9.26222084,20.2562343 9.57120198,19.9472532 L14.1833048,15.3351503 L9.57120198,10.7230475 C9.25573584,10.4075814 9.25563185,9.89621366 9.57592276,9.57592276 C9.89399611,9.2578494 10.4140664,9.26222084 10.7230475,9.57120198 L15.3351503,14.1833048 Z" id="close-icon" fill="#FEB449"></path>
                <circle id="Oval-4" cx="15" cy="15" r="15"></circle>
            </g>
        </g>
    </g>
</svg>