<?xml version="1.0" encoding="UTF-8"?>
<svg width="46px" height="46px" viewBox="0 0 46 46" version="1.1" xmlns="http://www.w3.org/2000/svg" xmlns:xlink="http://www.w3.org/1999/xlink">
    <!-- Generator: Sketch 49.1 (51147) - http://www.bohemiancoding.com/sketch -->
    <title>省心省力</title>
    <desc>Created with Sketch.</desc>
    <defs></defs>
    <g id="企业用工保" stroke="none" stroke-width="1" fill="none" fill-rule="evenodd">
        <g transform="translate(-350.000000, -739.000000)">
            <rect id="Rectangle" fill="#FFFFFF" x="220" y="0" width="1000" height="1143"></rect>
            <g id="Group-3" transform="translate(301.000000, 596.000000)">
                <g id="Group-4" transform="translate(49.000000, 143.000000)">
                    <g id="Group-19">
                        <rect id="Rectangle-8" fill="#D8D8D8" opacity="0" x="0" y="0" width="46" height="46"></rect>
                        <g id="Group-18" transform="translate(5.000000, 5.000000)" stroke="#FFC300" stroke-width="3">
                            <g id="Group-44">
                                <g id="Group-20">
                                    <path d="M17.8909091,16.509434 C16.7341268,16.531119 8.2311494,10.3234256 8.07272727,6.60377358 C7.89263466,0.832662435 14.0241669,-1.33078279 17.2363636,2.64150943 C17.6977878,3.21751578 18.0784943,3.21255147 18.5454545,2.64150943 C21.7393595,-1.35064002 27.9572376,0.841598189 27.7090909,6.60377358 C27.4950914,10.3075398 19.1790329,16.4886157 17.8909091,16.509434 Z" id="love-[#1488]" fill="#FFFFFF"></path>
                                    <path d="M7.74545455,34.009434 L17.951468,34.009434 C19.8395683,34.009434 21.6925504,33.4989977 23.3143141,32.5321443 L35.2363636,25.4245283 C35.6727273,24.1037736 35.2363636,23.3333333 33.9272727,23.1132075 C31.9636364,22.7830189 30.9818182,21.7924528 28.3636364,23.1132075 C26.8606102,23.8714165 25.1149086,24.8744631 23.1265316,26.1223473 L23.1265326,26.1223488 C22.4590313,26.5412655 21.6809378,26.7496752 20.893412,26.7204826 C18.0845073,26.6163601 14.1382184,26.1843754 9.05454545,25.4245283" id="Path-2"></path>
                                    <path d="M8.4,20.1415094 L11.7237835,20.5886292 C12.7714794,20.7295666 13.7837402,21.0644975 14.7087356,21.5762726 L23.4545455,26.4150943" id="Path-3"></path>
                                    <rect id="Rectangle-15" fill="#FFFFFF" x="0" y="18.490566" width="7.85454545" height="16.509434" rx="0.654545455"></rect>
                                </g>
                            </g>
                        </g>
                    </g>
                </g>
            </g>
        </g>
    </g>
</svg>