<?xml version="1.0" encoding="UTF-8"?>
<svg width="5px" height="9px" viewBox="0 0 5 9" version="1.1" xmlns="http://www.w3.org/2000/svg" xmlns:xlink="http://www.w3.org/1999/xlink">
    <!-- Generator: Sketch 45.2 (43514) - http://www.bohemiancoding.com/sketch -->
    <title>向左箭头 copy 6</title>
    <desc>Created with Sketch.</desc>
    <defs></defs>
    <g id="1.1_人员管理" stroke="none" stroke-width="1" fill="none" fill-rule="evenodd">
        <g id="Artboard" transform="translate(-281.000000, -166.000000)" fill="#C0CCDA">
            <path d="M281.054789,170.709005 C280.956768,170.494912 280.988862,170.232969 281.162441,170.060807 L285.097694,166.153377 C285.312289,165.940425 285.650571,165.950547 285.853785,166.175483 C286.056621,166.400755 286.047323,166.755887 285.832728,166.969224 L282.301788,170.475832 L285.818797,174.034481 C286.031264,174.249702 286.037692,174.604835 285.832728,174.828221 C285.727913,174.942772 285.587846,175 285.447723,175 C285.314073,175 285.180377,174.947636 285.076649,174.842846 L281.17707,170.89721 C281.169567,170.889393 281.166731,170.878526 281.159227,170.870325 C281.153508,170.864657 281.147481,170.860563 281.141773,170.854559 C281.111463,170.821262 281.095416,170.780485 281.074748,170.742289 C281.069052,170.73069 281.059776,170.720988 281.054789,170.709005 Z" id="向左箭头-copy-6" transform="translate(283.500000, 170.500000) scale(-1, 1) translate(-283.500000, -170.500000) "></path>
        </g>
    </g>
</svg>