<?xml version="1.0" encoding="UTF-8"?>
<svg width="14px" height="18px" viewBox="0 0 14 18" version="1.1" xmlns="http://www.w3.org/2000/svg" xmlns:xlink="http://www.w3.org/1999/xlink">
    <!-- Generator: Sketch 60 (88103) - https://sketch.com -->
    <title>审批</title>
    <desc>Created with Sketch.</desc>
    <g id="页面-1" stroke="none" stroke-width="1" fill="none" fill-rule="evenodd">
        <g id="新增离职申请审批" transform="translate(-21.000000, -478.000000)" fill="#6699EE" fill-rule="nonzero">
            <g id="Group-13" transform="translate(0.000000, 60.000000)">
                <g id="导航">
                    <g id="Group-10" transform="translate(0.000000, 52.000000)">
                        <g id="导航二备份" transform="translate(0.000000, 350.000000)">
                            <g id="审批" transform="translate(21.000000, 16.000000)">
                                <path d="M7.50833334,13.8083333 L8.18333334,12.9666667 C7.74166668,12.4333333 7.475,11.75 7.475,11.0166667 C7.475,9.33333332 8.85,7.95833332 10.5416667,7.95833334 C11.45,7.95833334 12.275,8.35833334 12.8333333,8.98333334 L12.8333333,1.64166666 C12.8333333,1.09166666 12.3833333,0.64166666 11.8333333,0.64166666 L1,0.64166666 C0.45,0.64166666 0,1.09166666 0,1.64166666 L0,11.6416667 C2.705415e-16,13.8508057 1.790861,15.6416667 4,15.6416667 L5.80833334,15.6416667 L5.80833334,15.6416667 C6.01666668,14.7666667 6.66666668,14.0666667 7.50833334,13.8083333 Z M3.59166666,3 L9.25833334,3 C9.625,3 9.925,3.3 9.925,3.66666666 C9.925,4.03333332 9.625,4.33333334 9.25833334,4.33333334 L3.59166666,4.33333334 C3.225,4.33333334 2.925,4.03333334 2.925,3.66666666 C2.925,3.29999998 3.21666666,3 3.59166666,3 Z M3.59166666,6 L9.25833334,6 C9.625,6 9.925,6.3 9.925,6.66666666 C9.925,7.03333332 9.625,7.33333334 9.25833334,7.33333334 L3.59166666,7.33333334 C3.225,7.33333334 2.925,7.03333334 2.925,6.66666666 C2.925,6.29999998 3.21666666,6 3.59166666,6 Z M2.925,9.66666666 C2.925,9.3 3.225,9 3.59166666,9 L5.925,9 C6.29166666,9 6.59166666,9.3 6.59166666,9.66666666 C6.59166666,10.0333333 6.29166666,10.3333333 5.925,10.3333333 L3.59166666,10.3333333 C3.21666666,10.3333333 2.925,10.0333333 2.925,9.66666666 Z" id="形状"></path>
                                <path d="M12.8416667,17.3333333 L8.23333334,17.3333333 C7.6,17.3333333 7.08333334,16.8166667 7.08333334,16.1833333 C7.08333334,15.55 7.6,15.0333333 8.23333334,15.0333333 L10.125,12.6833333 C9.36666666,12.5 8.80833334,11.825 8.80833334,11.0166667 C8.80833334,10.0666667 9.58333334,9.29166666 10.5416667,9.29166666 C11.5,9.29166666 12.275,10.0666667 12.275,11.0166667 C12.275,11.825 11.7166667,12.5 10.9583333,12.6833333 L12.85,15.0333333 C13.4833333,15.0333333 14,15.55 14,16.1833333 C14,16.8166667 13.4833333,17.3333333 12.8416667,17.3333333 L12.8416667,17.3333333 Z" id="路径"></path>
                            </g>
                        </g>
                    </g>
                </g>
            </g>
        </g>
    </g>
</svg>