<?xml version="1.0" encoding="UTF-8"?>
<svg width="18px" height="18px" viewBox="0 0 18 18" version="1.1" xmlns="http://www.w3.org/2000/svg" xmlns:xlink="http://www.w3.org/1999/xlink">
    <!-- Generator: Sketch 48.2 (47327) - http://www.bohemiancoding.com/sketch -->
    <title>保险_默认</title>
    <desc>Created with Sketch.</desc>
    <defs></defs>
    <g id="Artboard-2" stroke="none" stroke-width="1" fill="none" fill-rule="evenodd" transform="translate(-31.000000, -38.000000)">
        <g id="Group-18" transform="translate(31.000000, 39.000000)" fill="#8492A6">
            <g id="Group-11">
                <path d="M7.9,9 C5.37,6.73569482 3.5,5.05722071 3.5,3 C3.5,1.31880109 4.831,0 6.8,0 C7.482,0 8.4005,0.441416894 9,1 C9.5995,0.441416894 10.518,0 11.2,0 C13.169,0 14.5,1.31880109 14.5,3 C14.5,5.05722071 12.63,6.73569482 10.1,9 L9.3363364,9.69423964 C9.14562578,9.86761292 8.85437422,9.86761292 8.6636636,9.69423964 L7.9,9 Z" id="Fill-147"></path>
                <path d="M18,10 C17.6165104,10.9309843 16.283177,11.9309843 14,13 L14,15.4137931 C14,15.7375462 13.7375462,16 13.4137931,16 L10,16 L10,11.7245916 C10,11.280514 10.2508993,10.8745503 10.6480944,10.6759528 L15.3846154,8.30769231 L16,4 C17.1045695,4 18,4.8954305 18,6 L18,10 Z" id="Combined-Shape"></path>
                <path d="M8,10 C7.61651038,10.9309843 6.28317705,11.9309843 4,13 L4,15.4137931 C4,15.7375462 3.73754623,16 3.4137931,16 L0,16 L0,11.7245916 C-2.51593884e-16,11.280514 0.250899338,10.8745503 0.648094405,10.6759528 L5.38461538,8.30769231 L6,4 C7.1045695,4 8,4.8954305 8,6 L8,10 Z" id="Combined-Shape" transform="translate(4.000000, 10.000000) scale(-1, 1) translate(-4.000000, -10.000000) "></path>
            </g>
        </g>
    </g>
</svg>