<?xml version="1.0" encoding="UTF-8"?>
<svg width="16px" height="16px" viewBox="0 0 16 16" version="1.1" xmlns="http://www.w3.org/2000/svg" xmlns:xlink="http://www.w3.org/1999/xlink">
    <!-- Generator: Sketch 48.2 (47327) - http://www.bohemiancoding.com/sketch -->
    <title>email [#1572]_点击</title>
    <desc>Created with Sketch.</desc>
    <defs></defs>
    <g id="Artboard-2" stroke="none" stroke-width="1" fill="none" fill-rule="evenodd" transform="translate(-114.000000, -39.000000)">
        <path d="M121.547444,47.7495278 L114,43.9192 L114,52 C114,53.1045695 114.895431,54 116,54 L128,54 C129.104569,54 130,53.1045695 130,52 L130,43.9192 L122.452556,47.7495278 C122.168119,47.8938799 121.831881,47.8938799 121.547444,47.7495278 Z M121.547809,45.6194585 L114,41.7848 L114,41.7848 C114,41.3513669 114.351367,41 114.7848,41 L129.2152,41 C129.648633,41 130,41.3513669 130,41.7848 L122.453772,45.6194219 C122.16911,45.7640734 121.832484,45.764087 121.547809,45.6194585 Z" id="email-[#1572]" fill="#6699EE"></path>
    </g>
</svg>