<?xml version="1.0" encoding="UTF-8"?>
<svg width="16px" height="16px" viewBox="0 0 16 16" version="1.1" xmlns="http://www.w3.org/2000/svg" xmlns:xlink="http://www.w3.org/1999/xlink">
    <!-- Generator: Sketch 48.2 (47327) - http://www.bohemiancoding.com/sketch -->
    <title>email [#1572]</title>
    <desc>Created with Sketch.</desc>
    <defs></defs>
    <g id="Artboard-2" stroke="none" stroke-width="1" fill="none" fill-rule="evenodd" transform="translate(-94.000000, -39.000000)">
        <path d="M101.547444,47.7495278 L94,43.9192 L94,52 C94,53.1045695 94.8954305,54 96,54 L108,54 C109.104569,54 110,53.1045695 110,52 L110,43.9192 L102.452556,47.7495278 C102.168119,47.8938799 101.831881,47.8938799 101.547444,47.7495278 Z M101.547809,45.6194585 L94,41.7848 L94,41.7848 C94,41.3513669 94.3513669,41 94.7848,41 L109.2152,41 C109.648633,41 110,41.3513669 110,41.7848 L102.453772,45.6194219 C102.16911,45.7640734 101.832484,45.764087 101.547809,45.6194585 Z" id="email-[#1572]" fill="#8492A6"></path>
    </g>
</svg>