<?xml version="1.0" encoding="UTF-8"?>
<svg width="16px" height="16px" viewBox="0 0 16 16" version="1.1" xmlns="http://www.w3.org/2000/svg" xmlns:xlink="http://www.w3.org/1999/xlink">
    <!-- Generator: Sketch 45.2 (43514) - http://www.bohemiancoding.com/sketch -->
    <title>Combined Shape</title>
    <desc>Created with Sketch.</desc>
    <defs></defs>
    <g id="1.1_人员管理" stroke="none" stroke-width="1" fill="none" fill-rule="evenodd">
        <g id="Artboard" transform="translate(-207.000000, -189.000000)" fill="#6699EE">
            <path d="M211.282051,199 L218.717835,199 L218.717835,199 C220.222675,199 221.494669,200.114865 221.691945,201.606717 L221.991087,203.868906 C222.063488,204.416424 221.678329,204.918969 221.130811,204.99137 C221.087349,204.997117 221.043557,205 220.999717,205 L209.00017,205 L209.00017,205 C208.447885,205 208.00017,204.552285 208.00017,204 C208.00017,203.95616 208.003053,203.912367 208.0088,203.868906 L208.307942,201.606717 L208.307942,201.606717 C208.505217,200.114865 209.777212,199 211.282051,199 L211.282051,199 Z M214.999943,197.555556 C212.808995,197.555556 211.03288,195.640329 211.03288,193.277778 C211.03288,190.915226 212.808995,189 214.999943,189 C217.190892,189 218.967007,190.915226 218.967007,193.277778 C218.967007,195.640329 217.190892,197.555556 214.999943,197.555556 Z" id="Combined-Shape"></path>
        </g>
    </g>
</svg>