<?xml version="1.0" encoding="UTF-8"?>
<svg width="16px" height="16px" viewBox="0 0 16 16" version="1.1" xmlns="http://www.w3.org/2000/svg" xmlns:xlink="http://www.w3.org/1999/xlink">
    <!-- Generator: Sketch 45.2 (43514) - http://www.bohemiancoding.com/sketch -->
    <title>人员管理_默认</title>
    <desc>Created with Sketch.</desc>
    <defs></defs>
    <g id="1.1_人员管理" stroke="none" stroke-width="1" fill="none" fill-rule="evenodd">
        <g id="Artboard" transform="translate(-227.000000, -189.000000)" fill="#8492A6">
            <path d="M231.282051,199 L238.717835,199 C240.222675,199 241.494669,200.114865 241.691945,201.606717 L241.991087,203.868906 L241.991087,203.868906 C242.063488,204.416424 241.678329,204.918969 241.130811,204.99137 C241.087349,204.997117 241.043557,205 240.999717,205 L229.00017,205 L229.00017,205 C228.447885,205 228.00017,204.552285 228.00017,204 C228.00017,203.95616 228.003053,203.912367 228.0088,203.868906 L228.307942,201.606717 L228.307942,201.606717 C228.505217,200.114865 229.777212,199 231.282051,199 L231.282051,199 Z M234.999943,197.555556 C232.808995,197.555556 231.03288,195.640329 231.03288,193.277778 C231.03288,190.915226 232.808995,189 234.999943,189 C237.190892,189 238.967007,190.915226 238.967007,193.277778 C238.967007,195.640329 237.190892,197.555556 234.999943,197.555556 Z" id="Combined-Shape"></path>
        </g>
    </g>
</svg>