<svg xmlns="http://www.w3.org/2000/svg" xmlns:xlink="http://www.w3.org/1999/xlink" fill="none" version="1.1" width="20" height="20" viewBox="0 0 20 20"><defs><clipPath id="master_svg0_9_0973"><rect x="0" y="0" width="20" height="20" rx="0"/></clipPath></defs><g clip-path="url(#master_svg0_9_0973)"><g><path d="M11.66667,1.66668701171875L11.66667,6.66668701171875C11.66667,7.12692701171875,12.03976,7.50001701171875,12.5,7.50001701171875L17.5,7.50001701171875L17.5,17.49418701171875C17.5032,17.95438701171875,17.1327,18.33018701171875,16.6725,18.33338701171875L3.3275,18.33338701171875C2.870809,18.33338701171875,2.500458956,17.96338701171875,2.5,17.50668701171875L2.5,2.49335401171875C2.5,2.04585401171875,2.8725,1.66668701171875,3.331667,1.66668701171875L11.66667,1.66668701171875ZM9.975,7.91668701171875L9.96667,7.91668701171875C9.65016,7.91622701171875,9.393329999999999,8.17267701171875,9.393329999999999,8.48918701171875C8.12333,8.48918701171875,7.08333,9.52085701171875,7.08333,10.78085701171875C7.08333,12.04168701171875,8.12333,13.07248701171875,9.393329999999999,13.07248701171875L9.393329999999999,15.36418701171875C8.75914,15.36468701171875,8.243369999999999,14.85338701171875,8.238330000000001,14.21918701171875L8.231670000000001,14.21838701171875L8.22833,14.16338701171875C8.189969999999999,13.86598701171875,7.92954,13.64798701171875,7.63005,13.66258701171875C7.33057,13.67718701171875,7.09258,13.91948701171875,7.08333,14.21918701171875L7.08333,14.26088701171875C7.10667,15.50248701171875,8.1375,16.51088701171875,9.393329999999999,16.51088701171875L9.4,16.59498701171875C9.44083,16.87168701171875,9.67917,17.08338701171875,9.96667,17.08338701171875L9.975,17.08338701171875C10.29167,17.08338701171875,10.54833,16.82668701171875,10.54833,16.51088701171875C11.81917,16.51088701171875,12.8592,15.47918701171875,12.9167,14.21918701171875C12.9167,13.53168701171875,12.57,12.90088701171875,12.10833,12.49998701171875C11.70417,12.15588701171875,11.18333,11.92668701171875,10.78,11.92668701171875L10.54833,11.92668701171875L10.54833,9.63501701171875C11.18417,9.63501701171875,11.70417,10.15168701171875,11.70417,10.78085701171875L11.70833,10.78168701171875C11.70833,11.09924701171875,11.96577,11.35668701171875,12.28333,11.35668701171875C12.6009,11.35668701171875,12.8583,11.09924701171875,12.8583,10.78168701171875C12.8583,9.52085701171875,11.81917,8.49001701171875,10.54833,8.49001701171875L10.5425,8.405017011718751C10.50044,8.12446701171875,10.25952,7.91684701171875,9.97583,7.91668701171875L9.975,7.91668701171875ZM10.54833,13.07338701171875C11.18417,13.07338701171875,11.70417,13.58838701171875,11.70417,14.21918701171875C11.70417,14.84918701171875,11.18417,15.36418701171875,10.54833,15.36418701171875L10.54833,13.07338701171875ZM9.393329999999999,9.63585701171875L9.393329999999999,11.92748701171875C8.7585,11.92798701171875,8.242460000000001,11.41567701171875,8.238330000000001,10.78085701171875C8.238330000000001,10.15085701171875,8.75833,9.63585701171875,9.393329999999999,9.63585701171875ZM12.9167,1.66668701171875L17.5,6.25001701171875L13.3333,6.25001701171875C13.1032,6.25001701171875,12.9167,6.06346701171875,12.9167,5.83335701171875L12.9167,1.66668701171875Z" fill="#6699EE" fill-opacity="1"/></g></g></svg>