<?xml version="1.0" encoding="UTF-8"?>
<svg width="16px" height="16px" viewBox="0 0 16 16" version="1.1" xmlns="http://www.w3.org/2000/svg" xmlns:xlink="http://www.w3.org/1999/xlink">
    <!-- Generator: Sketch 45.2 (43514) - http://www.bohemiancoding.com/sketch -->
    <title>工资核算</title>
    <desc>Created with Sketch.</desc>
    <defs></defs>
    <g id="1.1_人员管理" stroke="none" stroke-width="1" fill="none" fill-rule="evenodd">
        <g id="Artboard" transform="translate(-436.000000, -402.000000)" fill="#8492A6">
            <g id="Group-3" transform="translate(436.000000, 402.000000)">
                <path d="M2,0 L14,0 C15.1045695,-2.02906125e-16 16,0.8954305 16,2 L16,12 L16,12 C16,14.209139 14.209139,16 12,16 L4,16 C1.790861,16 2.705415e-16,14.209139 0,12 L0,2 L0,2 C-1.3527075e-16,0.8954305 0.8954305,-6.85272294e-16 2,-8.8817842e-16 L2,0 Z M9,8 L11,8 L11,7 L8.87664263,7 L12.0042514,4 L9.11637438,4 L7.98481471,5.08502867 L6.85497224,4 L3.99682016,4 L7.09572879,7 L5,7 L5,8 L7,8 L7,9 L5,9 L5,10 L7,10 L7,12 L9,12 L9,10 L11,10 L11,9 L9,9 L9,8 L9,8 Z" id="Combined-Shape"></path>
            </g>
        </g>
    </g>
</svg>