<?xml version="1.0" encoding="UTF-8"?>
<svg width="17px" height="16px" viewBox="0 0 17 16" version="1.1" xmlns="http://www.w3.org/2000/svg" xmlns:xlink="http://www.w3.org/1999/xlink">
    <!-- Generator: Sketch 49.2 (51160) - http://www.bohemiancoding.com/sketch -->
    <title>设置_默认</title>
    <desc>Created with Sketch.</desc>
    <defs></defs>
    <g id="Page-1" stroke="none" stroke-width="1" fill="none" fill-rule="evenodd">
        <g id="Artboard" transform="translate(-20.000000, -50.000000)" fill="#8492A6">
            <path d="M36.1419252,55.9783651 L35.865629,55.9137376 C35.2157491,55.7159382 34.6398077,55.2831297 34.2720614,54.6466467 C33.9062608,54.0062468 33.8187021,53.2777185 33.9782534,52.6118593 L34.0658121,52.3494325 C34.1767197,51.9871267 34.0327344,51.4877323 33.7428179,51.2390143 C33.7428179,51.2390143 33.4820877,51.0177141 32.7504865,50.5927392 C32.0169395,50.1697228 31.7017283,50.0522182 31.7017283,50.0522182 C31.3456564,49.9210048 30.8455992,50.046343 30.584869,50.3244371 L30.3922399,50.5320285 C29.8999657,51.0020468 29.2364656,51.2860162 28.5029186,51.2860162 C27.7693717,51.2860162 27.1000343,50.99813 26.6077601,50.5261533 L26.4209683,50.3244372 C26.1641296,50.046343 25.6621266,49.9229632 25.304109,50.0522183 C25.304109,50.0522183 24.9850063,50.1697228 24.2514593,50.5927393 C23.5179123,51.0216309 23.2610736,51.2429312 23.2610736,51.2429312 C22.9711572,51.4877323 22.8271718,51.9832099 22.9380794,52.3494325 L23.0178551,52.6138177 C23.1735149,53.2816353 23.0917935,54.0062468 22.7240472,54.6466467 C22.3563008,55.2870466 21.7745221,55.7237719 21.1207508,55.9176544 L20.8541834,55.9783651 C20.4883827,56.0625767 20.1284194,56.4385913 20.0603182,56.8126475 C20.0603182,56.8126475 20,57.1475355 20,57.9994436 C20,58.8513516 20.0603182,59.1862396 20.0603182,59.1862396 C20.1264736,59.5622542 20.4825455,59.9382688 20.8541834,60.0205221 L21.1149136,60.0812327 C21.7686849,60.2751153 22.354355,60.7118406 22.7201557,61.3561573 C23.0859563,61.9965571 23.1735149,62.7250854 23.0139636,63.3909446 L22.9380794,63.6494547 C22.8271718,64.0117604 22.9711572,64.5111548 23.2610736,64.7598728 C23.2610736,64.7598728 23.5218038,64.9811731 24.2534051,65.4061479 C24.9869521,65.8311227 25.3021632,65.9466689 25.3021632,65.9466689 C25.6582351,66.0778823 26.1582923,65.9525441 26.4190226,65.67445 L26.6019229,65.4766506 C27.0980886,65.004674 27.7654802,64.7148294 28.5009729,64.7148294 C29.2364656,64.7148294 29.9077487,65.0066324 30.4000229,65.478609 L30.5829232,65.6764084 C30.839762,65.9545025 31.3417649,66.0778823 31.6997825,65.9486273 C31.6997825,65.9486273 32.0188852,65.8311227 32.7524322,65.4081063 C33.4859792,64.9831315 33.7428179,64.7618312 33.7428179,64.7618312 C34.0327344,64.51703 34.1767197,64.0176356 34.0658121,63.6514131 L33.9860364,63.383111 C33.8303766,62.7192102 33.912098,61.9945987 34.2798443,61.3581157 C34.645645,60.7177158 35.2332608,60.2790321 35.8850864,60.0831911 L36.1458166,60.0224805 C36.5116173,59.9382688 36.8715806,59.5622542 36.9396818,59.188198 C36.9396818,59.188198 37,58.85331 37,58.001402 C36.9961085,57.1494939 36.9357904,56.8126475 36.9357904,56.8126475 C36.8696349,56.4405497 36.5135631,56.0606183 36.1419252,55.9783651 Z M28.5,61 C26.8450057,61 25.5,59.657668 25.5,57.9982769 C25.5,56.342332 26.8415614,55 28.5,55 C30.1549943,55 31.5,56.342332 31.5,58.0017231 C31.4965557,59.657668 30.1549943,61 28.5,61 L28.5,61 L28.5,61 L28.5,61 Z" id="Shape"></path>
        </g>
    </g>
</svg>