<?xml version="1.0" encoding="UTF-8"?>
<svg width="17px" height="16px" viewBox="0 0 17 16" version="1.1" xmlns="http://www.w3.org/2000/svg" xmlns:xlink="http://www.w3.org/1999/xlink">
    <!-- Generator: Sketch 49.2 (51160) - http://www.bohemiancoding.com/sketch -->
    <title>设置_点击</title>
    <desc>Created with Sketch.</desc>
    <defs></defs>
    <g id="Page-1" stroke="none" stroke-width="1" fill="none" fill-rule="evenodd">
        <g id="Artboard" transform="translate(-49.000000, -50.000000)" fill="#6699EE">
            <path d="M65.1419252,55.9783651 L64.865629,55.9137376 C64.2157491,55.7159382 63.6398077,55.2831297 63.2720614,54.6466467 C62.9062608,54.0062468 62.8187021,53.2777185 62.9782534,52.6118593 L63.0658121,52.3494325 C63.1767197,51.9871267 63.0327344,51.4877323 62.7428179,51.2390143 C62.7428179,51.2390143 62.4820877,51.0177141 61.7504865,50.5927392 C61.0169395,50.1697228 60.7017283,50.0522182 60.7017283,50.0522182 C60.3456564,49.9210048 59.8455992,50.046343 59.584869,50.3244371 L59.3922399,50.5320285 C58.8999657,51.0020468 58.2364656,51.2860162 57.5029186,51.2860162 C56.7693717,51.2860162 56.1000343,50.99813 55.6077601,50.5261533 L55.4209683,50.3244372 C55.1641296,50.046343 54.6621266,49.9229632 54.304109,50.0522183 C54.304109,50.0522183 53.9850063,50.1697228 53.2514593,50.5927393 C52.5179123,51.0216309 52.2610736,51.2429312 52.2610736,51.2429312 C51.9711572,51.4877323 51.8271718,51.9832099 51.9380794,52.3494325 L52.0178551,52.6138177 C52.1735149,53.2816353 52.0917935,54.0062468 51.7240472,54.6466467 C51.3563008,55.2870466 50.7745221,55.7237719 50.1207508,55.9176544 L49.8541834,55.9783651 C49.4883827,56.0625767 49.1284194,56.4385913 49.0603182,56.8126475 C49.0603182,56.8126475 49,57.1475355 49,57.9994436 C49,58.8513516 49.0603182,59.1862396 49.0603182,59.1862396 C49.1264736,59.5622542 49.4825455,59.9382688 49.8541834,60.0205221 L50.1149136,60.0812327 C50.7686849,60.2751153 51.354355,60.7118406 51.7201557,61.3561573 C52.0859563,61.9965571 52.1735149,62.7250854 52.0139636,63.3909446 L51.9380794,63.6494547 C51.8271718,64.0117604 51.9711572,64.5111548 52.2610736,64.7598728 C52.2610736,64.7598728 52.5218038,64.9811731 53.2534051,65.4061479 C53.9869521,65.8311227 54.3021632,65.9466689 54.3021632,65.9466689 C54.6582351,66.0778823 55.1582923,65.9525441 55.4190226,65.67445 L55.6019229,65.4766506 C56.0980886,65.004674 56.7654802,64.7148294 57.5009729,64.7148294 C58.2364656,64.7148294 58.9077487,65.0066324 59.4000229,65.478609 L59.5829232,65.6764084 C59.839762,65.9545025 60.3417649,66.0778823 60.6997825,65.9486273 C60.6997825,65.9486273 61.0188852,65.8311227 61.7524322,65.4081063 C62.4859792,64.9831315 62.7428179,64.7618312 62.7428179,64.7618312 C63.0327344,64.51703 63.1767197,64.0176356 63.0658121,63.6514131 L62.9860364,63.383111 C62.8303766,62.7192102 62.912098,61.9945987 63.2798443,61.3581157 C63.645645,60.7177158 64.2332608,60.2790321 64.8850864,60.0831911 L65.1458166,60.0224805 C65.5116173,59.9382688 65.8715806,59.5622542 65.9396818,59.188198 C65.9396818,59.188198 66,58.85331 66,58.001402 C65.9961085,57.1494939 65.9357904,56.8126475 65.9357904,56.8126475 C65.8696349,56.4405497 65.5135631,56.0606183 65.1419252,55.9783651 Z M57.5,61 C55.8450057,61 54.5,59.657668 54.5,57.9982769 C54.5,56.342332 55.8415614,55 57.5,55 C59.1549943,55 60.5,56.342332 60.5,58.0017231 C60.4965557,59.657668 59.1549943,61 57.5,61 L57.5,61 L57.5,61 L57.5,61 Z" id="Shape"></path>
        </g>
    </g>
</svg>