<?xml version="1.0" standalone="no"?><!DOCTYPE svg PUBLIC "-//W3C//DTD SVG 1.1//EN" "http://www.w3.org/Graphics/SVG/1.1/DTD/svg11.dtd"><svg t="1566960540477" class="icon" viewBox="0 0 1024 1024" version="1.1" xmlns="http://www.w3.org/2000/svg" p-id="2626" width="32" height="32" xmlns:xlink="http://www.w3.org/1999/xlink"><defs><style type="text/css"></style></defs><path d="M192.853333 918.186667a286.72 37.546667 0 1 0 573.44 0 286.72 37.546667 0 1 0-573.44 0Z" fill="#7F93A6" p-id="2627"></path><path d="M481.28 68.266667c-162.133333 58.026667-358.4 100.693333-358.4 100.693333-11.946667 3.413333-22.186667 15.36-22.186667 27.306667v327.68c0 3.413333 5.12 73.386667 52.906667 157.013333 27.306667 49.493333 85.333333 88.746667 131.413333 126.293333 56.32 46.08 136.533333 81.92 215.04 107.52 0 0 119.466667-29.013333 211.626667-93.866666 203.093333-139.946667 203.093333-295.253333 203.093333-298.666667V172.373333c0-11.946667-10.24-23.893333-22.186666-25.6 0 0-189.44-23.893333-373.76-76.8-6.826667-3.413333-30.72 1.706667-37.546667-1.706666z" fill="#7F93A6" p-id="2628"></path><path d="M479.573333 68.266667C317.44 126.293333 107.52 155.306667 107.52 155.306667c-11.946667 3.413333-22.186667 15.36-22.186667 27.306666v327.68c0 3.413333 5.12 73.386667 52.906667 157.013334 27.306667 49.493333 85.333333 93.866667 131.413333 131.413333 56.32 46.08 124.586667 83.626667 204.8 109.226667l6.826667 1.706666 6.826667-1.706666c78.506667-25.6 148.48-63.146667 204.8-109.226667 46.08-37.546667 102.4-81.92 131.413333-131.413333 47.786667-83.626667 52.906667-155.306667 52.906667-158.72V180.906667c0-11.946667-10.24-23.893333-22.186667-27.306667-1.706667 1.706667-184.32-27.306667-375.466667-85.333333z" fill="#7F93A6" p-id="2629"></path><path d="M354.986667 366.933333v300.373334c0 20.48-8.533333 30.72-25.6 30.72-10.24 0-18.773333-1.706667-22.186667-6.826667-3.413333-5.12-6.826667-11.946667-6.826667-23.893333V476.16c-8.533333 11.946667-17.066667 18.773333-25.6 20.48-8.533333 1.706667-15.36-1.706667-22.186666-6.826667-8.533333-5.12-13.653333-13.653333-13.653334-20.48 0-8.533333 5.12-18.773333 15.36-32.426666 20.48-27.306667 35.84-56.32 47.786667-85.333334 11.946667-29.013333 22.186667-59.733333 30.72-92.16 3.413333-13.653333 6.826667-22.186667 11.946667-29.013333 5.12-6.826667 13.653333-8.533333 25.6-6.826667 11.946667 1.706667 18.773333 6.826667 20.48 13.653334 1.706667 8.533333 1.706667 18.773333-3.413334 34.133333-5.12 18.773333-10.24 35.84-15.36 51.2-5.12 15.36-11.946667 30.72-17.066666 44.373333z m377.173333 273.066667c-1.706667 3.413333-3.413333 8.533333-6.826667 13.653333-6.826667 8.533333-15.36 11.946667-23.893333 10.24-8.533333-1.706667-18.773333-8.533333-29.013333-17.066666-22.186667-17.066667-40.96-34.133333-56.32-49.493334-15.36-17.066667-29.013333-34.133333-40.96-51.2v124.586667c0 10.24-1.706667 18.773333-6.826667 22.186667-3.413333 5.12-11.946667 6.826667-20.48 6.826666-10.24 0-17.066667-1.706667-22.186667-6.826666-5.12-5.12-8.533333-11.946667-8.533333-22.186667v-104.106667c-10.24 13.653333-20.48 25.6-32.426667 37.546667-11.946667 11.946667-27.306667 25.6-46.08 39.253333-15.36 11.946667-27.306667 17.066667-37.546666 18.773334-10.24 1.706667-17.066667-1.706667-23.893334-10.24-3.413333-5.12-5.12-8.533333-6.826666-11.946667-1.706667-3.413333-1.706667-8.533333 0-11.946667 1.706667-5.12 3.413333-8.533333 8.533333-13.653333 3.413333-5.12 10.24-10.24 18.773333-15.36 5.12-3.413333 11.946667-8.533333 20.48-15.36s15.36-13.653333 23.893334-20.48l25.6-25.6c8.533333-8.533333 17.066667-18.773333 23.893333-29.013333h-83.626667c-10.24 0-18.773333-1.706667-23.893333-6.826667-5.12-5.12-6.826667-11.946667-6.826667-20.48 0-10.24 1.706667-17.066667 6.826667-20.48 5.12-5.12 11.946667-6.826667 23.893333-6.826667h107.52v-35.84H460.8c-18.773333 0-32.426667-5.12-39.253333-13.653333-6.826667-8.533333-10.24-22.186667-10.24-39.253333v-69.973334c0-17.066667 3.413333-30.72 10.24-39.253333 6.826667-8.533333 20.48-11.946667 39.253333-11.946667h174.08c17.066667 0 30.72 3.413333 37.546667 11.946667 6.826667 8.533333 10.24 22.186667 10.24 40.96v69.973333c0 17.066667-3.413333 30.72-10.24 39.253334-6.826667 8.533333-20.48 13.653333-39.253334 13.653333h-61.44v35.84H699.733333c10.24 0 18.773333 1.706667 22.186667 6.826667 3.413333 5.12 6.826667 11.946667 6.826667 20.48s-1.706667 15.36-6.826667 20.48c-5.12 5.12-11.946667 6.826667-22.186667 6.826666h-92.16c17.066667 20.48 34.133333 37.546667 49.493334 52.906667 17.066667 15.36 30.72 27.306667 44.373333 35.84 8.533333 5.12 15.36 11.946667 18.773333 17.066667 5.12 5.12 6.826667 10.24 8.533334 13.653333 5.12 1.706667 5.12 5.12 3.413333 10.24z m-109.226667-286.72c1.706667-3.413333 3.413333-8.533333 3.413334-15.36v-22.186667c0-6.826667-1.706667-11.946667-3.413334-15.36-1.706667-1.706667-6.826667-3.413333-13.653333-3.413333h-121.173333c-6.826667 0-11.946667 1.706667-13.653334 3.413333-1.706667 1.706667-3.413333 5.12-3.413333 11.946667v27.306667c0 6.826667 1.706667 11.946667 3.413333 15.36 3.413333 3.413333 6.826667 3.413333 13.653334 3.413333h119.466666c8.533333 0 13.653333-1.706667 15.36-5.12z" fill="#7F93A6" p-id="2630"></path><path d="M337.92 366.933333v300.373334c0 20.48-8.533333 30.72-25.6 30.72-10.24 0-18.773333-1.706667-22.186667-6.826667-3.413333-5.12-6.826667-11.946667-6.826666-23.893333V476.16c-8.533333 11.946667-17.066667 18.773333-25.6 20.48-8.533333 1.706667-15.36-1.706667-22.186667-6.826667-8.533333-5.12-13.653333-13.653333-13.653333-20.48 0-8.533333 5.12-18.773333 15.36-32.426666 20.48-27.306667 35.84-56.32 47.786666-85.333334 11.946667-29.013333 22.186667-59.733333 30.72-92.16 3.413333-13.653333 6.826667-22.186667 11.946667-29.013333 5.12-6.826667 13.653333-8.533333 25.6-6.826667 11.946667 1.706667 18.773333 6.826667 20.48 13.653334 1.706667 8.533333 1.706667 18.773333-3.413333 34.133333-5.12 18.773333-10.24 35.84-15.36 51.2-5.12 15.36-11.946667 30.72-17.066667 44.373333z m377.173333 273.066667c-1.706667 3.413333-3.413333 8.533333-6.826666 13.653333-6.826667 8.533333-15.36 11.946667-23.893334 10.24-8.533333-1.706667-18.773333-8.533333-29.013333-17.066666-22.186667-17.066667-40.96-34.133333-56.32-49.493334-15.36-17.066667-29.013333-34.133333-40.96-51.2v124.586667c0 10.24-1.706667 18.773333-6.826667 22.186667-3.413333 5.12-11.946667 6.826667-20.48 6.826666-10.24 0-17.066667-1.706667-22.186666-6.826666-5.12-5.12-8.533333-11.946667-8.533334-22.186667v-104.106667c-10.24 13.653333-20.48 25.6-32.426666 37.546667-11.946667 11.946667-27.306667 25.6-46.08 39.253333-15.36 11.946667-27.306667 17.066667-37.546667 18.773334-10.24 1.706667-17.066667-1.706667-23.893333-10.24-3.413333-5.12-5.12-8.533333-6.826667-11.946667-1.706667-3.413333-1.706667-8.533333 0-11.946667 1.706667-5.12 3.413333-8.533333 8.533333-13.653333 3.413333-5.12 10.24-10.24 18.773334-15.36 5.12-3.413333 11.946667-8.533333 20.48-15.36s15.36-13.653333 23.893333-20.48l25.6-25.6c8.533333-8.533333 17.066667-18.773333 23.893333-29.013333h-83.626666c-10.24 0-18.773333-1.706667-23.893334-6.826667-5.12-5.12-6.826667-11.946667-6.826666-20.48 0-10.24 1.706667-17.066667 6.826666-20.48 5.12-5.12 11.946667-6.826667 23.893334-6.826667h107.52v-35.84H443.733333c-18.773333 0-32.426667-5.12-39.253333-13.653333-6.826667-8.533333-10.24-22.186667-10.24-39.253333v-69.973334c0-17.066667 3.413333-30.72 10.24-39.253333 6.826667-8.533333 20.48-11.946667 39.253333-11.946667h174.08c17.066667 0 30.72 3.413333 37.546667 11.946667 6.826667 8.533333 10.24 22.186667 10.24 40.96v69.973333c0 17.066667-3.413333 30.72-10.24 39.253334-6.826667 8.533333-20.48 13.653333-39.253333 13.653333h-61.44v35.84H682.666667c10.24 0 18.773333 1.706667 22.186666 6.826667 3.413333 5.12 6.826667 11.946667 6.826667 20.48s-1.706667 15.36-6.826667 20.48c-5.12 5.12-11.946667 6.826667-22.186666 6.826666h-92.16c17.066667 20.48 34.133333 37.546667 49.493333 52.906667 17.066667 15.36 30.72 27.306667 44.373333 35.84 8.533333 5.12 15.36 11.946667 18.773334 17.066667 5.12 5.12 6.826667 10.24 8.533333 13.653333 5.12 1.706667 5.12 5.12 3.413333 10.24z m-109.226666-286.72c1.706667-3.413333 3.413333-8.533333 3.413333-15.36v-22.186667c0-6.826667-1.706667-11.946667-3.413333-15.36-1.706667-1.706667-6.826667-3.413333-13.653334-3.413333h-121.173333c-6.826667 0-11.946667 1.706667-13.653333 3.413333-1.706667 1.706667-3.413333 5.12-3.413334 11.946667v27.306667c0 6.826667 1.706667 11.946667 3.413334 15.36 3.413333 3.413333 6.826667 3.413333 13.653333 3.413333h119.466667c8.533333 0 13.653333-1.706667 15.36-5.12z" fill="#ffffff" p-id="2631" data-spm-anchor-id="a313x.7781069.0.i3" class="selected"></path></svg>