<svg xmlns="http://www.w3.org/2000/svg" xmlns:xlink="http://www.w3.org/1999/xlink" fill="none" version="1.1" width="20" height="20" viewBox="0 0 20 20"><defs><clipPath id="master_svg0_9_0809"><rect x="0" y="0" width="20" height="20" rx="0"/></clipPath></defs><g clip-path="url(#master_svg0_9_0809)"><g><path d="M16.909990844726565,5.800011015625L15.669990844726563,5.800011015625L15.889990844726562,5.160011015625C16.159990844726565,4.3400110156250005,15.709990844726562,3.450011015625,14.899990844726563,3.170011015625L8.759990844726563,1.140009715625C8.359990844726562,1.010009715625,7.929990844726563,1.040009815625,7.5599908447265625,1.230010015625C7.179990844726563,1.410010015625,6.909990844726562,1.740010015625,6.779990844726562,2.1400110156250003C6.769990844726562,2.1800110156250003,6.689990844726562,2.440011015625,6.669990844726563,2.5400110156249998L6.629990844726563,2.530011015625C6.229990844726562,2.4300110156250003,5.799990844726563,2.490011015625,5.439990844726562,2.7100110156249997C5.089990844726563,2.920011015625,4.819990844726563,3.280011015625,4.729990844726562,3.680011015625L4.209990844726562,5.800011015625L3.279990844726562,5.800011015625C2.4899908447265626,5.800011015625,1.8499908447265625,6.440011015625,1.8499908447265625,7.230011015625L1.8499908447265625,15.319991015625C1.8499908447265625,16.839991015625,3.0899908447265627,18.079991015625,4.609990844726562,18.079991015625L16.909990844726565,18.079991015625C17.579990844726563,18.079991015625,18.119990844726562,17.539991015625,18.119990844726562,16.869991015625L18.119990844726562,7.010011015625C18.129990844726564,6.340011015625,17.579990844726563,5.800011015625,16.909990844726565,5.800011015625ZM7.679990844726563,2.700011015625L7.759990844726563,2.4600110156249997C7.8499908447265625,2.190011015625,8.149990844726563,2.030010015625,8.429990844726563,2.130011015625L14.569990844726563,4.160011015625C14.699990844726562,4.200011015625,14.819990844726563,4.3000110156249995,14.879990844726562,4.4200110156250005C14.939990844726562,4.540011015625,14.949990844726562,4.690011015625,14.909990844726563,4.820011015625L14.579990844726563,5.800011015625L14.099990844726562,5.800011015625C14.149990844726563,5.440011015625,14.069990844726563,5.080011015625,13.889990844726562,4.770011015625C13.679990844726563,4.4200110156250005,13.329990844726563,4.150011015625,12.919990844726563,4.060011015625L7.649990844726562,2.770011015625C7.659990844726562,2.7500110156249997,7.669990844726563,2.730011015625,7.679990844726563,2.700011015625ZM5.749990844726563,3.950011015625L5.759990844726563,3.930011015625C5.799990844726563,3.790011015625,5.879990844726563,3.680011015625,6.009990844726563,3.600011015625C6.129990844726563,3.530011015625,6.269990844726562,3.500011015625,6.409990844726562,3.540011015625L12.689990844726562,5.080011015625C12.829990844726563,5.120011015625,12.939990844726562,5.200011015625,13.019990844726562,5.330011015625C13.089990844726563,5.440011015625,13.119990844726562,5.590011015625,13.079990844726563,5.730011015625C13.069990844726563,5.750011015625,13.069990844726563,5.770011015625,13.059990844726563,5.800011015625L5.299990844726563,5.800011015625L5.749990844726563,3.950011015625ZM11.279990844726562,11.199991015625L11.309990844726563,11.199991015625C11.439990844726562,11.219991015625,11.599990844726562,11.209991015625,11.739990844726563,11.199991015625C11.999990844726563,11.179991015625,12.239990844726563,11.179991015625,12.459990844726562,11.269991015625C12.659990844726563,11.369991015625,12.699990844726562,11.569991015625,12.689990844726562,11.729991015625C12.669990844726563,11.899991015625,12.559990844726563,12.089991015625,12.349990844726562,12.139991015625C12.049990844726562,12.169991015625,11.759990844726563,12.169991015625,11.459990844726562,12.159991015625C11.279990844726562,12.159991015625,11.089990844726563,12.149991015625,10.909990844726563,12.159991015625L10.829990844726563,12.159991015625L10.829990844726563,13.049991015625L12.199990844726562,13.049991015625C12.439990844726562,13.029991015625,12.679990844726563,13.229991015625,12.699990844726562,13.479991015625C12.719990844726562,13.609991015625,12.679990844726563,13.729991015625,12.579990844726563,13.839991015625C12.479990844726563,13.949991015625,12.349990844726562,14.019991015625,12.189990844726562,14.009991015625L10.839990844726563,14.009991015625L10.839990844726563,14.649991015625C10.839990844726563,14.899991015625,10.839990844726563,15.169991015625,10.829990844726563,15.419991015625C10.829990844726563,15.539991015625,10.759990844726563,15.659991015625,10.649990844726563,15.749991015625C10.559990844726563,15.829991015625,10.459990844726562,15.869991015625,10.349990844726562,15.869991015625L10.299990844726562,15.869991015625C10.069990844726563,15.849991015625,9.869990844726562,15.639991015625,9.859990844726562,15.419991015625C9.849990844726562,15.169991015625,9.849990844726562,14.899991015625,9.849990844726562,14.649991015625L9.849990844726562,14.009991015625L9.199990844726562,14.009991015625C8.949990844726562,14.009991015625,8.729990844726562,14.019991015625,8.499990844726563,14.009991015625C8.379990844726564,14.019991015625,8.249990844726563,13.969991015625,8.149990844726563,13.879991015625C8.059990844726563,13.789991015625,8.009990844726563,13.669991015625,8.009990844726563,13.549991015625C7.989990844726562,13.319991015625,8.189990844726562,13.079991015625,8.429990844726563,13.069991015625C8.689990844726562,13.049991015625,8.979990844726562,13.059991015625,9.229990844726562,13.059991015625L9.879990844726562,13.059991015625L9.879990844726562,12.169991015625L9.799990844726562,12.169991015625C9.609990844726562,12.159991015625,9.409990844726561,12.159991015625,9.239990844726563,12.169991015625C8.909990844726561,12.179991015625,8.589990844726563,12.189991015625,8.299990844726562,12.109991015625C8.079990844726563,12.029991015625,8.009990844726563,11.819991015625,8.009990844726563,11.669991015625C8.009990844726563,11.519991015625,8.089990844726563,11.309991015625,8.289990844726564,11.229991015625C8.519990844726562,11.169991015625,8.739990844726563,11.189991015625,8.979990844726562,11.199991015625C9.109990844726562,11.199991015625,9.269990844726562,11.209991015625,9.399990844726563,11.199991015625L9.419990844726563,11.199991015625L9.679990844726563,10.940011015625L9.619990844726562,10.880001015625C9.409990844726561,10.660011015625,9.189990844726562,10.450001015625,8.999990844726563,10.260001015625C8.719990844726563,9.980001015625,8.419990844726563,9.680011015625,8.119990844726562,9.370001015625C8.009990844726563,9.270001015625,7.979990844726562,9.130001015625,8.009990844726563,8.960001015625C8.049990844726562,8.780001015625,8.159990844726561,8.640001015625,8.319990844726561,8.590001015624999L8.329990844726563,8.590001015624999C8.529990844726562,8.490001015625001,8.769990844726562,8.620001015625,8.899990844726563,8.770001015624999L10.359990844726562,10.250001015625L10.419990844726563,10.190001015625L11.069990844726563,9.540001015625L11.099990844726562,9.510001015625C11.329990844726563,9.280001015625,11.559990844726563,9.040001015625,11.789990844726562,8.820001015625C12.009990844726563,8.590001015624999,12.189990844726562,8.530001015625,12.369990844726562,8.590001015624999C12.519990844726562,8.620001015625,12.659990844726563,8.770001015624999,12.699990844726562,8.930001015624999C12.739990844726563,9.080001015625,12.699990844726562,9.250001015625,12.589990844726563,9.350001015625C12.359990844726562,9.590001015625,12.119990844726562,9.830001015625,11.889990844726562,10.070001015625L11.869990844726562,10.090001015625C11.609990844726562,10.340001015625,11.339990844726563,10.620001015625,11.079990844726563,10.890001015625L11.039990844726562,10.930001015625L11.279990844726562,11.199991015625L11.279990844726562,11.199991015625Z" fill="#8492A6" fill-opacity="1"/></g></g></svg>