<?xml version="1.0" encoding="UTF-8"?>
<svg width="16px" height="16px" viewBox="0 0 16 16" version="1.1" xmlns="http://www.w3.org/2000/svg" xmlns:xlink="http://www.w3.org/1999/xlink">
    <!-- Generator: Sketch 44.1 (41455) - http://www.bohemiancoding.com/sketch -->
    <title>项目概览_hover</title>
    <desc>Created with Sketch.</desc>
    <defs></defs>
    <g id="页面" stroke="none" stroke-width="1" fill="none" fill-rule="evenodd">
        <g id="Artboard-2" transform="translate(-53.000000, -68.000000)" fill="#6699EE">
            <g id="Group-7" transform="translate(53.000000, 68.000000)">
                <path d="M0,2 L0,2 C-1.3527075e-16,0.8954305 0.8954305,2.02906125e-16 2,0 L2,0 L14,0 C15.1045695,-2.02906125e-16 16,0.8954305 16,2 L16,2 L16,13 C16,13.5522847 15.5522847,14 15,14 L11,14 L11.6381966,15.2763932 C11.6729105,15.3458209 11.690983,15.4223775 11.690983,15.5 C11.690983,15.7761424 11.4671254,16 11.190983,16 L4.80901699,16 C4.73139445,16 4.65483791,15.9819275 4.5854102,15.9472136 C4.33842095,15.823719 4.23830877,15.5233825 4.3618034,15.2763932 L4.3618034,15.2763932 L5,14 L1,14 C0.44771525,14 6.76353751e-17,13.5522847 0,13 L0,2 Z M8.90399547,9.58058013 L13.4938785,5.56443252 L12.5061215,4.43556748 L9.09600453,7.41941987 L7.09600453,4.91941987 L2.50612154,8.93556748 L3.49387846,10.0644325 L6.90399547,7.08058013 L8.90399547,9.58058013 Z" id="Combined-Shape"></path>
            </g>
        </g>
    </g>
</svg>