<?xml version="1.0" encoding="UTF-8"?>
<svg width="16px" height="16px" viewBox="0 0 16 16" version="1.1" xmlns="http://www.w3.org/2000/svg" xmlns:xlink="http://www.w3.org/1999/xlink">
    <!-- Generator: Sketch 48.2 (47327) - http://www.bohemiancoding.com/sketch -->
    <title>查看位置</title>
    <desc>Created with Sketch.</desc>
    <defs></defs>
    <g id="Artboard-4" stroke="none" stroke-width="1" fill="none" fill-rule="evenodd" transform="translate(-427.000000, -425.000000)">
        <g id="Group-20" transform="translate(429.000000, 425.000000)">
            <path d="M7.33019734,11.7058058 C6.57196662,12.3811249 5.42803171,12.3811249 4.66980172,11.7058049 C1.88993391,9.22991182 0.5,7.12689578 0.5,5.39675678 C0.5,2.41621031 2.96243388,0 6,0 C9.03756612,0 11.5,2.41621031 11.5,5.39675678 C11.5,7.12689597 10.1100658,9.2299123 7.33019734,11.7058058 Z M6,7.33333333 C7.01252204,7.33333333 7.83333333,6.51252204 7.83333333,5.5 C7.83333333,4.48747796 7.01252204,3.66666667 6,3.66666667 C4.98747796,3.66666667 4.16666667,4.48747796 4.16666667,5.5 C4.16666667,6.51252204 4.98747796,7.33333333 6,7.33333333 Z" id="Combined-Shape" fill="#6699EE"></path>
            <path d="M2.37153212,11 L0.630162845,12.8058644 C0.246802355,13.2034235 0.258312543,13.8364838 0.65587157,14.2198443 C0.842255404,14.3995716 1.09108471,14.5 1.35000714,14.5 L10.593503,14.5 C11.1457878,14.5 11.593503,14.0522847 11.593503,13.5 C11.593503,13.2974113 11.5319711,13.0996003 11.4170543,12.9327581 L10.0858178,11" id="Path-6" stroke="#6699EE" stroke-width="2"></path>
        </g>
    </g>
</svg>