<?xml version="1.0" encoding="UTF-8"?>
<svg width="140px" height="140px" viewBox="0 0 140 140" version="1.1" xmlns="http://www.w3.org/2000/svg" xmlns:xlink="http://www.w3.org/1999/xlink">
    <!-- Generator: Sketch 47.1 (45422) - http://www.bohemiancoding.com/sketch -->
    <title>添加</title>
    <desc>Created with Sketch.</desc>
    <defs>
        <rect id="path-1" x="0" y="0" width="140" height="140" rx="2"></rect>
    </defs>
    <g id="客户确认_1.1" stroke="none" stroke-width="1" fill="none" fill-rule="evenodd">
        <g id="Artboard" transform="translate(-156.000000, -104.000000)">
            <g id="Group" transform="translate(156.000000, 104.000000)">
                <g id="Base">
                    <use fill="#F9FAFC" fill-rule="evenodd" xlink:href="#path-1"></use>
                    <rect stroke="#E0E6ED" stroke-width="1" x="0.5" y="0.5" width="139" height="139" rx="2"></rect>
                </g>
                <path d="M68,68 L48.0013893,68 C46.8949384,68 46,68.8954305 46,70 C46,71.1122704 46.8960525,72 48.0013893,72 L68,72 L68,91.9986107 C68,93.1050616 68.8954305,94 70,94 C71.1122704,94 72,93.1039475 72,91.9986107 L72,72 L91.9986107,72 C93.1050616,72 94,71.1045695 94,70 C94,68.8877296 93.1039475,68 91.9986107,68 L72,68 L72,48.0013893 C72,46.8949384 71.1045695,46 70,46 C68.8877296,46 68,46.8960525 68,48.0013893 L68,68 Z" id="icon-add" fill="#C0CCDA"></path>
            </g>
        </g>
    </g>
</svg>