<?xml version="1.0" encoding="UTF-8"?>
<svg width="12px" height="14px" viewBox="0 0 12 14" version="1.1" xmlns="http://www.w3.org/2000/svg" xmlns:xlink="http://www.w3.org/1999/xlink">
    <!-- Generator: Sketch 45.1 (43504) - http://www.bohemiancoding.com/sketch -->
    <title>坐标</title>
    <desc>Created with Sketch.</desc>
    <defs></defs>
    <g id="1.1_页面" stroke="none" stroke-width="1" fill="none" fill-rule="evenodd" opacity="0.699999988">
        <g id="Artboard-2" transform="translate(-185.000000, -105.000000)" stroke="#F5974E" fill="#FFAA00">
            <path d="M192.297915,116.668345 C192.273229,116.694397 192.247847,116.719779 192.221795,116.744465 C191.420009,117.504211 190.154138,117.470131 189.394392,116.668345 L189.394392,116.668345 C187.131464,114.280199 186,112.339469 186,110.846154 C186,108.169697 188.169697,106 190.846154,106 C193.522611,106 195.692308,108.169697 195.692308,110.846154 C195.692308,112.339469 194.560844,114.280199 192.297915,116.668345 Z M190.846154,112.923077 C191.993207,112.923077 192.923077,111.993207 192.923077,110.846154 C192.923077,109.699101 191.993207,108.769231 190.846154,108.769231 C189.699101,108.769231 188.769231,109.699101 188.769231,110.846154 C188.769231,111.993207 189.699101,112.923077 190.846154,112.923077 Z" id="Combined-Shape"></path>
        </g>
    </g>
</svg>