<?xml version="1.0" encoding="UTF-8"?>
<svg width="13px" height="16px" viewBox="0 0 13 16" version="1.1" xmlns="http://www.w3.org/2000/svg" xmlns:xlink="http://www.w3.org/1999/xlink">
    <!-- Generator: Sketch 46.2 (44496) - http://www.bohemiancoding.com/sketch -->
    <title>坐标</title>
    <desc>Created with Sketch.</desc>
    <defs></defs>
    <g id="Page-1" stroke="none" stroke-width="1" fill="none" fill-rule="evenodd">
        <g id="Artboard" transform="translate(-172.000000, -47.000000)" fill="#99A9BF">
            <path d="M180.017191,62.2960971 C179.951346,62.3727594 179.879784,62.4443208 179.803122,62.5101664 C178.965206,63.2298558 177.702517,63.1340139 176.982827,62.2960974 L176.982817,62.2961065 C173.660939,58.4285271 172,55.4631583 172,53.4 C172,49.8653776 174.910149,47 178.5,47 C182.089851,47 185,49.8653776 185,53.4 C185,55.4631566 183.339064,58.4285223 180.017191,62.2960971 Z M178.5,56 C179.880712,56 181,54.8807119 181,53.5 C181,52.1192881 179.880712,51 178.5,51 C177.119288,51 176,52.1192881 176,53.5 C176,54.8807119 177.119288,56 178.5,56 Z" id="Combined-Shape"></path>
        </g>
    </g>
</svg>