<?xml version="1.0" encoding="UTF-8"?>
<svg width="12px" height="14px" viewBox="0 0 12 14" version="1.1" xmlns="http://www.w3.org/2000/svg" xmlns:xlink="http://www.w3.org/1999/xlink">
    <!-- Generator: Sketch 45.1 (43504) - http://www.bohemiancoding.com/sketch -->
    <title>未设置考勤地点</title>
    <desc>Created with Sketch.</desc>
    <defs></defs>
    <g id="1.1_页面" stroke="none" stroke-width="1" fill="none" fill-rule="evenodd" opacity="0.300000012">
        <g id="Artboard-2" transform="translate(-201.000000, -105.000000)" stroke="#F5974E" fill="#FFAA00">
            <path d="M208.297915,116.668345 C208.273229,116.694397 208.247847,116.719779 208.221795,116.744465 C207.420009,117.504211 206.154138,117.470131 205.394392,116.668345 L205.394392,116.668345 C203.131464,114.280199 202,112.339469 202,110.846154 C202,108.169697 204.169697,106 206.846154,106 C209.522611,106 211.692308,108.169697 211.692308,110.846154 C211.692308,112.339469 210.560844,114.280199 208.297915,116.668345 Z M206.846154,112.923077 C207.993207,112.923077 208.923077,111.993207 208.923077,110.846154 C208.923077,109.699101 207.993207,108.769231 206.846154,108.769231 C205.699101,108.769231 204.769231,109.699101 204.769231,110.846154 C204.769231,111.993207 205.699101,112.923077 206.846154,112.923077 Z" id="Combined-Shape"></path>
        </g>
    </g>
</svg>