<?xml version="1.0" encoding="UTF-8"?>
<svg width="24px" height="24px" viewBox="0 0 24 24" version="1.1" xmlns="http://www.w3.org/2000/svg" xmlns:xlink="http://www.w3.org/1999/xlink">
    <!-- Generator: Sketch 47.1 (45422) - http://www.bohemiancoding.com/sketch -->
    <title>删除</title>
    <desc>Created with Sketch.</desc>
    <defs></defs>
    <g id="客户确认_1.1" stroke="none" stroke-width="1" fill="none" fill-rule="evenodd" fill-opacity="0.9">
        <g id="Artboard" transform="translate(-333.000000, -162.000000)" fill="#FFFFFF">
            <path d="M342,171.5 L342,180.5 C342,180.645833 341.953125,180.765625 341.859375,180.859375 C341.765625,180.953125 341.645833,181 341.5,181 L340.5,181 C340.354167,181 340.234375,180.953125 340.140625,180.859375 C340.046875,180.765625 340,180.645833 340,180.5 L340,171.5 C340,171.354167 340.046875,171.234375 340.140625,171.140625 C340.234375,171.046875 340.354167,171 340.5,171 L341.5,171 C341.645833,171 341.765625,171.046875 341.859375,171.140625 C341.953125,171.234375 342,171.354167 342,171.5 L342,171.5 Z M346,171.5 L346,180.5 C346,180.645833 345.953125,180.765625 345.859375,180.859375 C345.765625,180.953125 345.645833,181 345.5,181 L344.5,181 C344.354167,181 344.234375,180.953125 344.140625,180.859375 C344.046875,180.765625 344,180.645833 344,180.5 L344,171.5 C344,171.354167 344.046875,171.234375 344.140625,171.140625 C344.234375,171.046875 344.354167,171 344.5,171 L345.5,171 C345.645833,171 345.765625,171.046875 345.859375,171.140625 C345.953125,171.234375 346,171.354167 346,171.5 L346,171.5 Z M350,171.5 L350,180.5 C350,180.645833 349.953125,180.765625 349.859375,180.859375 C349.765625,180.953125 349.645833,181 349.5,181 L348.5,181 C348.354167,181 348.234375,180.953125 348.140625,180.859375 C348.046875,180.765625 348,180.645833 348,180.5 L348,171.5 C348,171.354167 348.046875,171.234375 348.140625,171.140625 C348.234375,171.046875 348.354167,171 348.5,171 L349.5,171 C349.645833,171 349.765625,171.046875 349.859375,171.140625 C349.953125,171.234375 350,171.354167 350,171.5 L350,171.5 Z M352,182.8125 L352,168 L338,168 L338,182.8125 C338,183.041667 338.036458,183.252604 338.109375,183.445312 C338.182292,183.638021 338.257813,183.778646 338.335938,183.867187 C338.414063,183.955729 338.46875,184 338.5,184 L351.5,184 C351.53125,184 351.585937,183.955729 351.664062,183.867187 C351.742187,183.778646 351.817708,183.638021 351.890625,183.445312 C351.963542,183.252604 352,183.041667 352,182.8125 L352,182.8125 Z M341.5,166 L348.5,166 L347.75,164.171875 C347.677083,164.078125 347.588542,164.020833 347.484375,164 L342.53125,164 C342.427083,164.020833 342.338542,164.078125 342.265625,164.171875 L341.5,166 Z M356,166.5 L356,167.5 C356,167.645833 355.953125,167.765625 355.859375,167.859375 C355.765625,167.953125 355.645833,168 355.5,168 L354,168 L354,182.8125 C354,183.677083 353.755208,184.424479 353.265625,185.054687 C352.776042,185.684896 352.1875,186 351.5,186 L338.5,186 C337.8125,186 337.223958,185.695313 336.734375,185.085938 C336.244792,184.476563 336,183.739583 336,182.875 L336,168 L334.5,168 C334.354167,168 334.234375,167.953125 334.140625,167.859375 C334.046875,167.765625 334,167.645833 334,167.5 L334,166.5 C334,166.354167 334.046875,166.234375 334.140625,166.140625 C334.234375,166.046875 334.354167,166 334.5,166 L339.328125,166 L340.421875,163.390625 C340.578125,163.005208 340.859375,162.677083 341.265625,162.40625 C341.671875,162.135417 342.083333,162 342.5,162 L347.5,162 C347.916667,162 348.328125,162.135417 348.734375,162.40625 C349.140625,162.677083 349.421875,163.005208 349.578125,163.390625 L350.671875,166 L355.5,166 C355.645833,166 355.765625,166.046875 355.859375,166.140625 C355.953125,166.234375 356,166.354167 356,166.5 L356,166.5 Z" id="action-icon-3"></path>
        </g>
    </g>
</svg>