<?xml version="1.0" encoding="UTF-8"?>
<svg width="9px" height="15px" viewBox="0 0 9 15" version="1.1" xmlns="http://www.w3.org/2000/svg" xmlns:xlink="http://www.w3.org/1999/xlink">
    <!-- Generator: Sketch 46.2 (44496) - http://www.bohemiancoding.com/sketch -->
    <title>拖拽</title>
    <desc>Created with Sketch.</desc>
    <defs></defs>
    <g id="Page-1" stroke="none" stroke-width="1" fill="none" fill-rule="evenodd">
        <g id="Artboard" transform="translate(-144.000000, -48.000000)" fill="#99A9BF">
            <path d="M145.5,51 C144.671573,51 144,50.3284271 144,49.5 C144,48.6715729 144.671573,48 145.5,48 C146.328427,48 147,48.6715729 147,49.5 C147,50.3284271 146.328427,51 145.5,51 Z M151.5,51 C150.671573,51 150,50.3284271 150,49.5 C150,48.6715729 150.671573,48 151.5,48 C152.328427,48 153,48.6715729 153,49.5 C153,50.3284271 152.328427,51 151.5,51 Z M145.5,55 C144.671573,55 144,54.3284271 144,53.5 C144,52.6715729 144.671573,52 145.5,52 C146.328427,52 147,52.6715729 147,53.5 C147,54.3284271 146.328427,55 145.5,55 Z M151.5,55 C150.671573,55 150,54.3284271 150,53.5 C150,52.6715729 150.671573,52 151.5,52 C152.328427,52 153,52.6715729 153,53.5 C153,54.3284271 152.328427,55 151.5,55 Z M145.5,59 C144.671573,59 144,58.3284271 144,57.5 C144,56.6715729 144.671573,56 145.5,56 C146.328427,56 147,56.6715729 147,57.5 C147,58.3284271 146.328427,59 145.5,59 Z M151.5,59 C150.671573,59 150,58.3284271 150,57.5 C150,56.6715729 150.671573,56 151.5,56 C152.328427,56 153,56.6715729 153,57.5 C153,58.3284271 152.328427,59 151.5,59 Z M145.5,63 C144.671573,63 144,62.3284271 144,61.5 C144,60.6715729 144.671573,60 145.5,60 C146.328427,60 147,60.6715729 147,61.5 C147,62.3284271 146.328427,63 145.5,63 Z M151.5,63 C150.671573,63 150,62.3284271 150,61.5 C150,60.6715729 150.671573,60 151.5,60 C152.328427,60 153,60.6715729 153,61.5 C153,62.3284271 152.328427,63 151.5,63 Z" id="Combined-Shape"></path>
        </g>
    </g>
</svg>