<?xml version="1.0" encoding="UTF-8"?>
<svg width="14px" height="13px" viewBox="0 0 14 13" version="1.1" xmlns="http://www.w3.org/2000/svg" xmlns:xlink="http://www.w3.org/1999/xlink">
    <!-- Generator: Sketch 47.1 (45422) - http://www.bohemiancoding.com/sketch -->
    <title>附件</title>
    <desc>Created with Sketch.</desc>
    <defs></defs>
    <g id="Page-1" stroke="none" stroke-width="1" fill="none" fill-rule="evenodd">
        <g id="Artboard" transform="translate(-162.000000, -36.000000)" fill="#5E6D82">
            <g id="Shape" transform="translate(163.000000, 36.000000)">
                <path d="M2.00088272,4.60873115 L5.47622308,1.33501998 C7.16424554,-0.2550683 9.64663152,-0.442137508 11.0367677,0.867346959 C12.4269038,2.17683143 12.3276084,4.60873115 10.6395859,6.19881944 L6.96432093,9.56615095 C5.97136654,10.501497 4.48193495,10.6885662 3.588276,9.84675477 C2.79391249,9.09847793 2.89320793,7.59545886 3.88616232,6.5665782 L7.66138961,3.09924668 C7.95927593,2.81864287 8.55571543,2.72510826 8.85360175,3.00571208 C9.15148806,3.28631589 8.95223032,3.85398892 8.654344,4.13459273 L4.87911671,7.60192425 C4.58123039,7.88252807 4.19422736,8.39245605 4.57989665,8.83080491 C5.10977569,9.34619141 5.57418478,8.81787412 5.8720711,8.5372703 L9.54733608,5.16993878 C10.5402905,4.23459273 10.8381768,2.73803906 9.94451784,1.89622761 C9.15015433,1.14795077 7.5614273,1.33501998 6.46917747,2.27036603 L2.99383711,5.5440772 C1.30581465,7.13416548 1.00792833,9.4725306 2.39806448,10.7820151 C3.78820062,12.0914995 6.27058659,11.8108957 7.95860906,10.2208074 L10.6402226,7.69623054 C10.938109,7.41562673 11.4345862,7.32209212 11.7324725,7.60269594 C12.0303588,7.88329975 11.9310633,8.35097278 11.633177,8.63157659 L8.95156345,11.1561535 C6.85264893,13.1836466 3.78820062,13.6498056 1.50440553,11.9978792 C-0.746414367,10.2208073 -0.382207818,6.85356167 2.00088272,4.60873115 Z"></path>
            </g>
        </g>
    </g>
</svg>