<?xml version="1.0" encoding="UTF-8"?>
<svg width="153px" height="30px" viewBox="0 0 153 30" version="1.1" xmlns="http://www.w3.org/2000/svg" xmlns:xlink="http://www.w3.org/1999/xlink">
    <!-- Generator: Sketch 47.1 (45422) - http://www.bohemiancoding.com/sketch -->
    <title>LOGO</title>
    <desc>Created with Sketch.</desc>
    <defs></defs>
    <g id="最新导航" stroke="none" stroke-width="1" fill="none" fill-rule="evenodd">
        <g id="Artboard" transform="translate(-13.000000, -15.000000)">
            <g id="Group-2" transform="translate(13.000000, 15.000000)">
                <rect id="Rectangle" fill="#D8D8D8" opacity="0" x="0" y="0" width="153" height="30"></rect>
                <g id="Page-1">
                    <g id="Group-3">
                        <path d="M29.4874571,4.32071429 C28.8431714,2.551 27.4491714,1.15671429 25.6791714,0.512428571 C24.0583143,-0.000142857143 22.5523143,-0.000142857143 19.5406,-0.000142857143 L10.4591714,-0.000142857143 C7.44745714,-0.000142857143 5.94174286,-0.000142857143 4.32088571,0.512428571 C2.55088571,1.15671429 1.1566,2.551 0.5126,4.32071429 C2.85714286e-05,5.94185714 2.85714286e-05,7.44757143 2.85714286e-05,10.4592857 L2.85714286e-05,19.5407143 C2.85714286e-05,22.5524286 2.85714286e-05,24.0581429 0.5126,25.6792857 C1.1566,27.449 2.55088571,28.8432857 4.32088571,29.4872857 C5.94174286,29.9998571 7.44745714,29.9998571 10.4591714,29.9998571 L19.5406,29.9998571 C22.5523143,29.9998571 24.0583143,29.9998571 25.6791714,29.4872857 C27.4491714,28.8432857 28.8431714,27.449 29.4874571,25.6792857 C30.0000286,24.0581429 30.0000286,22.5524286 30.0000286,19.5407143 L30.0000286,10.4592857 C30.0000286,7.44757143 30.0000286,5.94185714 29.4874571,4.32071429" id="Fill-1" fill="#FFCC00"></path>
                        <path d="M17.1679714,15.7031143 C17.4916857,15.7031143 17.7539714,15.9654 17.7539714,16.2891143 C17.7539714,16.8405429 18.0262571,17.3282571 18.4436857,17.6256857 L18.4399714,17.6308286 L20.6885429,19.2051143 C21.9608286,20.0962571 22.2702571,21.8499714 21.3794,23.1222571 C20.4882571,24.3945429 18.7345429,24.7039714 17.4622571,23.8128286 C17.1971143,23.6274 17.1328286,23.2619714 17.3182571,22.9968286 C17.5039714,22.7316857 17.8691143,22.6674 18.1342571,22.8531143 C18.8765429,23.3728286 19.8996857,23.1922571 20.4194,22.4502571 C20.9391143,21.7079714 20.7585429,20.6848286 20.0165429,20.1651143 L17.7482571,18.5768286 L17.7488286,18.5762571 C17.0419714,18.0622571 16.5819714,17.2296857 16.5819714,16.2891143 L16.5819714,16.2891143 C16.5819714,15.9654 16.8442571,15.7031143 17.1679714,15.7031143 M17.3436857,12.0702571 C17.3436857,11.7465429 17.6059714,11.4842571 17.9296857,11.4842571 C18.2534,11.4842571 18.5156857,11.7465429 18.5156857,12.0702571 C18.5156857,12.3939714 18.2534,12.6562571 17.9296857,12.6562571 C17.6059714,12.6562571 17.3436857,12.3939714 17.3436857,12.0702571 M14.9999714,16.1719714 C15.3236857,16.1719714 15.5859714,16.4342571 15.5859714,16.7576857 L15.5859714,23.3202571 C15.5859714,23.6439714 15.3236857,23.9062571 14.9999714,23.9062571 C14.6765429,23.9062571 14.4139714,23.6439714 14.4139714,23.3202571 L14.4139714,16.7576857 C14.4139714,16.4342571 14.6765429,16.1719714 14.9999714,16.1719714 M13.8574,12.6854 C14.0516857,12.6854 14.2088286,12.8428286 14.2088286,13.0371143 C14.2088286,13.4739714 14.5631143,13.8282571 14.9999714,13.8282571 C15.4368286,13.8282571 15.7911143,13.4739714 15.7911143,13.0371143 C15.7911143,12.8428286 15.9485429,12.6854 16.1425429,12.6854 C16.3368286,12.6854 16.4942571,12.8428286 16.4942571,13.0371143 C16.4942571,13.8622571 15.8251143,14.5311143 14.9999714,14.5311143 C14.1748286,14.5311143 13.5059714,13.8622571 13.5059714,13.0371143 C13.5059714,12.8428286 13.6634,12.6854 13.8574,12.6854 M9.3114,19.2051143 L11.5599714,17.6308286 L11.5562571,17.6256857 C11.9736857,17.3282571 12.2462571,16.8405429 12.2462571,16.2891143 C12.2462571,15.9654 12.5085429,15.7031143 12.8319714,15.7031143 C13.1556857,15.7031143 13.4179714,15.9654 13.4179714,16.2891143 C13.4179714,17.2296857 12.9579714,18.0622571 12.2514,18.5762571 L12.2516857,18.5768286 L9.98368571,20.1651143 C9.2414,20.6848286 9.06082857,21.7079714 9.58054286,22.4502571 C10.1002571,23.1922571 11.1234,23.3728286 11.8656857,22.8531143 C12.1308286,22.6674 12.4959714,22.7316857 12.6816857,22.9968286 C12.8674,23.2619714 12.8028286,23.6274 12.5376857,23.8128286 C11.2654,24.7039714 9.51168571,24.3945429 8.62082857,23.1222571 C7.72968571,21.8499714 8.03911429,20.0962571 9.3114,19.2051143 M11.4842571,12.0702571 C11.4842571,11.7465429 11.7465429,11.4842571 12.0702571,11.4842571 C12.3939714,11.4842571 12.6562571,11.7465429 12.6562571,12.0702571 C12.6562571,12.3939714 12.3939714,12.6562571 12.0702571,12.6562571 C11.7465429,12.6562571 11.4842571,12.3939714 11.4842571,12.0702571 M24.0234,19.6874 C23.6996857,19.6874 23.4374,19.4251143 23.4374,19.1014 C23.4374,18.7779714 23.6996857,18.5156857 24.0234,18.5156857 C24.3471143,18.5156857 24.6094,18.2534 24.6094,17.9296857 C24.6094,17.6059714 24.3471143,17.3436857 24.0234,17.3436857 L20.5662571,17.3436857 L20.5662571,17.3434 C20.5611143,17.3434 20.5556857,17.3436857 20.5505429,17.3436857 C19.2959714,17.3436857 18.2716857,16.3579714 18.2096857,15.1188286 C18.2076857,15.0796857 18.2065429,15.0399714 18.2065429,14.9999714 C18.2065429,14.9671143 18.2074,14.9345429 18.2088286,14.9022571 C18.2091143,14.8916857 18.2099714,14.8811143 18.2105429,14.8708286 C18.2116857,14.8488286 18.2131143,14.8268286 18.2148286,14.8051143 C18.2156857,14.7931143 18.2171143,14.7808286 18.2182571,14.7685429 C18.2202571,14.7488286 18.2222571,14.7288286 18.2248286,14.7088286 C18.2262571,14.6962571 18.2279714,14.6839714 18.2299714,14.6714 C18.2325429,14.6519714 18.2356857,14.6325429 18.2388286,14.6131143 C18.2408286,14.6011143 18.2428286,14.5888286 18.2451143,14.5768286 C18.2488286,14.5568286 18.2525429,14.5371143 18.2568286,14.5174 C18.2591143,14.5062571 18.2614,14.4948286 18.2639714,14.4836857 C18.2688286,14.4625429 18.2739714,14.4414 18.2794,14.4202571 C18.2816857,14.4108286 18.2839714,14.4016857 18.2862571,14.3925429 C18.2934,14.3656857 18.3011143,14.3391143 18.3094,14.3128286 C18.3102571,14.3094 18.3111143,14.3059714 18.3122571,14.3025429 C18.3219714,14.2716857 18.3319714,14.2411143 18.3428286,14.2108286 C18.3434,14.2096857 18.3436857,14.2088286 18.3442571,14.2076857 C18.3542571,14.1794 18.3651143,14.1514 18.3762571,14.1234 C18.3788286,14.1168286 18.3816857,14.1105429 18.3845429,14.1042571 C18.3936857,14.0816857 18.4034,14.0594 18.4131143,14.0374 C18.4165429,14.0296857 18.4202571,14.0219714 18.4239714,14.0145429 C18.4336857,13.9936857 18.4434,13.9728286 18.4536857,13.9522571 C18.4576857,13.9445429 18.4614,13.9368286 18.4654,13.9294 C18.4759714,13.9088286 18.4868286,13.8882571 18.4982571,13.8682571 C18.5019714,13.8611143 18.5059714,13.8542571 18.5096857,13.8474 C18.5219714,13.8259714 18.5345429,13.8045429 18.5471143,13.7836857 C18.5505429,13.7782571 18.5536857,13.7728286 18.5568286,13.7676857 C18.5722571,13.7431143 18.5876857,13.7188286 18.6039714,13.6948286 C18.6048286,13.6931143 18.6059714,13.6916857 18.6068286,13.6902571 C18.6428286,13.6371143 18.6808286,13.5856857 18.7208286,13.5356857 L18.7208286,13.5351143 L18.7202571,13.5351143 C18.7325429,13.5208286 18.7445429,13.5062571 18.7568286,13.4919714 C18.7631143,13.4845429 18.7694,13.4771143 18.7756857,13.4696857 C19.4911143,12.6151143 19.9219714,11.5142571 19.9219714,10.3125429 C19.9219714,7.59425714 17.7182571,5.39054286 14.9999714,5.39054286 C12.2816857,5.39054286 10.0782571,7.59425714 10.0782571,10.3125429 C10.0782571,11.5142571 10.5088286,12.6151143 11.2242571,13.4696857 C11.2305429,13.4771143 11.2368286,13.4845429 11.2431143,13.4919714 C11.2554,13.5062571 11.2674,13.5208286 11.2796857,13.5351143 L11.2794,13.5351143 L11.2794,13.5356857 C11.3194,13.5856857 11.3574,13.6371143 11.3931143,13.6902571 C11.3942571,13.6916857 11.3951143,13.6931143 11.3959714,13.6948286 C11.4122571,13.7188286 11.4276857,13.7431143 11.4431143,13.7676857 C11.4462571,13.7728286 11.4496857,13.7782571 11.4528286,13.7836857 C11.4656857,13.8045429 11.4779714,13.8259714 11.4902571,13.8474 C11.4942571,13.8542571 11.4979714,13.8611143 11.5019714,13.8682571 C11.5131143,13.8882571 11.5239714,13.9088286 11.5345429,13.9294 C11.5385429,13.9368286 11.5422571,13.9445429 11.5462571,13.9522571 C11.5565429,13.9728286 11.5665429,13.9936857 11.5762571,14.0145429 C11.5796857,14.0219714 11.5834,14.0296857 11.5868286,14.0374 C11.5968286,14.0594 11.6062571,14.0816857 11.6156857,14.1042571 C11.6182571,14.1105429 11.6211143,14.1168286 11.6236857,14.1234 C11.6348286,14.1514 11.6456857,14.1794 11.6556857,14.2076857 C11.6562571,14.2088286 11.6565429,14.2096857 11.6571143,14.2108286 C11.6679714,14.2411143 11.6779714,14.2716857 11.6876857,14.3025429 C11.6888286,14.3059714 11.6896857,14.3094 11.6905429,14.3128286 C11.6988286,14.3391143 11.7065429,14.3656857 11.7136857,14.3925429 C11.7159714,14.4016857 11.7182571,14.4108286 11.7205429,14.4202571 C11.7259714,14.4414 11.7314,14.4625429 11.7359714,14.4836857 C11.7385429,14.4948286 11.7408286,14.5062571 11.7431143,14.5174 C11.7474,14.5371143 11.7511143,14.5568286 11.7548286,14.5768286 C11.7571143,14.5888286 11.7591143,14.6011143 11.7611143,14.6131143 C11.7645429,14.6325429 11.7674,14.6519714 11.7702571,14.6714 C11.7719714,14.6839714 11.7736857,14.6962571 11.7751143,14.7088286 C11.7776857,14.7288286 11.7796857,14.7488286 11.7816857,14.7685429 C11.7828286,14.7808286 11.7842571,14.7931143 11.7851143,14.8051143 C11.7868286,14.8268286 11.7882571,14.8488286 11.7894,14.8708286 C11.7899714,14.8811143 11.7908286,14.8916857 11.7914,14.9022571 C11.7925429,14.9345429 11.7934,14.9671143 11.7934,14.9999714 C11.7934,15.0399714 11.7922571,15.0796857 11.7902571,15.1188286 C11.7285429,16.3579714 10.7039714,17.3436857 9.44968571,17.3436857 C9.44425714,17.3436857 9.43882857,17.3434 9.43368571,17.3434 L9.43368571,17.3436857 L5.97654286,17.3436857 C5.65282857,17.3436857 5.39054286,17.6059714 5.39054286,17.9296857 C5.39054286,18.2534 5.65282857,18.5156857 5.97654286,18.5156857 C6.30025714,18.5156857 6.56254286,18.7779714 6.56254286,19.1014 C6.56254286,19.4251143 6.30025714,19.6874 5.97654286,19.6874 C5.00568571,19.6874 4.21882857,18.9005429 4.21882857,17.9296857 C4.21882857,16.9588286 5.00568571,16.1719714 5.97654286,16.1719714 L9.43368571,16.1719714 L9.43368571,16.1714 C9.43882857,16.1716857 9.44425714,16.1719714 9.44968571,16.1719714 C10.0968286,16.1719714 10.6214,15.6471143 10.6214,14.9999714 C10.6214,14.7099714 10.5156857,14.4445429 10.3411143,14.2399714 C9.44597143,13.1794 8.90625714,11.8091143 8.90625714,10.3125429 C8.90625714,6.94711429 11.6345429,4.21882857 14.9999714,4.21882857 C18.3654,4.21882857 21.0936857,6.94711429 21.0936857,10.3125429 C21.0936857,11.8091143 20.5539714,13.1794 19.6588286,14.2399714 C19.4842571,14.4445429 19.3785429,14.7099714 19.3785429,14.9999714 C19.3785429,15.6471143 19.9031143,16.1719714 20.5505429,16.1719714 C20.5556857,16.1719714 20.5611143,16.1716857 20.5662571,16.1714 L20.5662571,16.1719714 L24.0234,16.1719714 C24.9942571,16.1719714 25.7811143,16.9588286 25.7811143,17.9296857 C25.7811143,18.9005429 24.9942571,19.6874 24.0234,19.6874" id="Fill-4" fill="#161619"></path>
                    </g>
                    <path d="M38.5724286,8.2792 C38.8555714,8.44948571 39.3087143,8.73377143 39.9335714,9.13005714 C42.1455714,10.4912 43.6767143,11.4560571 44.5275714,12.0223429 L46.5692857,9.21491429 C44.3001429,7.74091429 42.3155714,6.54977143 40.6141429,5.64205714 L38.5724286,8.2792 Z M35.9352857,12.9583429 C38.8275714,14.7169143 40.8692857,15.9929143 42.0604286,16.7866286 L44.1021429,13.9792 C42.1161429,12.7323429 40.0467143,11.5120571 37.8918571,10.3209143 L35.9352857,12.9583429 Z M46.9095714,16.8714857 L34.9992857,17.8074857 L35.3395714,21.2954857 L46.9095714,20.2746286 L46.9095714,25.1237714 L50.6527143,25.1237714 L50.6527143,19.9343429 L55.5021429,19.5940571 L55.2467143,16.1060571 L50.6527143,16.5312 L50.6527143,4.87634286 L46.9095714,4.87634286 L46.9095714,16.8714857 Z" id="Fill-6" fill="#FFFFFF"></path>
                    <path d="M69.5391143,9.72545714 L72.0914,11.9374571 C72.8848286,11.2008857 74.2459714,9.8106 76.1748286,7.76888571 L73.2822571,5.72688571 C72.7719714,6.40745714 71.5236857,7.74088571 69.5391143,9.72545714 L69.5391143,9.72545714 Z M57.8839714,8.02402857 C58.6776857,8.8746 59.9536857,10.2357429 61.7122571,12.1074571 L64.4348286,9.72545714 C63.2436857,8.4786 61.9105429,7.2026 60.4362571,5.89717143 L57.8839714,8.02402857 Z M65.2002571,12.4477429 L57.2034,12.4477429 L57.2034,15.6806 L63.8391143,15.6806 C62.1934,17.6666 59.7556857,19.4531714 56.5228286,21.0403143 C57.2034,22.0051714 57.8548286,23.0528857 58.4796857,24.1880286 C61.4851143,22.4863143 63.7248286,20.6720286 65.2002571,18.7431714 L65.2002571,25.1237429 L68.7734,25.1237429 L68.7734,18.8283143 C70.2476857,20.7571714 72.5165429,22.4306 75.5794,23.8477429 C75.7494,23.4503143 76.2028286,22.5714571 76.9405429,21.2103143 C77.1665429,20.9271714 77.3088286,20.7000286 77.3659714,20.5297429 C74.1888286,19.3960286 71.7216857,17.7794571 69.9645429,15.6806 L76.7702571,15.6806 L76.7702571,12.4477429 L68.7734,12.4477429 L68.7734,4.87631429 L65.2002571,4.87631429 L65.2002571,12.4477429 Z" id="Fill-8" fill="#FFFFFF"></path>
                    <polygon id="Fill-10" fill="#FFFFFF" points="82.4277143 19.1428571 82.9994286 19.1428571 82.9994286 10.8571429 82.4277143 10.8571429"></polygon>
                    <path d="M89.9185714,8.56485714 L106.322,8.56485714 L106.322,6.29371429 L89.9185714,6.29371429 L89.9185714,8.56485714 Z M88.152,14.7897143 L88.152,12.5185714 L108.256571,12.5185714 L108.256571,14.7897143 L98.1622857,14.7897143 C96.7602857,16.7534286 95.0217143,18.9405714 92.9468571,21.3511429 C94.7974286,21.3511429 98.022,21.2388571 102.620571,21.0145714 C101.723429,19.7248571 100.798,18.5471429 99.8445714,17.4814286 L101.779429,16.3037143 C102.620571,17.258 103.910571,18.8274286 105.648857,21.0145714 C106.546286,22.1371429 107.191143,22.8931429 107.583714,23.2857143 L105.480571,24.6317143 L104.218857,22.9494286 C102.312286,23.0045714 99.2837143,23.1457143 95.134,23.37 C94.2365714,23.4251429 93.5637143,23.454 93.1151429,23.454 C92.0494286,23.5091429 91.1242857,23.6222857 90.3391429,23.7905714 L89.2454286,21.5194286 C89.9745714,21.1277143 90.7037143,20.5097143 91.4325714,19.6685714 C92.7785714,18.0994286 93.9842857,16.472 95.0497143,14.7897143 L88.152,14.7897143 Z" id="Fill-12" fill="#FFFFFF"></path>
                    <path d="M124.586371,15.2103143 L122.904086,13.7803143 C124.1378,12.5474571 125.427514,11.0603143 126.773514,9.32202857 L128.540086,10.5837429 C127.250086,12.2108857 125.932371,13.7523143 124.586371,15.2103143 L124.586371,15.2103143 Z M115.333229,15.1263143 C114.155514,13.6120286 112.9218,12.1268857 111.6318,10.6677429 L113.314371,9.32202857 C114.660371,10.7240286 115.922086,12.1820286 117.0998,13.6960286 L115.333229,15.1263143 Z M111.042943,8.14431429 L111.042943,5.95717143 L129.212943,5.95717143 L129.212943,8.14431429 L121.3058,8.14431429 L121.3058,16.1357429 L130.222371,16.1357429 L130.222371,18.3228857 L121.3058,18.3228857 L121.3058,25.1363143 L118.950371,25.1363143 L118.950371,18.3228857 L110.033514,18.3228857 L110.033514,16.1357429 L118.950371,16.1357429 L118.950371,8.14431429 L111.042943,8.14431429 Z" id="Fill-14" fill="#FFFFFF"></path>
                    <path d="M136.626,21.94 L147.477429,21.94 L147.477429,17.734 L136.626,17.734 L136.626,21.94 Z M134.354857,25.1365714 L134.354857,15.7151429 L149.832857,15.7151429 L149.832857,25.1365714 L147.477429,25.1365714 L147.477429,23.7905714 L136.626,23.7905714 L136.626,25.1365714 L134.354857,25.1365714 Z M150.421714,14.8737143 C149.916857,14.314 149.412286,13.7802857 148.907429,13.2754286 C143.019143,13.3885714 138.813143,13.5 136.289429,13.612 C135.112,13.7251429 134.158571,13.8642857 133.429429,14.0325714 L132.336,11.7614286 C133.121143,11.4808571 133.878,11.0331429 134.607143,10.4154286 C136.738286,8.62085714 138.616857,6.77028571 140.243143,4.86342857 L142.766857,5.95714286 C142.654571,6.07028571 142.486286,6.20942857 142.262,6.37771429 C139.794571,8.678 137.831714,10.4154286 136.373714,11.5931429 L147.056857,11.2565714 L144.533429,8.73314286 L146.215714,7.47114286 C148.571143,9.65828571 150.59,11.6491429 152.272286,13.4437143 L150.421714,14.8737143 Z" id="Fill-15" fill="#FFFFFF"></path>
                </g>
            </g>
        </g>
    </g>
</svg>