<?xml version="1.0" encoding="UTF-8"?>
<svg width="16px" height="4px" viewBox="0 0 16 4" version="1.1" xmlns="http://www.w3.org/2000/svg" xmlns:xlink="http://www.w3.org/1999/xlink">
    <!-- Generator: Sketch 46.1 (44463) - http://www.bohemiancoding.com/sketch -->
    <title>hover</title>
    <desc>Created with Sketch.</desc>
    <defs></defs>
    <g id="1.1_人员管理" stroke="none" stroke-width="1" fill="none" fill-rule="evenodd">
        <g id="Artboard" transform="translate(-317.000000, -214.000000)" fill="#6699EE">
            <path d="M319,218 C317.895431,218 317,217.104569 317,216 C317,214.895431 317.895431,214 319,214 C320.104569,214 321,214.895431 321,216 C321,217.104569 320.104569,218 319,218 Z M325,218 C323.895431,218 323,217.104569 323,216 C323,214.895431 323.895431,214 325,214 C326.104569,214 327,214.895431 327,216 C327,217.104569 326.104569,218 325,218 Z M331,218 C329.895431,218 329,217.104569 329,216 C329,214.895431 329.895431,214 331,214 C332.104569,214 333,214.895431 333,216 C333,217.104569 332.104569,218 331,218 Z" id="Combined-Shape"></path>
        </g>
    </g>
</svg>