<?xml version="1.0" encoding="UTF-8"?>
<svg width="16px" height="4px" viewBox="0 0 16 4" version="1.1" xmlns="http://www.w3.org/2000/svg" xmlns:xlink="http://www.w3.org/1999/xlink">
    <!-- Generator: Sketch 46.1 (44463) - http://www.bohemiancoding.com/sketch -->
    <title>更多</title>
    <desc>Created with Sketch.</desc>
    <defs></defs>
    <g id="1.1_人员管理" stroke="none" stroke-width="1" fill="none" fill-rule="evenodd">
        <g id="Artboard" transform="translate(-317.000000, -206.000000)" fill="#8492A6">
            <path d="M319,210 C317.895431,210 317,209.104569 317,208 C317,206.895431 317.895431,206 319,206 C320.104569,206 321,206.895431 321,208 C321,209.104569 320.104569,210 319,210 Z M325,210 C323.895431,210 323,209.104569 323,208 C323,206.895431 323.895431,206 325,206 C326.104569,206 327,206.895431 327,208 C327,209.104569 326.104569,210 325,210 Z M331,210 C329.895431,210 329,209.104569 329,208 C329,206.895431 329.895431,206 331,206 C332.104569,206 333,206.895431 333,208 C333,209.104569 332.104569,210 331,210 Z" id="Combined-Shape"></path>
        </g>
    </g>
</svg>