<?xml version="1.0" encoding="UTF-8"?>
<svg width="14px" height="14px" viewBox="0 0 14 14" version="1.1" xmlns="http://www.w3.org/2000/svg" xmlns:xlink="http://www.w3.org/1999/xlink">
    <!-- Generator: Sketch 45.2 (43514) - http://www.bohemiancoding.com/sketch -->
    <title>人</title>
    <desc>Created with Sketch.</desc>
    <defs></defs>
    <g id="1.1_人员管理" stroke="none" stroke-width="1" fill="none" fill-rule="evenodd">
        <g id="Artboard" transform="translate(-173.000000, -128.000000)" fill="#68A0DE">
            <path d="M181.584568,137.367722 C181.584568,137.367722 182.894295,136.134202 183.16216,134.475451 C183.883307,134.475451 184.328588,132.711988 183.607441,132.091507 C183.62846,131.635203 183.956536,129.586259 183.320967,129.284903 C183.018985,129.171629 182.562401,129.11262 182.428415,129.035892 C181.87702,128.720133 181.095723,128 179.994573,128 C175.454788,128 176.351613,131.438248 176.381704,132.091507 C175.660383,132.711811 176.105839,134.475451 176.826812,134.475451 C177.094851,136.134202 178.404403,137.367722 178.404403,137.367722 C178.404403,137.367722 178.3152,138.533738 177.896705,138.601243 C177.213762,138.711369 175.584905,139.342977 174.143708,140.260188 C173.525533,140.653608 174.800748,142.059683 179.947994,141.998034 C185.095239,141.936385 186.325203,140.570616 185.932271,140.316006 C184.470253,139.368655 182.789151,138.713589 182.09244,138.601243 C181.673945,138.533738 181.584568,137.367722 181.584568,137.367722 Z" id="user"></path>
        </g>
    </g>
</svg>