<?xml version="1.0" encoding="UTF-8"?>
<svg width="12px" height="12px" viewBox="0 0 12 12" version="1.1" xmlns="http://www.w3.org/2000/svg" xmlns:xlink="http://www.w3.org/1999/xlink">
    <!-- Generator: Sketch 51.3 (57544) - http://www.bohemiancoding.com/sketch -->
    <title>撤回</title>
    <desc>Created with Sketch.</desc>
    <defs></defs>
    <g id="Page-1" stroke="none" stroke-width="1" fill="none" fill-rule="evenodd">
        <g id="Artboard-2" transform="translate(-66.000000, -49.000000)" fill="#6699EE" fill-rule="nonzero">
            <g id="撤回" transform="translate(66.000000, 49.000000)">
                <path d="M1.31295513e-05,5.24994883 L5.2499784,5.2499784 L3.27296985,3.07046083 C4.04396523,2.3569809 4.95296489,1.99998313 5.99993837,1.99998313 C6.5414356,1.99998313 7.05892001,2.10548637 7.55092207,2.31648102 C8.04291945,2.52747532 8.4689053,2.81247448 8.8284144,3.17196834 C9.1930623,3.53883225 9.48352941,3.97258293 9.68390187,4.44946082 C9.89390008,4.94145819 9.99989586,5.4584387 9.99989586,5.99994062 C9.99989586,6.54143785 9.89439262,7.05843007 9.68339796,7.55043214 C9.47240367,8.04242951 9.18740451,8.46841537 8.82791065,8.82792446 C8.46841678,9.18743004 8.04292312,9.47241631 7.55041832,9.68341178 C7.05791704,9.89440608 6.54093653,9.99990968 5.99993852,9.99990968 C5.37993879,9.99990968 4.79444598,9.86491008 4.24195543,9.59390423 C3.69266755,9.3250593 3.21378107,8.93161164 2.84346732,8.44492284 C2.24999074,8.99996297 1.87499229,9.37496143 1.38298033,9.83590755 C1.94192116,10.5163961 2.64683236,11.0623769 3.44546282,11.4334032 C4.24436815,11.8094343 5.11694956,12.0029395 5.99991961,11.9998845 C6.80036497,12.0022774 7.59276224,11.8400939 8.32788898,11.5234027 C9.06737274,11.2053931 9.70536538,10.7783994 10.2418716,10.2419026 C10.777861,9.70591312 11.2053574,9.06741774 11.52336,8.32791992 C11.840854,7.58843616 11.9998418,6.8124322 11.9998418,5.99995022 C11.9998418,5.18745887 11.840854,4.41147835 11.52336,3.67199225 C11.2058543,2.93249677 10.7783685,2.29450412 10.2418716,1.75800961 C9.70587046,1.22151627 9.06687117,0.794512065 8.32788898,0.477013392 C7.5928581,0.159930631 6.80041278,-0.00243451471 5.99991905,2.75873961e-05 C5.23443146,2.75873961e-05 4.4934313,0.144519349 3.77745295,0.433513418 C3.06927805,0.717201265 2.42108192,1.13213988 1.86697418,1.65650201 L0,5.68434189e-14 L1.31295513e-05,5.24994883 Z" id="Shape"></path>
            </g>
        </g>
    </g>
</svg>