<?xml version="1.0" encoding="UTF-8"?>
<svg width="16px" height="12px" viewBox="0 0 16 12" version="1.1" xmlns="http://www.w3.org/2000/svg" xmlns:xlink="http://www.w3.org/1999/xlink">
    <!-- Generator: Sketch 51.3 (57544) - http://www.bohemiancoding.com/sketch -->
    <title>查看</title>
    <desc>Created with Sketch.</desc>
    <defs></defs>
    <g id="Page-1" stroke="none" stroke-width="1" fill="none" fill-rule="evenodd">
        <g id="Artboard-2" transform="translate(-16.000000, -48.000000)" fill="#6699EE">
            <path d="M23.9998121,48 C20.3637389,48 17.2580047,50.4877343 16,54 C17.2580047,57.5118523 20.3637389,60 23.9998121,60 C27.6362611,60 30.7416195,57.5118523 32,54 C30.7416195,50.4877343 27.6362611,48 23.9998121,48 L23.9998121,48 Z M23.9997933,58 C21.7919272,58 20,56.2080728 20,54.0002067 C20,51.7919272 21.7919272,50 23.9997933,50 C26.2080728,50 28,51.7919272 28,54.0002067 C28,56.2080728 26.2080728,58 23.9997933,58 L23.9997933,58 Z M24,52 C22.8933678,52 22,52.8933678 22,54 C22,55.1066322 22.8933678,56 24,56 C25.1066322,56 26,55.1066322 26,54 C26,52.8933678 25.1066322,52 24,52 L24,52 Z" id="Fill-29"></path>
        </g>
    </g>
</svg>