<?xml version="1.0" encoding="UTF-8"?>
<svg width="14px" height="14px" viewBox="0 0 14 14" version="1.1" xmlns="http://www.w3.org/2000/svg" xmlns:xlink="http://www.w3.org/1999/xlink">
    <!-- Generator: Sketch 45.1 (43504) - http://www.bohemiancoding.com/sketch -->
    <title>设置</title>
    <desc>Created with Sketch.</desc>
    <defs></defs>
    <g id="1.1_页面" stroke="none" stroke-width="1" fill="none" fill-rule="evenodd">
        <g id="Artboard-2" transform="translate(-162.000000, -103.000000)" fill="#6699EE">
            <path d="M174.954676,109.683695 C174.907978,109.427878 174.656633,109.166675 174.3943,109.110126 L174.199268,109.065695 C173.740529,108.929708 173.333982,108.632152 173.074396,108.19457 C172.816184,107.754295 172.754378,107.253431 172.867002,106.795653 L172.867002,106.795653 L172.928809,106.615235 C173.007096,106.36615 172.90546,106.022816 172.700813,105.851822 C172.700813,105.851822 172.516768,105.699678 172.000343,105.407508 C171.482546,105.116684 171.260044,105.0359 171.260044,105.0359 C171.008699,104.945691 170.655717,105.031861 170.471672,105.223051 L170.335699,105.36577 C169.988211,105.688907 169.519858,105.884136 169.00206,105.884136 C168.484262,105.884136 168.011789,105.686214 167.664301,105.36173 L167.532448,105.223051 C167.35115,105.031861 166.996795,104.947037 166.744077,105.0359 C166.744077,105.0359 166.518828,105.116684 166.00103,105.407508 C165.483232,105.702371 165.301934,105.854515 165.301934,105.854515 C165.097287,106.022816 164.995651,106.363457 165.073938,106.615235 L165.130251,106.797 C165.240128,107.256124 165.182442,107.754295 164.922857,108.19457 C164.663271,108.634845 164.252604,108.935093 163.791118,109.068387 L163.602953,109.110126 C163.344741,109.168021 163.090649,109.426531 163.042578,109.683695 C163.042578,109.683695 163,109.913931 163,110.499617 C163,111.085304 163.042578,111.31554 163.042578,111.31554 C163.089275,111.57405 163.34062,111.83256 163.602953,111.889109 L163.786998,111.930848 C164.248483,112.064142 164.661898,112.36439 164.92011,112.807358 C165.178322,113.247633 165.240128,113.748496 165.127504,114.206274 L165.127504,114.206274 L165.073938,114.384 C164.995651,114.633085 165.097287,114.976419 165.301934,115.147413 C165.301934,115.147413 165.485979,115.299556 166.002404,115.591727 C166.520201,115.883897 166.742703,115.963335 166.742703,115.963335 C166.994048,116.053544 167.34703,115.967374 167.531075,115.776184 L167.660181,115.640197 C168.010415,115.315713 168.481515,115.116445 169.000687,115.116445 C169.519858,115.116445 169.993705,115.31706 170.341193,115.641544 L170.341193,115.641544 L170.470299,115.777531 C170.651597,115.96872 171.005952,116.053544 171.25867,115.964681 C171.25867,115.964681 171.483919,115.883897 172.001717,115.593073 C172.519515,115.300903 172.700813,115.148759 172.700813,115.148759 C172.90546,114.980458 173.007096,114.637124 172.928809,114.385346 L172.872496,114.200889 C172.762619,113.744457 172.820304,113.246287 173.07989,112.808705 C173.338102,112.36843 173.75289,112.066835 174.213002,111.932194 L174.213002,111.932194 L174.397047,111.890455 C174.655259,111.83256 174.909351,111.57405 174.957422,111.316886 C174.957422,111.316886 175,111.086651 175,110.500964 C174.997253,109.915277 174.954676,109.683695 174.954676,109.683695 L174.954676,109.683695 L174.954676,109.683695 L174.954676,109.683695 Z M169.00206,112.845058 C167.682156,112.845058 166.609477,111.796207 166.609477,110.499617 C166.609477,109.205721 167.679409,108.15687 169.00206,108.15687 C170.321964,108.15687 171.394643,109.205721 171.394643,110.50231 C171.391897,111.796207 170.321964,112.845058 169.00206,112.845058 L169.00206,112.845058 L169.00206,112.845058 L169.00206,112.845058 Z" id="Shape"></path>
        </g>
    </g>
</svg>