<?xml version="1.0" encoding="UTF-8"?>
<svg width="7px" height="7px" viewBox="0 0 7 7" version="1.1" xmlns="http://www.w3.org/2000/svg" xmlns:xlink="http://www.w3.org/1999/xlink">
    <!-- Generator: Sketch 45.2 (43514) - http://www.bohemiancoding.com/sketch -->
    <title>星标</title>
    <desc>Created with Sketch.</desc>
    <defs></defs>
    <g id="1.1_人员管理" stroke="none" stroke-width="1" fill="none" fill-rule="evenodd">
        <g id="Artboard" transform="translate(-464.000000, -406.000000)" fill="#FFAA00">
            <path d="M466.464047,408.278651 L466.464047,407.071986 C466.464047,406.479944 466.923894,406 467.500054,406 C468.072225,406 468.536061,406.47572 468.536061,407.071986 L468.536061,408.278651 L469.644099,407.905771 C470.187749,407.72282 470.770565,408.027468 470.948609,408.594997 C471.125419,409.158597 470.831916,409.76249 470.284386,409.946746 L469.176349,410.319626 L469.861154,411.295839 C470.197148,411.774811 470.097501,412.443038 469.631378,412.79379 C469.168482,413.142114 468.523251,413.039621 468.184859,412.557231 L467.500054,411.581018 L466.815249,412.557231 C466.479255,413.036203 465.834853,413.144542 465.36873,412.79379 C464.905834,412.445466 464.800563,411.778228 465.138954,411.295839 L465.823759,410.319626 L464.715722,409.946746 C464.172071,409.763795 463.873456,409.162526 464.0515,408.594997 C464.22831,408.031397 464.80848,407.721515 465.356009,407.905771 L466.464047,408.278651 L466.464047,408.278651 Z" id="Rectangle-120"></path>
        </g>
    </g>
</svg>