<?xml version="1.0" encoding="UTF-8"?>
<svg width="7px" height="7px" viewBox="0 0 7 7" version="1.1" xmlns="http://www.w3.org/2000/svg" xmlns:xlink="http://www.w3.org/1999/xlink">
    <!-- Generator: Sketch 46 (44423) - http://www.bohemiancoding.com/sketch -->
    <title>星标</title>
    <desc>Created with Sketch.</desc>
    <defs></defs>
    <g id="1.1_人员管理" stroke="none" stroke-width="1" fill="none" fill-rule="evenodd">
        <g id="Artboard" transform="translate(-205.000000, -198.000000)" fill="#FFAA00">
            <path d="M207.464047,200.278651 L207.464047,199.071986 C207.464047,198.479944 207.923894,198 208.500054,198 C209.072225,198 209.536061,198.47572 209.536061,199.071986 L209.536061,200.278651 L210.644099,199.905771 C211.187749,199.72282 211.770565,200.027468 211.948609,200.594997 C212.125419,201.158597 211.831916,201.76249 211.284386,201.946746 L210.176349,202.319626 L210.861154,203.295839 C211.197148,203.774811 211.097501,204.443038 210.631378,204.79379 C210.168482,205.142114 209.523251,205.039621 209.184859,204.557231 L208.500054,203.581018 L207.815249,204.557231 C207.479255,205.036203 206.834853,205.144542 206.36873,204.79379 C205.905834,204.445466 205.800563,203.778228 206.138954,203.295839 L206.823759,202.319626 L205.715722,201.946746 C205.172071,201.763795 204.873456,201.162526 205.0515,200.594997 C205.22831,200.031397 205.80848,199.721515 206.356009,199.905771 L207.464047,200.278651 L207.464047,200.278651 Z" id="Rectangle-120"></path>
        </g>
    </g>
</svg>